{"glyphs":{"0":{"ha":857,"x_min":68,"x_max":803,"o":"m 401 -12 q 157 72 246 -12 q 68 297 68 156 q 78 393 68 346 q 152 558 96 488 q 293 666 208 628 q 481 704 378 704 q 717 624 632 704 q 803 407 803 544 q 793 314 803 361 q 720 142 775 217 q 583 28 665 68 q 401 -12 500 -12 m 419 67 q 541 122 489 67 q 613 279 593 176 q 624 393 624 333 q 578 563 624 501 q 451 624 532 624 q 324 568 376 624 q 253 417 271 513 q 243 308 243 363 q 290 132 243 197 q 419 67 336 67 z "},"1":{"ha":556,"x_min":46,"x_max":522,"o":"m 46 -4 q 61 71 46 42 q 118 87 100 76 q 147 122 136 97 q 168 199 158 146 l 225 497 q 232 553 232 535 q 213 601 232 586 q 146 624 194 617 q 143 668 143 651 q 144 699 143 688 q 331 694 229 694 q 522 699 426 694 q 508 624 522 657 q 448 604 468 618 q 418 565 428 590 q 399 488 408 540 l 344 200 q 336 138 336 150 q 355 91 336 106 q 421 71 374 76 q 425 24 425 50 q 424 -4 425 6 q 235 0 328 0 q 46 -4 124 0 z "},"2":{"ha":692,"x_min":17,"x_max":629,"o":"m 403 703 q 150 638 257 703 q 121 456 149 549 q 219 439 157 436 q 272 581 238 538 q 358 625 306 625 q 424 601 400 625 q 449 532 449 576 q 294 297 449 413 l 225 246 q 159 195 211 236 q 18 78 107 154 q 17 56 17 71 q 32 -4 17 19 q 292 0 126 0 q 440 -3 363 0 q 490 -4 461 -4 q 539 4 522 -4 q 567 36 556 13 q 586 224 564 124 q 544 236 569 232 q 494 238 518 240 q 467 169 482 186 q 425 151 453 151 q 394 153 407 151 q 322 156 353 156 q 233 154 264 156 q 357 247 324 225 q 442 307 367 254 q 588 433 547 382 q 629 554 629 483 q 569 665 629 626 q 403 703 510 703 z "},"3":{"ha":683,"x_min":3,"x_max":617,"o":"m 138 638 q 107 456 135 539 q 153 441 126 446 q 207 439 181 436 q 261 583 226 540 q 347 625 296 625 q 413 600 389 625 q 438 529 438 575 q 435 493 438 506 q 196 282 408 344 q 193 261 193 268 q 210 208 193 229 q 348 171 300 210 q 396 65 396 132 q 390 19 396 50 q 312 -109 374 -61 q 154 -157 250 -157 q 38 -133 82 -157 q 15 -160 25 -140 q 3 -197 4 -179 q 161 -237 54 -237 q 424 -164 314 -237 q 567 35 535 -90 q 576 107 576 69 q 535 238 576 182 q 421 313 494 293 q 554 404 511 357 q 611 506 597 451 q 617 551 617 528 q 557 663 617 622 q 385 703 497 703 q 138 638 243 703 z "},"4":{"ha":772,"x_min":10,"x_max":675,"o":"m 675 118 q 638 0 651 74 l 528 0 l 489 -212 q 344 -237 408 -211 q 321 -197 321 -225 q 322 -181 321 -186 l 356 -1 q 36 -7 118 -4 q 13 88 10 31 q 557 703 335 439 q 656 688 615 703 l 556 147 l 625 147 q 675 118 660 147 m 453 475 q 316 309 396 399 q 160 143 236 219 l 383 143 l 408 282 q 453 475 432 407 z "},"5":{"ha":660,"x_min":-26,"x_max":628,"o":"m 82 324 q 107 267 82 290 q 300 207 231 260 q 369 69 369 154 q 365 28 369 49 q 284 -105 350 -54 q 124 -156 218 -156 q 8 -135 56 -156 q -26 -201 -19 -160 q 132 -237 29 -237 q 317 -203 231 -237 q 462 -101 403 -168 q 540 56 521 -35 q 547 119 547 93 q 453 317 547 239 q 192 414 358 394 l 228 535 q 540 539 315 539 q 597 569 582 539 q 628 760 604 678 q 558 772 599 772 l 533 771 q 508 715 528 735 q 443 694 488 694 q 199 699 285 694 l 82 324 z "},"6":{"ha":775,"x_min":78,"x_max":726,"o":"m 722 821 q 286 503 383 758 q 372 538 331 528 q 460 549 413 549 q 632 489 569 549 q 694 326 694 429 q 688 257 694 296 q 573 60 664 133 q 351 -12 482 -12 q 149 63 219 -12 q 78 275 78 138 q 90 397 78 331 q 205 647 118 539 q 424 816 292 754 q 718 886 557 878 q 726 851 726 874 q 722 821 726 838 m 388 457 q 265 429 319 457 q 260 404 263 421 q 246 269 246 321 q 278 122 246 175 q 368 68 310 68 q 459 113 419 68 q 513 229 499 157 q 519 296 519 268 q 484 414 519 371 q 388 457 449 457 z "},"7":{"ha":657,"x_min":107,"x_max":654,"o":"m 632 699 q 654 632 654 675 q 454 344 514 435 q 364 186 394 253 q 318 47 332 119 q 297 -150 304 -26 q 222 -187 261 -162 q 158 -236 183 -211 q 125 -210 136 -231 q 114 -150 114 -190 q 142 -10 114 -85 q 254 194 171 65 q 501 539 338 324 l 335 539 q 250 515 278 539 q 203 429 222 492 q 107 446 143 426 q 156 699 143 578 q 410 694 235 694 q 632 699 540 694 z "},"8":{"ha":743,"x_min":50,"x_max":707,"o":"m 703 682 q 642 574 690 619 q 517 493 594 528 q 657 253 657 381 q 647 183 657 217 q 539 36 621 85 q 329 -12 457 -12 q 124 37 199 -12 q 50 179 50 86 q 57 236 50 201 q 126 365 75 313 q 278 465 176 417 q 169 654 169 553 q 176 707 169 676 q 276 838 199 792 q 469 885 353 885 q 647 839 586 885 q 707 719 707 793 q 703 682 707 701 m 544 675 q 549 714 549 696 q 522 786 549 761 q 454 811 496 811 q 387 790 415 811 q 347 728 358 768 q 342 692 342 703 q 371 612 342 646 q 450 542 400 578 q 513 600 490 569 q 544 675 536 631 m 471 171 q 478 221 478 201 q 445 319 478 276 q 344 414 413 361 q 263 343 292 383 q 225 250 235 303 q 219 200 219 214 q 253 101 219 136 q 344 65 286 65 q 425 92 392 65 q 471 171 458 118 z "},"9":{"ha":771,"x_min":29,"x_max":706,"o":"m 436 703 q 635 628 564 703 q 706 421 706 554 q 692 300 706 372 q 572 31 661 149 q 344 -156 482 -86 q 38 -236 207 -225 q 29 -194 29 -219 q 31 -171 29 -179 q 320 -52 211 -137 q 482 163 429 33 q 322 121 408 121 q 149 184 208 121 q 89 353 89 247 q 99 439 89 396 q 213 633 125 563 q 436 703 300 703 m 522 306 q 535 429 535 375 q 502 572 535 522 q 414 622 469 622 q 322 578 360 622 q 271 458 285 535 q 264 382 264 425 q 297 259 264 306 q 401 213 331 213 q 507 239 456 213 q 522 306 518 283 z "},"\r":{"ha":258,"x_min":0,"x_max":0,"o":""}," ":{"ha":258,"x_min":0,"x_max":0,"o":""},"A":{"ha":964,"x_min":-42,"x_max":886,"o":"m 881 71 q 886 22 886 50 q 885 -4 886 6 q 708 0 835 0 q 522 -4 578 0 q 536 71 522 42 q 600 92 582 78 q 618 135 618 106 q 611 182 618 150 l 588 281 q 235 272 368 281 l 193 203 q 160 119 160 149 q 174 89 160 100 q 219 71 188 78 q 224 28 224 50 q 221 -4 224 18 q 79 0 182 0 q -42 -4 -4 0 q -28 71 -42 38 q 38 111 10 81 q 114 221 67 142 q 465 828 226 407 l 529 939 q 600 947 557 947 q 797 211 711 572 q 822 126 811 154 q 846 87 833 97 q 881 71 858 76 m 569 353 l 563 379 q 510 578 528 515 q 479 726 492 638 q 418 604 449 661 l 401 572 q 281 353 354 482 l 569 353 z "},"Á":{"ha":964,"x_min":-42,"x_max":886,"o":"m 881 71 q 886 22 886 50 q 885 -4 886 6 q 708 0 835 0 q 522 -4 578 0 q 536 71 522 42 q 600 92 582 78 q 618 135 618 106 q 611 182 618 150 l 588 281 q 235 272 368 281 l 193 203 q 160 119 160 149 q 174 89 160 100 q 219 71 188 78 q 224 28 224 50 q 221 -4 224 18 q 79 0 182 0 q -42 -4 -4 0 q -28 71 -42 38 q 38 111 10 81 q 114 221 67 142 q 465 828 226 407 l 529 939 q 600 947 557 947 q 797 211 711 572 q 822 126 811 154 q 846 87 833 97 q 881 71 858 76 m 569 353 l 563 379 q 510 578 528 515 q 479 726 492 638 q 418 604 449 661 l 401 572 q 281 353 354 482 l 569 353 m 571 1014 q 493 1044 528 1018 q 560 1135 529 1086 q 607 1219 592 1185 q 667 1224 639 1224 q 781 1203 739 1224 q 571 1014 656 1097 z "},"Ă":{"ha":964,"x_min":-42,"x_max":886,"o":"m 881 71 q 886 22 886 50 q 885 -4 886 6 q 708 0 835 0 q 522 -4 578 0 q 536 71 522 42 q 600 92 582 78 q 618 135 618 106 q 611 182 618 150 l 588 281 q 235 272 368 281 l 193 203 q 160 119 160 149 q 174 89 160 100 q 219 71 188 78 q 224 28 224 50 q 221 -4 224 18 q 79 0 182 0 q -42 -4 -4 0 q -28 71 -42 38 q 38 111 10 81 q 114 221 67 142 q 465 828 226 407 l 529 939 q 600 947 557 947 q 797 211 711 572 q 822 126 811 154 q 846 87 833 97 q 881 71 858 76 m 569 353 l 563 379 q 510 578 528 515 q 479 726 492 638 q 418 604 449 661 l 401 572 q 281 353 354 482 l 569 353 m 563 1010 q 408 1049 461 1010 q 354 1161 354 1088 q 358 1206 354 1183 q 447 1218 401 1222 q 485 1142 446 1169 q 596 1115 525 1115 q 713 1142 665 1115 q 775 1218 761 1169 q 797 1219 782 1219 q 846 1210 824 1219 q 755 1061 828 1113 q 563 1010 682 1010 z "},"Ắ":{"ha":964,"x_min":-42,"x_max":886,"o":"m 881 71 q 886 22 886 50 q 885 -4 886 6 q 708 0 835 0 q 522 -4 578 0 q 536 71 522 42 q 600 92 582 78 q 618 135 618 106 q 611 182 618 150 l 588 281 q 235 272 368 281 l 193 203 q 160 119 160 149 q 174 89 160 100 q 219 71 188 78 q 224 28 224 50 q 221 -4 224 18 q 79 0 182 0 q -42 -4 -4 0 q -28 71 -42 38 q 38 111 10 81 q 114 221 67 142 q 465 828 226 407 l 529 939 q 600 947 557 947 q 797 211 711 572 q 822 126 811 154 q 846 87 833 97 q 881 71 858 76 m 569 353 l 563 379 q 510 578 528 515 q 479 726 492 638 q 418 604 449 661 l 401 572 q 281 353 354 482 l 569 353 z "},"Ặ":{"ha":964,"x_min":-42,"x_max":886,"o":"m 881 71 q 886 22 886 50 q 885 -4 886 6 q 708 0 835 0 q 522 -4 578 0 q 536 71 522 42 q 600 92 582 78 q 618 135 618 106 q 611 182 618 150 l 588 281 q 235 272 368 281 l 193 203 q 160 119 160 149 q 174 89 160 100 q 219 71 188 78 q 224 28 224 50 q 221 -4 224 18 q 79 0 182 0 q -42 -4 -4 0 q -28 71 -42 38 q 38 111 10 81 q 114 221 67 142 q 465 828 226 407 l 529 939 q 600 947 557 947 q 797 211 711 572 q 822 126 811 154 q 846 87 833 97 q 881 71 858 76 m 569 353 l 563 379 q 510 578 528 515 q 479 726 492 638 q 418 604 449 661 l 401 572 q 281 353 354 482 l 569 353 m 318 -311 q 253 -290 276 -311 q 231 -233 231 -269 q 232 -214 231 -221 q 270 -144 240 -169 q 343 -118 300 -118 q 406 -138 382 -118 q 431 -196 431 -158 q 399 -279 431 -247 q 318 -311 368 -311 m 563 1010 q 408 1049 461 1010 q 354 1161 354 1088 q 358 1206 354 1183 q 447 1218 401 1222 q 485 1142 446 1169 q 596 1115 525 1115 q 713 1142 665 1115 q 775 1218 761 1169 q 797 1219 782 1219 q 846 1210 824 1219 q 755 1061 828 1113 q 563 1010 682 1010 z "},"Ằ":{"ha":964,"x_min":-42,"x_max":886,"o":"m 881 71 q 886 22 886 50 q 885 -4 886 6 q 708 0 835 0 q 522 -4 578 0 q 536 71 522 42 q 600 92 582 78 q 618 135 618 106 q 611 182 618 150 l 588 281 q 235 272 368 281 l 193 203 q 160 119 160 149 q 174 89 160 100 q 219 71 188 78 q 224 28 224 50 q 221 -4 224 18 q 79 0 182 0 q -42 -4 -4 0 q -28 71 -42 38 q 38 111 10 81 q 114 221 67 142 q 465 828 226 407 l 529 939 q 600 947 557 947 q 797 211 711 572 q 822 126 811 154 q 846 87 833 97 q 881 71 858 76 m 569 353 l 563 379 q 510 578 528 515 q 479 726 492 638 q 418 604 449 661 l 401 572 q 281 353 354 482 l 569 353 z "},"Ẳ":{"ha":964,"x_min":-42,"x_max":886,"o":"m 881 71 q 886 22 886 50 q 885 -4 886 6 q 708 0 835 0 q 522 -4 578 0 q 536 71 522 42 q 600 92 582 78 q 618 135 618 106 q 611 182 618 150 l 588 281 q 235 272 368 281 l 193 203 q 160 119 160 149 q 174 89 160 100 q 219 71 188 78 q 224 28 224 50 q 221 -4 224 18 q 79 0 182 0 q -42 -4 -4 0 q -28 71 -42 38 q 38 111 10 81 q 114 221 67 142 q 465 828 226 407 l 529 939 q 600 947 557 947 q 797 211 711 572 q 822 126 811 154 q 846 87 833 97 q 881 71 858 76 m 569 353 l 563 379 q 510 578 528 515 q 479 726 492 638 q 418 604 449 661 l 401 572 q 281 353 354 482 l 569 353 z "},"Ẵ":{"ha":964,"x_min":-42,"x_max":892,"o":"m 881 71 q 886 22 886 50 q 885 -4 886 6 q 708 0 835 0 q 522 -4 578 0 q 536 71 522 42 q 600 92 582 78 q 618 135 618 106 q 611 182 618 150 l 588 281 q 235 272 368 281 l 193 203 q 160 119 160 149 q 174 89 160 100 q 219 71 188 78 q 224 28 224 50 q 221 -4 224 18 q 79 0 182 0 q -42 -4 -4 0 q -28 71 -42 38 q 38 111 10 81 q 114 221 67 142 q 465 828 226 407 l 529 939 q 600 947 557 947 q 797 211 711 572 q 822 126 811 154 q 846 87 833 97 q 881 71 858 76 m 569 353 l 563 379 q 510 578 528 515 q 479 726 492 638 q 418 604 449 661 l 401 572 q 281 353 354 482 l 569 353 m 563 1010 q 408 1049 461 1010 q 354 1161 354 1088 q 358 1206 354 1183 q 447 1218 401 1222 q 485 1142 446 1169 q 596 1115 525 1115 q 713 1142 665 1115 q 775 1218 761 1169 q 797 1219 782 1219 q 846 1210 824 1219 q 755 1061 828 1113 q 563 1010 682 1010 m 706 1258 q 654 1266 676 1258 q 604 1288 632 1274 q 561 1307 576 1301 q 526 1313 546 1313 q 413 1261 474 1313 q 393 1338 389 1292 q 575 1419 476 1419 q 626 1412 604 1419 q 679 1390 649 1404 q 753 1367 724 1367 q 843 1414 793 1367 q 892 1369 879 1397 q 706 1258 808 1258 z "},"Ǎ":{"ha":964,"x_min":-42,"x_max":886,"o":"m 881 71 q 886 22 886 50 q 885 -4 886 6 q 708 0 835 0 q 522 -4 578 0 q 536 71 522 42 q 600 92 582 78 q 618 135 618 106 q 611 182 618 150 l 588 281 q 235 272 368 281 l 193 203 q 160 119 160 149 q 174 89 160 100 q 219 71 188 78 q 224 28 224 50 q 221 -4 224 18 q 79 0 182 0 q -42 -4 -4 0 q -28 71 -42 38 q 38 111 10 81 q 114 221 67 142 q 465 828 226 407 l 529 939 q 600 947 557 947 q 797 211 711 572 q 822 126 811 154 q 846 87 833 97 q 881 71 858 76 m 569 353 l 563 379 q 510 578 528 515 q 479 726 492 638 q 418 604 449 661 l 401 572 q 281 353 354 482 l 569 353 m 539 1015 q 363 1181 464 1103 q 382 1217 369 1204 q 418 1233 394 1231 q 599 1143 514 1178 q 789 1231 692 1174 q 819 1211 806 1225 q 840 1179 832 1197 q 610 1025 706 1100 q 557 1014 583 1014 q 539 1015 544 1014 z "},"Â":{"ha":964,"x_min":-42,"x_max":886,"o":"m 881 71 q 886 22 886 50 q 885 -4 886 6 q 708 0 835 0 q 522 -4 578 0 q 536 71 522 42 q 600 92 582 78 q 618 135 618 106 q 611 182 618 150 l 588 281 q 235 272 368 281 l 193 203 q 160 119 160 149 q 174 89 160 100 q 219 71 188 78 q 224 28 224 50 q 221 -4 224 18 q 79 0 182 0 q -42 -4 -4 0 q -28 71 -42 38 q 38 111 10 81 q 114 221 67 142 q 465 828 226 407 l 529 939 q 600 947 557 947 q 797 211 711 572 q 822 126 811 154 q 846 87 833 97 q 881 71 858 76 m 569 353 l 563 379 q 510 578 528 515 q 479 726 492 638 q 418 604 449 661 l 401 572 q 281 353 354 482 l 569 353 m 407 1008 q 380 1039 390 1018 q 369 1078 369 1060 q 593 1225 464 1126 q 617 1226 601 1226 q 668 1218 643 1226 q 793 1088 710 1168 l 831 1050 q 804 1028 822 1036 q 765 1017 786 1019 q 596 1103 675 1074 q 497 1057 550 1085 q 432 1022 444 1029 l 407 1008 z "},"Ấ":{"ha":964,"x_min":-42,"x_max":1008,"o":"m 881 71 q 886 22 886 50 q 885 -4 886 6 q 708 0 835 0 q 522 -4 578 0 q 536 71 522 42 q 600 92 582 78 q 618 135 618 106 q 611 182 618 150 l 588 281 q 235 272 368 281 l 193 203 q 160 119 160 149 q 174 89 160 100 q 219 71 188 78 q 224 28 224 50 q 221 -4 224 18 q 79 0 182 0 q -42 -4 -4 0 q -28 71 -42 38 q 38 111 10 81 q 114 221 67 142 q 465 828 226 407 l 529 939 q 600 947 557 947 q 797 211 711 572 q 822 126 811 154 q 846 87 833 97 q 881 71 858 76 m 569 353 l 563 379 q 510 578 528 515 q 479 726 492 638 q 418 604 449 661 l 401 572 q 281 353 354 482 l 569 353 m 819 1188 q 750 1215 779 1192 q 811 1298 783 1254 q 851 1372 839 1342 q 907 1376 881 1376 q 1008 1358 968 1376 q 819 1188 915 1281 m 407 1008 q 380 1039 390 1018 q 369 1078 369 1060 q 594 1225 464 1126 q 617 1226 601 1226 q 668 1218 643 1226 q 832 1050 714 1165 q 805 1028 822 1036 q 765 1017 788 1019 q 596 1103 672 1075 q 447 1029 540 1081 l 407 1008 z "},"Ậ":{"ha":964,"x_min":-42,"x_max":886,"o":"m 881 71 q 886 22 886 50 q 885 -4 886 6 q 708 0 835 0 q 522 -4 578 0 q 536 71 522 42 q 600 92 582 78 q 618 135 618 106 q 611 182 618 150 l 588 281 q 235 272 368 281 l 193 203 q 160 119 160 149 q 174 89 160 100 q 219 71 188 78 q 224 28 224 50 q 221 -4 224 18 q 79 0 182 0 q -42 -4 -4 0 q -28 71 -42 38 q 38 111 10 81 q 114 221 67 142 q 465 828 226 407 l 529 939 q 600 947 557 947 q 797 211 711 572 q 822 126 811 154 q 846 87 833 97 q 881 71 858 76 m 569 353 l 563 379 q 510 578 528 515 q 479 726 492 638 q 418 604 449 661 l 401 572 q 281 353 354 482 l 569 353 m 318 -311 q 253 -290 276 -311 q 231 -233 231 -269 q 232 -214 231 -221 q 270 -144 240 -169 q 343 -118 300 -118 q 406 -138 382 -118 q 431 -196 431 -158 q 399 -279 431 -247 q 318 -311 368 -311 m 407 1008 q 380 1039 390 1018 q 369 1078 369 1060 q 593 1225 464 1126 q 617 1226 601 1226 q 668 1218 643 1226 q 793 1088 710 1168 l 831 1050 q 804 1028 822 1036 q 765 1017 786 1019 q 596 1103 675 1074 q 497 1057 550 1085 q 432 1022 444 1029 l 407 1008 z "},"Ầ":{"ha":964,"x_min":-42,"x_max":886,"o":"m 881 71 q 886 22 886 50 q 885 -4 886 6 q 708 0 835 0 q 522 -4 578 0 q 536 71 522 42 q 600 92 582 78 q 618 135 618 106 q 611 182 618 150 l 588 281 q 235 272 368 281 l 193 203 q 160 119 160 149 q 174 89 160 100 q 219 71 188 78 q 224 28 224 50 q 221 -4 224 18 q 79 0 182 0 q -42 -4 -4 0 q -28 71 -42 38 q 38 111 10 81 q 114 221 67 142 q 465 828 226 407 l 529 939 q 600 947 557 947 q 797 211 711 572 q 822 126 811 154 q 846 87 833 97 q 881 71 858 76 m 569 353 l 563 379 q 510 578 528 515 q 479 726 492 638 q 418 604 449 661 l 401 572 q 281 353 354 482 l 569 353 z "},"Ẩ":{"ha":964,"x_min":-42,"x_max":971,"o":"m 881 71 q 886 22 886 50 q 885 -4 886 6 q 708 0 835 0 q 522 -4 578 0 q 536 71 522 42 q 600 92 582 78 q 618 135 618 106 q 611 182 618 150 l 588 281 q 235 272 368 281 l 193 203 q 160 119 160 149 q 174 89 160 100 q 219 71 188 78 q 224 28 224 50 q 221 -4 224 18 q 79 0 182 0 q -42 -4 -4 0 q -28 71 -42 38 q 38 111 10 81 q 114 221 67 142 q 465 828 226 407 l 529 939 q 600 947 557 947 q 797 211 711 572 q 822 126 811 154 q 846 87 833 97 q 881 71 858 76 m 569 353 l 563 379 q 510 578 528 515 q 479 726 492 638 q 418 604 449 661 l 401 572 q 281 353 354 482 l 569 353 z "},"Ẫ":{"ha":964,"x_min":-42,"x_max":906,"o":"m 881 71 q 886 22 886 50 q 885 -4 886 6 q 708 0 835 0 q 522 -4 578 0 q 536 71 522 42 q 600 92 582 78 q 618 135 618 106 q 611 182 618 150 l 588 281 q 235 272 368 281 l 193 203 q 160 119 160 149 q 174 89 160 100 q 219 71 188 78 q 224 28 224 50 q 221 -4 224 18 q 79 0 182 0 q -42 -4 -4 0 q -28 71 -42 38 q 38 111 10 81 q 114 221 67 142 q 465 828 226 407 l 529 939 q 600 947 557 947 q 797 211 711 572 q 822 126 811 154 q 846 87 833 97 q 881 71 858 76 m 569 353 l 563 379 q 510 578 528 515 q 479 726 492 638 q 418 604 449 661 l 401 572 q 281 353 354 482 l 569 353 m 407 1008 q 380 1039 390 1018 q 369 1078 369 1060 q 593 1225 464 1126 q 617 1226 601 1226 q 668 1218 643 1226 q 793 1088 710 1168 l 831 1050 q 804 1028 822 1036 q 765 1017 786 1019 q 596 1103 675 1074 q 497 1057 550 1085 q 432 1022 444 1029 l 407 1008 m 719 1294 q 668 1302 690 1294 q 618 1324 646 1310 q 575 1343 590 1338 q 540 1349 560 1349 q 426 1297 488 1349 q 407 1374 403 1328 q 589 1456 490 1456 q 640 1448 618 1456 q 693 1426 663 1440 q 767 1403 738 1403 q 857 1450 807 1403 q 906 1406 893 1433 q 719 1294 822 1294 z "},"Ȁ":{"ha":964,"x_min":-42,"x_max":886,"o":"m 881 71 q 886 22 886 50 q 885 -4 886 6 q 708 0 835 0 q 522 -4 578 0 q 536 71 522 42 q 600 92 582 78 q 618 135 618 106 q 611 182 618 150 l 588 281 q 235 272 368 281 l 193 203 q 160 119 160 149 q 174 89 160 100 q 219 71 188 78 q 224 28 224 50 q 221 -4 224 18 q 79 0 182 0 q -42 -4 -4 0 q -28 71 -42 38 q 38 111 10 81 q 114 221 67 142 q 465 828 226 407 l 529 939 q 600 947 557 947 q 797 211 711 572 q 822 126 811 154 q 846 87 833 97 q 881 71 858 76 m 569 353 l 563 379 q 510 578 528 515 q 479 726 492 638 q 418 604 449 661 l 401 572 q 281 353 354 482 l 569 353 m 467 1007 q 342 1182 396 1114 q 428 1196 378 1196 q 489 1190 450 1196 q 546 1004 519 1068 q 518 1001 526 1001 q 467 1007 506 1001 m 697 1007 q 576 1183 631 1113 q 660 1196 611 1196 q 719 1190 681 1196 l 729 1156 q 776 1004 756 1056 q 749 1001 757 1001 q 697 1007 736 1001 z "},"Ä":{"ha":964,"x_min":-42,"x_max":886,"o":"m 881 71 q 886 22 886 50 q 885 -4 886 6 q 708 0 835 0 q 522 -4 578 0 q 536 71 522 42 q 600 92 582 78 q 618 135 618 106 q 611 182 618 150 l 588 281 q 235 272 368 281 l 193 203 q 160 119 160 149 q 174 89 160 100 q 219 71 188 78 q 224 28 224 50 q 221 -4 224 18 q 79 0 182 0 q -42 -4 -4 0 q -28 71 -42 38 q 38 111 10 81 q 114 221 67 142 q 465 828 226 407 l 529 939 q 600 947 557 947 q 797 211 711 572 q 822 126 811 154 q 846 87 833 97 q 881 71 858 76 m 569 353 l 563 379 q 510 578 528 515 q 479 726 492 638 q 418 604 449 661 l 401 572 q 281 353 354 482 l 569 353 m 446 1011 q 385 1034 407 1011 q 363 1096 363 1057 q 386 1165 363 1140 q 454 1189 410 1189 q 516 1168 493 1189 q 539 1113 539 1147 q 536 1089 539 1106 q 506 1031 529 1051 q 446 1011 482 1011 m 736 1011 q 674 1033 696 1011 q 651 1093 651 1056 q 676 1165 651 1140 q 747 1189 700 1189 q 808 1167 786 1189 q 829 1110 829 1146 q 805 1037 829 1063 q 736 1011 781 1011 z "},"Ạ":{"ha":964,"x_min":-42,"x_max":886,"o":"m 881 71 q 886 22 886 50 q 885 -4 886 6 q 708 0 835 0 q 522 -4 578 0 q 536 71 522 42 q 600 92 582 78 q 618 135 618 106 q 611 182 618 150 l 588 281 q 235 272 368 281 l 193 203 q 160 119 160 149 q 174 89 160 100 q 219 71 188 78 q 224 28 224 50 q 221 -4 224 18 q 79 0 182 0 q -42 -4 -4 0 q -28 71 -42 38 q 38 111 10 81 q 114 221 67 142 q 465 828 226 407 l 529 939 q 600 947 557 947 q 797 211 711 572 q 822 126 811 154 q 846 87 833 97 q 881 71 858 76 m 569 353 l 563 379 q 510 578 528 515 q 479 726 492 638 q 418 604 449 661 l 401 572 q 281 353 354 482 l 569 353 m 318 -311 q 253 -290 276 -311 q 231 -233 231 -269 q 232 -214 231 -221 q 270 -144 240 -169 q 343 -118 300 -118 q 406 -138 382 -118 q 431 -196 431 -158 q 399 -279 431 -247 q 318 -311 368 -311 z "},"À":{"ha":964,"x_min":-42,"x_max":886,"o":"m 881 71 q 886 22 886 50 q 885 -4 886 6 q 708 0 835 0 q 522 -4 578 0 q 536 71 522 42 q 600 92 582 78 q 618 135 618 106 q 611 182 618 150 l 588 281 q 235 272 368 281 l 193 203 q 160 119 160 149 q 174 89 160 100 q 219 71 188 78 q 224 28 224 50 q 221 -4 224 18 q 79 0 182 0 q -42 -4 -4 0 q -28 71 -42 38 q 38 111 10 81 q 114 221 67 142 q 465 828 226 407 l 529 939 q 600 947 557 947 q 797 211 711 572 q 822 126 811 154 q 846 87 833 97 q 881 71 858 76 m 569 353 l 563 379 q 510 578 528 515 q 479 726 492 638 q 418 604 449 661 l 401 572 q 281 353 354 482 l 569 353 m 644 1028 q 599 1022 629 1022 q 551 1028 568 1022 q 492 1111 529 1064 q 415 1200 454 1158 q 511 1214 464 1214 q 576 1207 542 1214 q 644 1028 600 1113 z "},"Ả":{"ha":964,"x_min":-42,"x_max":886,"o":"m 881 71 q 886 22 886 50 q 885 -4 886 6 q 708 0 835 0 q 522 -4 578 0 q 536 71 522 42 q 600 92 582 78 q 618 135 618 106 q 611 182 618 150 l 588 281 q 235 272 368 281 l 193 203 q 160 119 160 149 q 174 89 160 100 q 219 71 188 78 q 224 28 224 50 q 221 -4 224 18 q 79 0 182 0 q -42 -4 -4 0 q -28 71 -42 38 q 38 111 10 81 q 114 221 67 142 q 465 828 226 407 l 529 939 q 600 947 557 947 q 797 211 711 572 q 822 126 811 154 q 846 87 833 97 q 881 71 858 76 m 569 353 l 563 379 q 510 578 528 515 q 479 726 492 638 q 418 604 449 661 l 401 572 q 281 353 354 482 l 569 353 m 539 1014 q 532 1043 532 1028 q 547 1086 532 1072 q 590 1117 561 1100 q 622 1135 610 1126 q 638 1156 633 1143 q 640 1167 640 1164 q 631 1182 640 1176 q 608 1188 622 1188 q 529 1106 553 1188 q 454 1126 475 1111 q 466 1167 461 1147 q 471 1207 471 1186 q 625 1243 543 1243 q 716 1224 685 1243 q 747 1171 747 1204 q 728 1120 747 1139 q 672 1079 710 1101 q 634 1056 647 1067 q 617 1032 621 1046 q 615 1023 617 1029 q 614 1008 613 1017 q 588 1007 607 1007 q 539 1014 556 1007 z "},"Ȃ":{"ha":964,"x_min":-42,"x_max":886,"o":"m 881 71 q 886 22 886 50 q 885 -4 886 6 q 708 0 835 0 q 522 -4 578 0 q 536 71 522 42 q 600 92 582 78 q 618 135 618 106 q 611 182 618 150 l 588 281 q 235 272 368 281 l 193 203 q 160 119 160 149 q 174 89 160 100 q 219 71 188 78 q 224 28 224 50 q 221 -4 224 18 q 79 0 182 0 q -42 -4 -4 0 q -28 71 -42 38 q 38 111 10 81 q 114 221 67 142 q 465 828 226 407 l 529 939 q 600 947 557 947 q 797 211 711 572 q 822 126 811 154 q 846 87 833 97 q 881 71 858 76 m 569 353 l 563 379 q 510 578 528 515 q 479 726 492 638 q 418 604 449 661 l 401 572 q 281 353 354 482 l 569 353 m 633 1211 q 788 1172 735 1211 q 842 1060 842 1133 q 838 1015 842 1039 q 769 1001 803 1001 q 749 1003 756 1001 q 710 1077 750 1050 q 600 1104 671 1104 q 483 1077 531 1104 q 421 1003 435 1050 q 396 1001 413 1001 q 350 1010 367 1001 q 441 1159 368 1107 q 633 1211 514 1211 z "},"Ā":{"ha":964,"x_min":-42,"x_max":886,"o":"m 881 71 q 886 22 886 50 q 885 -4 886 6 q 708 0 835 0 q 522 -4 578 0 q 536 71 522 42 q 600 92 582 78 q 618 135 618 106 q 611 182 618 150 l 588 281 q 235 272 368 281 l 193 203 q 160 119 160 149 q 174 89 160 100 q 219 71 188 78 q 224 28 224 50 q 221 -4 224 18 q 79 0 182 0 q -42 -4 -4 0 q -28 71 -42 38 q 38 111 10 81 q 114 221 67 142 q 465 828 226 407 l 529 939 q 600 947 557 947 q 797 211 711 572 q 822 126 811 154 q 846 87 833 97 q 881 71 858 76 m 569 353 l 563 379 q 510 578 528 515 q 479 726 492 638 q 418 604 449 661 l 401 572 q 281 353 354 482 l 569 353 m 344 1061 q 347 1099 344 1078 q 357 1133 350 1121 l 846 1133 q 833 1067 846 1097 q 344 1061 546 1067 z "},"Ą":{"ha":964,"x_min":-42,"x_max":886,"o":"m 799 0 q 686 -74 722 -35 q 650 -150 650 -114 q 669 -195 650 -178 q 722 -212 688 -212 q 775 -203 750 -212 q 790 -269 793 -228 q 669 -343 721 -300 q 640 -346 658 -346 q 536 -315 579 -346 q 493 -222 493 -283 q 533 -105 493 -160 q 671 0 574 -50 q 522 -4 588 0 q 536 71 522 42 q 600 92 582 78 q 618 135 618 106 q 611 182 618 150 l 588 281 q 235 272 368 281 l 193 203 q 160 119 160 149 q 174 89 160 100 q 219 71 188 78 q 224 28 224 50 q 221 -4 224 18 q 79 0 182 0 q -42 -4 -4 0 q -28 71 -42 38 q 38 111 10 81 q 114 221 67 142 q 465 828 226 407 l 529 939 q 600 947 557 947 q 797 211 711 572 q 822 126 811 154 q 846 87 833 97 q 881 71 858 76 q 886 22 886 50 q 885 -4 886 6 l 799 0 m 569 353 l 563 379 q 510 578 528 515 q 479 726 492 638 q 418 604 449 661 l 401 572 q 281 353 354 482 l 569 353 z "},"Å":{"ha":964,"x_min":-42,"x_max":886,"o":"m 881 71 q 886 22 886 50 q 885 -4 886 6 q 708 0 835 0 q 522 -4 578 0 q 536 71 522 42 q 600 92 582 78 q 618 135 618 106 q 611 182 618 150 l 588 281 q 235 272 368 281 l 193 203 q 160 119 160 149 q 174 89 160 100 q 219 71 188 78 q 224 28 224 50 q 221 -4 224 18 q 79 0 182 0 q -42 -4 -4 0 q -28 71 -42 38 q 38 111 10 81 q 114 221 67 142 q 465 828 226 407 l 529 939 q 600 947 557 947 q 797 211 711 572 q 822 126 811 154 q 846 87 833 97 q 881 71 858 76 m 569 353 l 563 379 q 510 578 528 515 q 479 726 492 638 q 418 604 449 661 l 401 572 q 281 353 354 482 l 569 353 m 590 999 q 481 1027 519 999 q 442 1100 442 1056 q 486 1191 442 1158 q 608 1224 531 1224 q 719 1196 682 1224 q 756 1122 756 1168 q 711 1031 756 1064 q 590 999 667 999 m 594 1057 q 633 1069 617 1057 q 654 1106 649 1082 q 656 1121 657 1117 q 642 1156 656 1142 q 604 1169 629 1169 q 561 1154 578 1169 q 540 1114 544 1139 q 539 1101 539 1110 q 554 1069 539 1082 q 594 1057 569 1057 z "},"Ǻ":{"ha":964,"x_min":-42,"x_max":886,"o":"m 881 71 q 886 22 886 50 q 885 -4 886 6 q 708 0 835 0 q 522 -4 578 0 q 536 71 522 42 q 600 92 582 78 q 618 135 618 106 q 611 182 618 150 l 588 281 q 235 272 368 281 l 193 203 q 160 119 160 149 q 174 89 160 100 q 219 71 188 78 q 224 28 224 50 q 221 -4 224 18 q 79 0 182 0 q -42 -4 -4 0 q -28 71 -42 38 q 38 111 10 81 q 114 221 67 142 q 465 828 226 407 l 529 939 q 600 947 557 947 q 797 211 711 572 q 822 126 811 154 q 846 87 833 97 q 881 71 858 76 m 569 353 l 563 379 q 510 578 528 515 q 479 726 492 638 q 418 604 449 661 l 401 572 q 281 353 354 482 l 569 353 m 590 999 q 481 1027 519 999 q 442 1100 442 1056 q 486 1191 442 1158 q 608 1224 531 1224 q 719 1196 682 1224 q 756 1122 756 1168 q 711 1031 756 1064 q 590 999 667 999 m 594 1057 q 633 1069 617 1057 q 654 1106 649 1082 q 656 1121 657 1117 q 642 1156 656 1142 q 604 1169 629 1169 q 561 1154 578 1169 q 540 1114 544 1139 q 539 1101 539 1110 q 554 1069 539 1082 q 594 1057 569 1057 m 626 1299 q 549 1329 583 1303 q 616 1420 585 1371 q 663 1504 647 1469 q 722 1508 694 1508 q 836 1488 794 1508 q 626 1299 711 1382 z "},"Ã":{"ha":964,"x_min":-42,"x_max":886,"o":"m 881 71 q 886 22 886 50 q 885 -4 886 6 q 708 0 835 0 q 522 -4 578 0 q 536 71 522 42 q 600 92 582 78 q 618 135 618 106 q 611 182 618 150 l 588 281 q 235 272 368 281 l 193 203 q 160 119 160 149 q 174 89 160 100 q 219 71 188 78 q 224 28 224 50 q 221 -4 224 18 q 79 0 182 0 q -42 -4 -4 0 q -28 71 -42 38 q 38 111 10 81 q 114 221 67 142 q 465 828 226 407 l 529 939 q 600 947 557 947 q 797 211 711 572 q 822 126 811 154 q 846 87 833 97 q 881 71 858 76 m 569 353 l 563 379 q 510 578 528 515 q 479 726 492 638 q 418 604 449 661 l 401 572 q 281 353 354 482 l 569 353 m 664 1033 q 613 1041 635 1033 q 563 1063 590 1049 q 519 1082 535 1076 q 485 1088 504 1088 q 371 1036 432 1088 q 351 1113 347 1067 q 533 1194 435 1194 q 585 1187 563 1194 q 638 1165 607 1179 q 711 1142 682 1142 q 801 1189 751 1142 q 850 1144 838 1172 q 664 1033 767 1033 z "},"Æ":{"ha":1217,"x_min":-42,"x_max":1224,"o":"m 843 863 l 776 479 l 821 479 q 934 502 900 479 q 978 589 968 525 q 1033 594 1001 594 q 1064 593 1053 594 q 1033 432 1047 529 q 1017 272 1022 358 q 935 292 963 276 q 913 381 939 354 q 813 408 888 408 l 765 408 l 732 217 q 724 147 724 174 q 747 90 724 104 q 828 76 769 76 l 838 76 q 953 96 908 76 q 1026 153 997 115 q 1083 260 1054 192 q 1168 222 1138 251 q 1099 -4 1121 118 q 799 0 1017 0 q 426 -4 529 0 q 442 72 429 36 q 505 92 485 78 q 535 133 525 106 q 556 222 544 161 l 589 408 q 371 401 438 406 l 328 343 q 217 188 311 317 q 178 108 178 135 q 219 71 178 82 q 224 28 224 50 q 221 -4 224 18 q 79 0 182 0 q -42 -4 -4 0 q -28 71 -42 38 q 44 108 13 82 q 129 201 76 133 q 525 736 267 379 q 557 811 557 781 q 478 868 557 860 q 474 907 474 888 q 476 943 474 921 q 726 939 594 939 l 729 939 l 850 939 l 853 939 q 1224 943 1103 939 q 1211 771 1211 849 q 1214 708 1211 747 q 1122 696 1176 696 q 1107 794 1119 760 q 1055 845 1094 828 q 935 863 1015 863 l 843 863 m 601 479 l 638 686 q 672 842 650 763 q 428 479 596 715 l 601 479 z "},"Ǽ":{"ha":1217,"x_min":-42,"x_max":1224,"o":"m 843 863 l 776 479 l 821 479 q 934 502 900 479 q 978 589 968 525 q 1033 594 1001 594 q 1064 593 1053 594 q 1033 432 1047 529 q 1017 272 1022 358 q 935 292 963 276 q 913 381 939 354 q 813 408 888 408 l 765 408 l 732 217 q 724 147 724 174 q 747 90 724 104 q 828 76 769 76 l 838 76 q 953 96 908 76 q 1026 153 997 115 q 1083 260 1054 192 q 1168 222 1138 251 q 1099 -4 1121 118 q 799 0 1017 0 q 426 -4 529 0 q 442 72 429 36 q 505 92 485 78 q 535 133 525 106 q 556 222 544 161 l 589 408 q 371 401 438 406 l 328 343 q 217 188 311 317 q 178 108 178 135 q 219 71 178 82 q 224 28 224 50 q 221 -4 224 18 q 79 0 182 0 q -42 -4 -4 0 q -28 71 -42 38 q 44 108 13 82 q 129 201 76 133 q 525 736 267 379 q 557 811 557 781 q 478 868 557 860 q 474 907 474 888 q 476 943 474 921 q 726 939 594 939 l 729 939 l 850 939 l 853 939 q 1224 943 1103 939 q 1211 771 1211 849 q 1214 708 1211 747 q 1122 696 1176 696 q 1107 794 1119 760 q 1055 845 1094 828 q 935 863 1015 863 l 843 863 m 601 479 l 638 686 q 672 842 650 763 q 428 479 596 715 l 601 479 m 825 1014 q 747 1044 782 1018 q 815 1135 783 1086 q 861 1219 846 1185 q 921 1224 893 1224 q 1035 1203 993 1224 q 825 1014 910 1097 z "},"B":{"ha":885,"x_min":28,"x_max":854,"o":"m 849 707 q 769 577 835 631 q 607 510 704 524 q 780 453 722 504 q 838 308 838 401 q 831 238 838 279 q 707 63 810 126 q 429 0 604 0 q 28 -4 143 0 q 44 71 29 33 q 106 90 86 78 q 137 130 126 101 q 158 222 147 158 l 249 746 q 254 800 254 774 q 236 849 254 835 q 171 868 218 863 q 167 907 167 888 q 169 943 167 918 q 322 939 226 939 l 429 940 q 557 943 513 943 q 781 899 708 943 q 854 763 854 856 q 849 707 854 733 m 663 704 q 667 744 667 725 q 626 837 667 806 q 515 868 586 868 q 446 856 483 868 l 389 528 l 431 528 q 587 574 526 528 q 663 704 647 621 m 632 246 q 639 307 639 283 q 585 416 639 383 q 411 449 531 449 l 375 449 l 332 200 q 325 139 325 158 q 346 85 325 97 q 421 72 367 72 q 559 120 500 72 q 632 246 618 168 z "},"C":{"ha":872,"x_min":74,"x_max":922,"o":"m 922 872 q 876 661 893 792 q 822 651 856 651 q 783 656 803 651 q 788 721 788 692 q 749 844 788 810 q 633 878 710 878 q 456 823 533 878 q 332 676 379 768 q 271 471 285 583 q 265 388 265 433 q 330 169 265 251 q 525 88 394 88 q 781 158 654 88 q 806 92 803 133 q 475 -12 657 -12 q 262 35 353 -12 q 122 172 171 83 q 74 383 74 261 q 81 474 74 421 q 185 737 103 629 q 383 898 267 844 q 625 951 500 951 q 783 933 711 951 q 922 872 854 914 z "},"Ć":{"ha":872,"x_min":74,"x_max":922,"o":"m 922 872 q 876 661 893 792 q 822 651 856 651 q 783 656 803 651 q 788 721 788 692 q 749 844 788 810 q 633 878 710 878 q 456 823 533 878 q 332 676 379 768 q 271 471 285 583 q 265 388 265 433 q 330 169 265 251 q 525 88 394 88 q 781 158 654 88 q 806 92 803 133 q 475 -12 657 -12 q 262 35 353 -12 q 122 172 171 83 q 74 383 74 261 q 81 474 74 421 q 185 737 103 629 q 383 898 267 844 q 625 951 500 951 q 783 933 711 951 q 922 872 854 914 m 636 1014 q 558 1044 593 1018 q 626 1135 594 1086 q 672 1219 657 1185 q 732 1224 704 1224 q 846 1203 804 1224 q 636 1014 721 1097 z "},"Č":{"ha":872,"x_min":74,"x_max":922,"o":"m 922 872 q 876 661 893 792 q 822 651 856 651 q 783 656 803 651 q 788 721 788 692 q 749 844 788 810 q 633 878 710 878 q 456 823 533 878 q 332 676 379 768 q 271 471 285 583 q 265 388 265 433 q 330 169 265 251 q 525 88 394 88 q 781 158 654 88 q 806 92 803 133 q 475 -12 657 -12 q 262 35 353 -12 q 122 172 171 83 q 74 383 74 261 q 81 474 74 421 q 185 737 103 629 q 383 898 267 844 q 625 951 500 951 q 783 933 711 951 q 922 872 854 914 m 604 1015 q 428 1181 529 1103 q 447 1217 435 1204 q 483 1233 460 1231 q 664 1143 579 1178 q 854 1231 757 1174 q 884 1211 871 1225 q 906 1179 897 1197 q 675 1025 771 1100 q 622 1014 649 1014 q 604 1015 610 1014 z "},"Ç":{"ha":872,"x_min":74,"x_max":922,"o":"m 625 951 q 783 933 711 951 q 922 872 854 914 q 876 661 893 792 q 822 651 856 651 q 783 656 803 651 q 788 721 788 692 q 749 844 788 810 q 633 878 710 878 q 456 823 533 878 q 332 676 379 768 q 271 471 285 583 q 265 388 265 433 q 330 169 265 251 q 525 88 394 88 q 781 158 654 88 q 806 92 803 133 q 500 -12 664 -7 l 449 -72 q 513 -110 490 -83 q 535 -178 535 -136 q 531 -215 535 -194 q 458 -307 518 -275 q 306 -336 399 -339 q 301 -310 301 -326 q 304 -283 301 -300 q 396 -264 363 -283 q 429 -204 429 -244 q 408 -160 429 -176 q 353 -144 388 -144 q 339 -104 339 -126 q 340 -87 339 -93 l 410 -8 q 161 115 249 10 q 74 382 74 219 q 81 474 74 421 q 185 737 103 629 q 383 898 267 844 q 625 951 500 951 z "},"Ḉ":{"ha":872,"x_min":74,"x_max":922,"o":"m 846 1203 q 636 1014 721 1097 q 558 1044 593 1018 q 626 1135 594 1086 q 672 1219 657 1185 q 732 1224 703 1224 q 846 1203 804 1224 m 625 951 q 783 933 711 951 q 922 872 854 914 q 876 661 893 792 q 822 651 856 651 q 783 656 803 651 q 788 721 788 692 q 749 844 788 810 q 633 878 710 878 q 456 823 533 878 q 332 676 379 768 q 271 471 285 583 q 265 388 265 433 q 330 169 265 251 q 525 88 394 88 q 781 158 654 88 q 806 92 803 133 q 500 -12 664 -7 l 449 -72 q 513 -110 490 -83 q 535 -178 535 -136 q 531 -215 535 -194 q 458 -307 518 -275 q 306 -336 399 -339 q 301 -310 301 -326 q 304 -283 301 -300 q 396 -264 363 -283 q 429 -204 429 -244 q 408 -160 429 -176 q 353 -144 388 -144 q 339 -104 339 -126 q 340 -87 339 -93 l 410 -8 q 161 115 249 10 q 74 382 74 219 q 81 474 74 421 q 185 737 103 629 q 383 898 267 844 q 625 951 500 951 z "},"Ĉ":{"ha":872,"x_min":74,"x_max":922,"o":"m 922 872 q 876 661 893 792 q 822 651 856 651 q 783 656 803 651 q 788 721 788 692 q 749 844 788 810 q 633 878 710 878 q 456 823 533 878 q 332 676 379 768 q 271 471 285 583 q 265 388 265 433 q 330 169 265 251 q 525 88 394 88 q 781 158 654 88 q 806 92 803 133 q 475 -12 657 -12 q 262 35 353 -12 q 122 172 171 83 q 74 383 74 261 q 81 474 74 421 q 185 737 103 629 q 383 898 267 844 q 625 951 500 951 q 783 933 711 951 q 922 872 854 914 m 474 1008 q 447 1039 457 1018 q 436 1078 436 1060 q 660 1225 531 1126 q 683 1226 668 1226 q 735 1218 710 1226 q 860 1088 776 1168 l 897 1050 q 871 1028 889 1036 q 832 1017 853 1019 q 663 1103 742 1074 q 564 1057 617 1085 q 499 1022 511 1029 l 474 1008 z "},"Ċ":{"ha":872,"x_min":74,"x_max":922,"o":"m 922 872 q 876 661 893 792 q 822 651 856 651 q 783 656 803 651 q 788 721 788 692 q 749 844 788 810 q 633 878 710 878 q 456 823 533 878 q 332 676 379 768 q 271 471 285 583 q 265 388 265 433 q 330 169 265 251 q 525 88 394 88 q 781 158 654 88 q 806 92 803 133 q 475 -12 657 -12 q 262 35 353 -12 q 122 172 171 83 q 74 383 74 261 q 81 474 74 421 q 185 737 103 629 q 383 898 267 844 q 625 951 500 951 q 783 933 711 951 q 922 872 854 914 m 644 999 q 583 1020 606 999 q 561 1078 561 1042 q 593 1152 561 1125 q 675 1179 625 1179 q 737 1158 714 1179 q 760 1101 760 1138 q 729 1026 760 1053 q 644 999 699 999 z "},"D":{"ha":1019,"x_min":28,"x_max":1010,"o":"m 557 943 q 1010 583 1010 943 q 997 453 1010 524 q 788 106 954 213 q 401 0 622 0 l 397 0 q 28 -4 125 0 q 44 71 31 38 q 106 89 86 76 q 136 130 125 101 q 158 222 147 158 l 250 746 q 256 797 256 774 q 237 848 256 833 q 171 868 218 863 q 167 910 167 889 q 169 943 167 924 q 389 939 258 939 l 469 940 q 557 943 528 943 m 811 457 q 825 589 825 526 q 746 803 825 739 q 535 868 667 868 q 444 856 490 868 l 333 207 q 326 140 326 161 q 347 89 326 101 q 426 76 368 76 q 670 164 568 76 q 811 457 772 251 z "},"Ǳ":{"ha":1783,"x_min":28,"x_max":1836,"o":"m 557 943 q 1010 583 1010 943 q 997 453 1010 524 q 788 106 954 213 q 401 0 622 0 l 397 0 q 28 -4 125 0 q 44 71 31 38 q 106 89 86 76 q 136 130 125 101 q 158 222 147 158 l 250 746 q 256 797 256 774 q 237 848 256 833 q 171 868 218 863 q 167 910 167 889 q 169 943 167 924 q 389 939 258 939 l 469 940 q 557 943 528 943 m 811 457 q 825 589 825 526 q 746 803 825 739 q 535 868 667 868 q 444 856 490 868 l 333 207 q 326 140 326 161 q 347 89 326 101 q 426 76 368 76 q 670 164 568 76 q 811 457 772 251 m 1815 943 q 1835 869 1836 915 q 1232 76 1519 433 l 1382 76 q 1509 91 1464 76 q 1585 144 1554 106 q 1650 261 1617 182 q 1743 219 1706 251 q 1703 108 1722 169 q 1676 -4 1685 47 q 1319 0 1551 0 q 1010 -4 1111 0 q 993 71 992 26 q 1601 864 1328 481 l 1456 864 q 1360 849 1397 864 q 1292 793 1322 833 q 1232 675 1263 753 q 1136 707 1172 679 q 1175 819 1157 753 q 1203 943 1193 885 q 1525 939 1303 939 q 1815 943 1713 939 z "},"Ǆ":{"ha":1783,"x_min":28,"x_max":1836,"o":"m 557 943 q 1010 583 1010 943 q 997 453 1010 524 q 788 106 954 213 q 401 0 622 0 l 397 0 q 28 -4 125 0 q 44 71 31 38 q 106 89 86 76 q 136 130 125 101 q 158 222 147 158 l 250 746 q 256 797 256 774 q 237 848 256 833 q 171 868 218 863 q 167 910 167 889 q 169 943 167 924 q 389 939 258 939 l 469 940 q 557 943 528 943 m 811 457 q 825 589 825 526 q 746 803 825 739 q 535 868 667 868 q 444 856 490 868 l 333 207 q 326 140 326 161 q 347 89 326 101 q 426 76 368 76 q 670 164 568 76 q 811 457 772 251 m 1815 943 q 1835 869 1836 915 q 1232 76 1519 433 l 1382 76 q 1509 91 1464 76 q 1585 144 1554 106 q 1650 261 1617 182 q 1743 219 1706 251 q 1703 108 1722 169 q 1676 -4 1685 47 q 1319 0 1551 0 q 1010 -4 1111 0 q 993 71 992 26 q 1601 864 1328 481 l 1456 864 q 1360 849 1397 864 q 1292 793 1322 833 q 1232 675 1263 753 q 1136 707 1172 679 q 1175 819 1157 753 q 1203 943 1193 885 q 1525 939 1303 939 q 1815 943 1713 939 m 1475 1015 q 1299 1181 1400 1103 q 1318 1217 1306 1204 q 1354 1233 1331 1231 q 1535 1143 1450 1178 q 1725 1231 1628 1174 q 1755 1211 1742 1225 q 1776 1179 1768 1197 q 1546 1025 1642 1100 q 1493 1014 1519 1014 q 1475 1015 1481 1014 z "},"Ð":{"ha":1019,"x_min":28,"x_max":1010,"o":"m 557 943 q 1010 583 1010 943 q 997 453 1010 524 q 788 106 954 213 q 401 0 622 0 l 397 0 q 28 -4 125 0 q 44 71 31 38 q 106 90 86 76 q 136 131 125 103 q 158 222 147 160 l 194 432 l 93 431 q 97 478 93 453 q 108 518 101 504 l 210 518 l 250 746 q 256 799 256 774 q 237 847 256 832 q 171 868 218 863 q 167 910 167 889 q 169 943 167 924 q 389 939 258 939 l 469 940 q 557 943 528 943 m 811 457 q 825 589 825 526 q 746 803 825 739 q 535 868 667 868 q 444 856 490 868 l 386 518 l 567 518 q 553 432 567 461 q 372 433 490 433 l 333 207 q 326 140 326 161 q 347 89 326 101 q 426 76 368 76 q 670 164 568 76 q 811 457 772 251 z "},"Ď":{"ha":1019,"x_min":28,"x_max":1010,"o":"m 557 943 q 1010 583 1010 943 q 997 453 1010 524 q 788 106 954 213 q 401 0 622 0 l 397 0 q 28 -4 125 0 q 44 71 31 38 q 106 89 86 76 q 136 130 125 101 q 158 222 147 158 l 250 746 q 256 797 256 774 q 237 848 256 833 q 171 868 218 863 q 167 910 167 889 q 169 943 167 924 q 389 939 258 939 l 469 940 q 557 943 528 943 m 811 457 q 825 589 825 526 q 746 803 825 739 q 535 868 667 868 q 444 856 490 868 l 333 207 q 326 140 326 161 q 347 89 326 101 q 426 76 368 76 q 670 164 568 76 q 811 457 772 251 m 546 1015 q 369 1181 471 1103 q 389 1217 376 1204 q 425 1233 401 1231 q 606 1143 521 1178 q 796 1231 699 1174 q 826 1211 813 1225 q 847 1179 839 1197 q 617 1025 713 1100 q 564 1014 590 1014 q 546 1015 551 1014 z "},"Ḑ":{"ha":1019,"x_min":28,"x_max":1010,"o":"m 557 943 q 1010 583 1010 943 q 997 453 1010 524 q 788 106 954 213 q 401 0 622 0 l 397 0 q 28 -4 125 0 q 44 71 31 38 q 106 89 86 76 q 136 130 125 101 q 158 222 147 158 l 250 746 q 256 797 256 774 q 237 848 256 833 q 171 868 218 863 q 167 910 167 889 q 169 943 167 924 q 389 939 258 939 l 469 940 q 557 943 528 943 m 811 457 q 825 589 825 526 q 746 803 825 739 q 535 868 667 868 q 444 856 490 868 l 333 207 q 326 140 326 161 q 347 89 326 101 q 426 76 368 76 q 670 164 568 76 q 811 457 772 251 m 326 -406 q 279 -367 292 -396 q 341 -303 318 -336 q 364 -243 364 -269 q 308 -199 364 -207 q 338 -99 306 -143 q 476 -57 421 -90 q 521 -128 521 -74 q 518 -157 521 -137 q 326 -406 494 -296 z "},"Đ":{"ha":1019,"x_min":28,"x_max":1010,"o":"m 557 943 q 1010 583 1010 943 q 997 453 1010 524 q 788 106 954 213 q 401 0 622 0 l 397 0 q 28 -4 125 0 q 44 71 31 38 q 106 90 86 76 q 136 131 125 103 q 158 222 147 160 l 194 432 l 93 431 q 97 478 93 453 q 108 518 101 504 l 210 518 l 250 746 q 256 799 256 774 q 237 847 256 832 q 171 868 218 863 q 167 910 167 889 q 169 943 167 924 q 389 939 258 939 l 469 940 q 557 943 528 943 m 811 457 q 825 589 825 526 q 746 803 825 739 q 535 868 667 868 q 444 856 490 868 l 386 518 l 567 518 q 553 432 567 461 q 372 433 490 433 l 333 207 q 326 140 326 161 q 347 89 326 101 q 426 76 368 76 q 670 164 568 76 q 811 457 772 251 z "},"Ḍ":{"ha":1019,"x_min":28,"x_max":1010,"o":"m 557 943 q 1010 583 1010 943 q 997 453 1010 524 q 788 106 954 213 q 401 0 622 0 l 397 0 q 28 -4 125 0 q 44 71 31 38 q 106 89 86 76 q 136 130 125 101 q 158 222 147 158 l 250 746 q 256 797 256 774 q 237 848 256 833 q 171 868 218 863 q 167 910 167 889 q 169 943 167 924 q 389 939 258 939 l 469 940 q 557 943 528 943 m 811 457 q 825 589 825 526 q 746 803 825 739 q 535 868 667 868 q 444 856 490 868 l 333 207 q 326 140 326 161 q 347 89 326 101 q 426 76 368 76 q 670 164 568 76 q 811 457 772 251 m 393 -311 q 328 -290 351 -311 q 306 -233 306 -269 q 307 -214 306 -221 q 345 -144 315 -169 q 418 -118 375 -118 q 481 -138 457 -118 q 506 -196 506 -158 q 474 -279 506 -247 q 393 -311 443 -311 z "},"Ḏ":{"ha":1019,"x_min":28,"x_max":1010,"o":"m 557 943 q 1010 583 1010 943 q 997 453 1010 524 q 788 106 954 213 q 401 0 622 0 l 397 0 q 28 -4 125 0 q 44 71 31 38 q 106 89 86 76 q 136 130 125 101 q 158 222 147 158 l 250 746 q 256 797 256 774 q 237 848 256 833 q 171 868 218 863 q 167 910 167 889 q 169 943 167 924 q 389 939 258 939 l 469 940 q 557 943 528 943 m 811 457 q 825 589 825 526 q 746 803 825 739 q 535 868 667 868 q 444 856 490 868 l 333 207 q 326 140 326 161 q 347 89 326 101 q 426 76 368 76 q 670 164 568 76 q 811 457 772 251 m 156 -246 q 158 -208 156 -229 q 168 -174 161 -186 l 657 -174 q 644 -240 657 -210 q 156 -246 357 -240 z "},"ǲ":{"ha":1600,"x_min":28,"x_max":1588,"o":"m 557 943 q 1010 583 1010 943 q 997 453 1010 524 q 788 106 954 213 q 401 0 622 0 l 397 0 q 28 -4 125 0 q 44 71 31 38 q 106 89 86 76 q 136 130 125 101 q 158 222 147 158 l 250 746 q 256 797 256 774 q 237 848 256 833 q 171 868 218 863 q 167 910 167 889 q 169 943 167 924 q 389 939 258 939 l 469 940 q 557 943 528 943 m 811 457 q 825 589 825 526 q 746 803 825 739 q 535 868 667 868 q 444 856 490 868 l 333 207 q 326 140 326 161 q 347 89 326 101 q 426 76 368 76 q 670 164 568 76 q 811 457 772 251 m 1467 217 q 1550 197 1515 219 q 1524 113 1535 161 q 1510 21 1513 65 q 1473 -5 1500 3 q 1386 -12 1446 -12 q 1261 -6 1326 -12 q 1149 0 1186 0 q 1025 -12 1086 0 q 1007 47 1007 15 q 1008 63 1007 57 q 1429 490 1285 293 q 1325 499 1379 499 q 1228 481 1258 499 q 1168 411 1199 464 q 1123 419 1144 411 q 1089 440 1101 426 q 1156 636 1139 531 q 1363 643 1249 643 q 1564 636 1471 643 q 1588 569 1585 606 q 1419 347 1517 461 q 1211 133 1322 233 q 1285 146 1247 146 l 1325 144 q 1367 142 1353 142 q 1426 157 1407 142 q 1467 217 1444 172 z "},"ǅ":{"ha":1600,"x_min":28,"x_max":1664,"o":"m 557 943 q 1010 583 1010 943 q 997 453 1010 524 q 788 106 954 213 q 401 0 622 0 l 397 0 q 28 -4 125 0 q 44 71 31 38 q 106 89 86 76 q 136 130 125 101 q 158 222 147 158 l 250 746 q 256 797 256 774 q 237 848 256 833 q 171 868 218 863 q 167 910 167 889 q 169 943 167 924 q 389 939 258 939 l 469 940 q 557 943 528 943 m 811 457 q 825 589 825 526 q 746 803 825 739 q 535 868 667 868 q 444 856 490 868 l 333 207 q 326 140 326 161 q 347 89 326 101 q 426 76 368 76 q 670 164 568 76 q 811 457 772 251 m 1467 217 q 1550 197 1515 219 q 1524 113 1535 161 q 1510 21 1513 65 q 1473 -5 1500 3 q 1386 -12 1446 -12 q 1261 -6 1326 -12 q 1149 0 1186 0 q 1025 -12 1086 0 q 1007 47 1007 15 q 1008 63 1007 57 q 1429 490 1285 293 q 1325 499 1379 499 q 1228 481 1258 499 q 1168 411 1199 464 q 1123 419 1144 411 q 1089 440 1101 426 q 1156 636 1139 531 q 1363 643 1249 643 q 1564 636 1471 643 q 1588 569 1585 606 q 1419 347 1517 461 q 1211 133 1322 233 q 1285 146 1247 146 l 1325 144 q 1367 142 1353 142 q 1426 157 1407 142 q 1467 217 1444 172 m 1354 718 q 1186 931 1271 843 q 1244 982 1201 975 q 1421 861 1338 907 q 1615 974 1529 910 q 1644 956 1632 969 q 1664 926 1657 943 q 1425 726 1521 825 q 1375 717 1404 717 q 1354 718 1361 717 z "},"E":{"ha":835,"x_min":32,"x_max":842,"o":"m 446 863 l 386 514 l 443 514 q 556 535 524 514 q 599 621 589 557 q 650 626 635 626 q 685 624 660 626 q 654 461 664 538 q 639 304 643 385 q 557 324 585 308 q 535 412 560 386 q 435 438 510 438 l 374 438 l 336 217 q 328 147 328 174 q 351 90 328 104 q 432 76 374 76 l 456 76 q 571 96 526 76 q 644 153 615 115 q 701 260 672 192 q 786 222 756 251 q 717 -4 739 118 q 403 0 635 0 q 32 -4 133 0 q 47 72 32 36 q 108 90 88 78 q 138 131 128 103 q 160 222 149 160 l 249 732 q 256 792 256 771 q 237 844 256 828 q 169 868 218 861 q 167 907 167 893 q 169 943 167 918 q 456 939 269 939 l 458 939 q 842 943 721 939 q 831 765 831 835 q 832 708 831 726 q 740 696 794 696 q 725 794 738 760 q 673 845 713 828 q 553 863 633 863 l 446 863 z "},"É":{"ha":835,"x_min":32,"x_max":842,"o":"m 446 863 l 386 514 l 443 514 q 556 535 524 514 q 599 621 589 557 q 650 626 635 626 q 685 624 660 626 q 654 461 664 538 q 639 304 643 385 q 557 324 585 308 q 535 412 560 386 q 435 438 510 438 l 374 438 l 336 217 q 328 147 328 174 q 351 90 328 104 q 432 76 374 76 l 456 76 q 571 96 526 76 q 644 153 615 115 q 701 260 672 192 q 786 222 756 251 q 717 -4 739 118 q 403 0 635 0 q 32 -4 133 0 q 47 72 32 36 q 108 90 88 78 q 138 131 128 103 q 160 222 149 160 l 249 732 q 256 792 256 771 q 237 844 256 828 q 169 868 218 861 q 167 907 167 893 q 169 943 167 918 q 456 939 269 939 l 458 939 q 842 943 721 939 q 831 765 831 835 q 832 708 831 726 q 740 696 794 696 q 725 794 738 760 q 673 845 713 828 q 553 863 633 863 l 446 863 m 522 1014 q 444 1044 479 1018 q 512 1135 481 1086 q 558 1219 543 1185 q 618 1224 590 1224 q 732 1203 690 1224 q 522 1014 607 1097 z "},"Ĕ":{"ha":835,"x_min":32,"x_max":842,"o":"m 446 863 l 386 514 l 443 514 q 556 535 524 514 q 599 621 589 557 q 650 626 635 626 q 685 624 660 626 q 654 461 664 538 q 639 304 643 385 q 557 324 585 308 q 535 412 560 386 q 435 438 510 438 l 374 438 l 336 217 q 328 147 328 174 q 351 90 328 104 q 432 76 374 76 l 456 76 q 571 96 526 76 q 644 153 615 115 q 701 260 672 192 q 786 222 756 251 q 717 -4 739 118 q 403 0 635 0 q 32 -4 133 0 q 47 72 32 36 q 108 90 88 78 q 138 131 128 103 q 160 222 149 160 l 249 732 q 256 792 256 771 q 237 844 256 828 q 169 868 218 861 q 167 907 167 893 q 169 943 167 918 q 456 939 269 939 l 458 939 q 842 943 721 939 q 831 765 831 835 q 832 708 831 726 q 740 696 794 696 q 725 794 738 760 q 673 845 713 828 q 553 863 633 863 l 446 863 m 514 1010 q 359 1049 413 1010 q 306 1161 306 1088 q 310 1206 306 1183 q 399 1218 353 1222 q 437 1142 397 1169 q 547 1115 476 1115 q 665 1142 617 1115 q 726 1218 713 1169 q 749 1219 733 1219 q 797 1210 775 1219 q 706 1061 779 1113 q 514 1010 633 1010 z "},"Ě":{"ha":835,"x_min":32,"x_max":842,"o":"m 446 863 l 386 514 l 443 514 q 556 535 524 514 q 599 621 589 557 q 650 626 635 626 q 685 624 660 626 q 654 461 664 538 q 639 304 643 385 q 557 324 585 308 q 535 412 560 386 q 435 438 510 438 l 374 438 l 336 217 q 328 147 328 174 q 351 90 328 104 q 432 76 374 76 l 456 76 q 571 96 526 76 q 644 153 615 115 q 701 260 672 192 q 786 222 756 251 q 717 -4 739 118 q 403 0 635 0 q 32 -4 133 0 q 47 72 32 36 q 108 90 88 78 q 138 131 128 103 q 160 222 149 160 l 249 732 q 256 792 256 771 q 237 844 256 828 q 169 868 218 861 q 167 907 167 893 q 169 943 167 918 q 456 939 269 939 l 458 939 q 842 943 721 939 q 831 765 831 835 q 832 708 831 726 q 740 696 794 696 q 725 794 738 760 q 673 845 713 828 q 553 863 633 863 l 446 863 m 489 1015 q 313 1181 414 1103 q 332 1217 319 1204 q 368 1233 344 1231 q 549 1143 464 1178 q 739 1231 642 1174 q 769 1211 756 1225 q 790 1179 782 1197 q 560 1025 656 1100 q 507 1014 533 1014 q 489 1015 494 1014 z "},"Ȩ":{"ha":835,"x_min":32,"x_max":842,"o":"m 446 863 l 386 514 l 443 514 q 556 535 524 514 q 599 621 589 557 q 650 626 635 626 q 685 624 660 626 q 654 461 664 538 q 639 304 643 385 q 557 324 585 308 q 535 412 560 386 q 435 438 510 438 l 374 438 l 336 217 q 328 147 328 174 q 351 90 328 104 q 432 76 374 76 l 456 76 q 571 96 526 76 q 644 153 615 115 q 701 260 672 192 q 786 222 756 251 q 717 -4 739 118 q 443 0 644 0 l 381 -72 q 444 -110 422 -83 q 467 -178 467 -136 q 463 -215 467 -194 q 390 -307 450 -275 q 238 -336 331 -339 q 233 -312 233 -326 q 238 -283 233 -296 q 328 -263 294 -283 q 361 -203 361 -243 q 341 -160 361 -175 q 286 -144 321 -144 q 271 -103 271 -126 q 272 -87 271 -93 l 350 0 q 32 -4 119 0 q 47 72 32 36 q 108 90 88 78 q 138 131 128 103 q 160 222 149 160 l 249 732 q 256 792 256 771 q 237 844 256 828 q 169 868 218 861 q 167 907 167 893 q 169 943 167 918 q 456 939 269 939 l 458 939 q 842 943 721 939 q 831 765 831 835 q 832 708 831 726 q 740 696 794 696 q 725 794 738 760 q 673 845 713 828 q 553 863 633 863 l 446 863 z "},"Ḝ":{"ha":835,"x_min":32,"x_max":842,"o":"m 513 1010 q 358 1049 411 1010 q 304 1161 304 1088 q 308 1206 304 1183 q 397 1218 354 1222 q 435 1142 396 1169 q 546 1115 475 1115 q 663 1142 615 1115 q 725 1218 711 1169 q 747 1219 732 1219 q 796 1210 776 1219 q 705 1061 778 1113 q 513 1010 632 1010 m 446 863 l 386 514 l 443 514 q 556 535 524 514 q 599 621 589 557 q 650 626 635 626 q 685 624 660 626 q 654 461 664 538 q 639 304 643 385 q 557 324 585 308 q 535 412 560 386 q 435 438 510 438 l 374 438 l 336 217 q 328 147 328 174 q 351 90 328 104 q 432 76 374 76 l 456 76 q 571 96 526 76 q 644 153 615 115 q 701 260 672 192 q 786 222 756 251 q 717 -4 739 118 q 443 0 644 0 l 381 -72 q 444 -110 422 -83 q 467 -178 467 -136 q 463 -215 467 -194 q 390 -307 450 -275 q 238 -336 331 -339 q 233 -312 233 -326 q 238 -283 233 -296 q 328 -263 294 -283 q 361 -203 361 -243 q 341 -160 361 -175 q 286 -144 321 -144 q 271 -103 271 -126 q 272 -87 271 -93 l 350 0 q 32 -4 119 0 q 47 72 32 36 q 108 90 88 78 q 138 131 128 103 q 160 222 149 160 l 249 732 q 256 792 256 771 q 237 844 256 828 q 169 868 218 861 q 167 907 167 893 q 169 943 167 918 q 456 939 269 939 l 458 939 q 842 943 721 939 q 831 765 831 835 q 832 708 831 726 q 740 696 794 696 q 725 794 738 760 q 673 845 713 828 q 553 863 633 863 l 446 863 z "},"Ê":{"ha":835,"x_min":32,"x_max":842,"o":"m 446 863 l 386 514 l 443 514 q 556 535 524 514 q 599 621 589 557 q 650 626 635 626 q 685 624 660 626 q 654 461 664 538 q 639 304 643 385 q 557 324 585 308 q 535 412 560 386 q 435 438 510 438 l 374 438 l 336 217 q 328 147 328 174 q 351 90 328 104 q 432 76 374 76 l 456 76 q 571 96 526 76 q 644 153 615 115 q 701 260 672 192 q 786 222 756 251 q 717 -4 739 118 q 403 0 635 0 q 32 -4 133 0 q 47 72 32 36 q 108 90 88 78 q 138 131 128 103 q 160 222 149 160 l 249 732 q 256 792 256 771 q 237 844 256 828 q 169 868 218 861 q 167 907 167 893 q 169 943 167 918 q 456 939 269 939 l 458 939 q 842 943 721 939 q 831 765 831 835 q 832 708 831 726 q 740 696 794 696 q 725 794 738 760 q 673 845 713 828 q 553 863 633 863 l 446 863 m 358 1008 q 331 1039 342 1018 q 321 1078 321 1060 q 544 1225 415 1126 q 568 1226 553 1226 q 619 1218 594 1226 q 744 1088 661 1168 l 782 1050 q 756 1028 774 1036 q 717 1017 738 1019 q 547 1103 626 1074 q 449 1057 501 1085 q 383 1022 396 1029 l 358 1008 z "},"Ế":{"ha":835,"x_min":32,"x_max":958,"o":"m 446 863 l 386 514 l 443 514 q 556 535 524 514 q 599 621 589 557 q 650 626 635 626 q 685 624 660 626 q 654 461 664 538 q 639 304 643 385 q 557 324 585 308 q 535 412 560 386 q 435 438 510 438 l 374 438 l 336 217 q 328 147 328 174 q 351 90 328 104 q 432 76 374 76 l 456 76 q 571 96 526 76 q 644 153 615 115 q 701 260 672 192 q 786 222 756 251 q 717 -4 739 118 q 403 0 635 0 q 32 -4 133 0 q 47 72 32 36 q 108 90 88 78 q 138 131 128 103 q 160 222 149 160 l 249 732 q 256 792 256 771 q 237 844 256 828 q 169 868 218 861 q 167 907 167 893 q 169 943 167 918 q 456 939 269 939 l 458 939 q 842 943 721 939 q 831 765 831 835 q 832 708 831 726 q 740 696 794 696 q 725 794 738 760 q 673 845 713 828 q 553 863 633 863 l 446 863 m 769 1188 q 700 1215 729 1192 q 761 1298 733 1254 q 801 1372 789 1342 q 857 1376 831 1376 q 958 1358 918 1376 q 769 1188 865 1281 m 357 1008 q 330 1039 340 1018 q 319 1078 319 1060 q 544 1225 414 1126 q 567 1226 551 1226 q 618 1218 593 1226 q 782 1050 664 1165 q 755 1028 772 1036 q 715 1017 738 1019 q 546 1103 622 1075 q 397 1029 490 1081 l 357 1008 z "},"Ệ":{"ha":835,"x_min":32,"x_max":842,"o":"m 446 863 l 386 514 l 443 514 q 556 535 524 514 q 599 621 589 557 q 650 626 635 626 q 685 624 660 626 q 654 461 664 538 q 639 304 643 385 q 557 324 585 308 q 535 412 560 386 q 435 438 510 438 l 374 438 l 336 217 q 328 147 328 174 q 351 90 328 104 q 432 76 374 76 l 456 76 q 571 96 526 76 q 644 153 615 115 q 701 260 672 192 q 786 222 756 251 q 717 -4 739 118 q 403 0 635 0 q 32 -4 133 0 q 47 72 32 36 q 108 90 88 78 q 138 131 128 103 q 160 222 149 160 l 249 732 q 256 792 256 771 q 237 844 256 828 q 169 868 218 861 q 167 907 167 893 q 169 943 167 918 q 456 939 269 939 l 458 939 q 842 943 721 939 q 831 765 831 835 q 832 708 831 726 q 740 696 794 696 q 725 794 738 760 q 673 845 713 828 q 553 863 633 863 l 446 863 m 332 -311 q 267 -290 290 -311 q 244 -233 244 -269 q 246 -214 244 -221 q 284 -144 254 -169 q 357 -118 314 -118 q 420 -138 396 -118 q 444 -196 444 -158 q 413 -279 444 -247 q 332 -311 382 -311 m 358 1008 q 331 1039 342 1018 q 321 1078 321 1060 q 544 1225 415 1126 q 568 1226 553 1226 q 619 1218 594 1226 q 744 1088 661 1168 l 782 1050 q 756 1028 774 1036 q 717 1017 738 1019 q 547 1103 626 1074 q 449 1057 501 1085 q 383 1022 396 1029 l 358 1008 z "},"Ề":{"ha":835,"x_min":32,"x_max":842,"o":"m 446 863 l 386 514 l 443 514 q 556 535 524 514 q 599 621 589 557 q 650 626 635 626 q 685 624 660 626 q 654 461 664 538 q 639 304 643 385 q 557 324 585 308 q 535 412 560 386 q 435 438 510 438 l 374 438 l 336 217 q 328 147 328 174 q 351 90 328 104 q 432 76 374 76 l 456 76 q 571 96 526 76 q 644 153 615 115 q 701 260 672 192 q 786 222 756 251 q 717 -4 739 118 q 403 0 635 0 q 32 -4 133 0 q 47 72 32 36 q 108 90 88 78 q 138 131 128 103 q 160 222 149 160 l 249 732 q 256 792 256 771 q 237 844 256 828 q 169 868 218 861 q 167 907 167 893 q 169 943 167 918 q 456 939 269 939 l 458 939 q 842 943 721 939 q 831 765 831 835 q 832 708 831 726 q 740 696 794 696 q 725 794 738 760 q 673 845 713 828 q 553 863 633 863 l 446 863 z "},"Ể":{"ha":835,"x_min":32,"x_max":922,"o":"m 446 863 l 386 514 l 443 514 q 556 535 524 514 q 599 621 589 557 q 650 626 635 626 q 685 624 660 626 q 654 461 664 538 q 639 304 643 385 q 557 324 585 308 q 535 412 560 386 q 435 438 510 438 l 374 438 l 336 217 q 328 147 328 174 q 351 90 328 104 q 432 76 374 76 l 456 76 q 571 96 526 76 q 644 153 615 115 q 701 260 672 192 q 786 222 756 251 q 717 -4 739 118 q 403 0 635 0 q 32 -4 133 0 q 47 72 32 36 q 108 90 88 78 q 138 131 128 103 q 160 222 149 160 l 249 732 q 256 792 256 771 q 237 844 256 828 q 169 868 218 861 q 167 907 167 893 q 169 943 167 918 q 456 939 269 939 l 458 939 q 842 943 721 939 q 831 765 831 835 q 832 708 831 726 q 740 696 794 696 q 725 794 738 760 q 673 845 713 828 q 553 863 633 863 l 446 863 z "},"Ễ":{"ha":835,"x_min":32,"x_max":856,"o":"m 446 863 l 386 514 l 443 514 q 556 535 524 514 q 599 621 589 557 q 650 626 635 626 q 685 624 660 626 q 654 461 664 538 q 639 304 643 385 q 557 324 585 308 q 535 412 560 386 q 435 438 510 438 l 374 438 l 336 217 q 328 147 328 174 q 351 90 328 104 q 432 76 374 76 l 456 76 q 571 96 526 76 q 644 153 615 115 q 701 260 672 192 q 786 222 756 251 q 717 -4 739 118 q 403 0 635 0 q 32 -4 133 0 q 47 72 32 36 q 108 90 88 78 q 138 131 128 103 q 160 222 149 160 l 249 732 q 256 792 256 771 q 237 844 256 828 q 169 868 218 861 q 167 907 167 893 q 169 943 167 918 q 456 939 269 939 l 458 939 q 842 943 721 939 q 831 765 831 835 q 832 708 831 726 q 740 696 794 696 q 725 794 738 760 q 673 845 713 828 q 553 863 633 863 l 446 863 m 358 1008 q 331 1039 342 1018 q 321 1078 321 1060 q 544 1225 415 1126 q 568 1226 553 1226 q 619 1218 594 1226 q 744 1088 661 1168 l 782 1050 q 756 1028 774 1036 q 717 1017 738 1019 q 547 1103 626 1074 q 449 1057 501 1085 q 383 1022 396 1029 l 358 1008 m 669 1294 q 618 1302 640 1294 q 568 1324 596 1310 q 525 1343 540 1338 q 490 1349 510 1349 q 376 1297 438 1349 q 357 1374 353 1328 q 539 1456 440 1456 q 590 1448 568 1456 q 643 1426 613 1440 q 717 1403 688 1403 q 807 1450 757 1403 q 856 1406 843 1433 q 669 1294 772 1294 z "},"Ȅ":{"ha":835,"x_min":32,"x_max":842,"o":"m 446 863 l 386 514 l 443 514 q 556 535 524 514 q 599 621 589 557 q 650 626 635 626 q 685 624 660 626 q 654 461 664 538 q 639 304 643 385 q 557 324 585 308 q 535 412 560 386 q 435 438 510 438 l 374 438 l 336 217 q 328 147 328 174 q 351 90 328 104 q 432 76 374 76 l 456 76 q 571 96 526 76 q 644 153 615 115 q 701 260 672 192 q 786 222 756 251 q 717 -4 739 118 q 403 0 635 0 q 32 -4 133 0 q 47 72 32 36 q 108 90 88 78 q 138 131 128 103 q 160 222 149 160 l 249 732 q 256 792 256 771 q 237 844 256 828 q 169 868 218 861 q 167 907 167 893 q 169 943 167 918 q 456 939 269 939 l 458 939 q 842 943 721 939 q 831 765 831 835 q 832 708 831 726 q 740 696 794 696 q 725 794 738 760 q 673 845 713 828 q 553 863 633 863 l 446 863 m 418 1007 q 293 1182 347 1114 q 379 1196 329 1196 q 440 1190 401 1196 q 497 1004 471 1068 q 469 1001 478 1001 q 418 1007 457 1001 m 649 1007 q 528 1183 582 1113 q 611 1196 563 1196 q 671 1190 632 1196 l 681 1156 q 728 1004 707 1056 q 700 1001 708 1001 q 649 1007 688 1001 z "},"Ë":{"ha":835,"x_min":32,"x_max":842,"o":"m 446 863 l 386 514 l 443 514 q 556 535 524 514 q 599 621 589 557 q 650 626 635 626 q 685 624 660 626 q 654 461 664 538 q 639 304 643 385 q 557 324 585 308 q 535 412 560 386 q 435 438 510 438 l 374 438 l 336 217 q 328 147 328 174 q 351 90 328 104 q 432 76 374 76 l 456 76 q 571 96 526 76 q 644 153 615 115 q 701 260 672 192 q 786 222 756 251 q 717 -4 739 118 q 403 0 635 0 q 32 -4 133 0 q 47 72 32 36 q 108 90 88 78 q 138 131 128 103 q 160 222 149 160 l 249 732 q 256 792 256 771 q 237 844 256 828 q 169 868 218 861 q 167 907 167 893 q 169 943 167 918 q 456 939 269 939 l 458 939 q 842 943 721 939 q 831 765 831 835 q 832 708 831 726 q 740 696 794 696 q 725 794 738 760 q 673 845 713 828 q 553 863 633 863 l 446 863 m 397 1011 q 336 1034 358 1011 q 314 1096 314 1057 q 338 1165 314 1140 q 406 1189 361 1189 q 467 1168 444 1189 q 490 1113 490 1147 q 488 1089 490 1106 q 457 1031 481 1051 q 397 1011 433 1011 m 688 1011 q 625 1033 647 1011 q 603 1093 603 1056 q 627 1165 603 1140 q 699 1189 651 1189 q 759 1167 738 1189 q 781 1110 781 1146 q 756 1037 781 1063 q 688 1011 732 1011 z "},"Ė":{"ha":835,"x_min":32,"x_max":842,"o":"m 446 863 l 386 514 l 443 514 q 556 535 524 514 q 599 621 589 557 q 650 626 635 626 q 685 624 660 626 q 654 461 664 538 q 639 304 643 385 q 557 324 585 308 q 535 412 560 386 q 435 438 510 438 l 374 438 l 336 217 q 328 147 328 174 q 351 90 328 104 q 432 76 374 76 l 456 76 q 571 96 526 76 q 644 153 615 115 q 701 260 672 192 q 786 222 756 251 q 717 -4 739 118 q 403 0 635 0 q 32 -4 133 0 q 47 72 32 36 q 108 90 88 78 q 138 131 128 103 q 160 222 149 160 l 249 732 q 256 792 256 771 q 237 844 256 828 q 169 868 218 861 q 167 907 167 893 q 169 943 167 918 q 456 939 269 939 l 458 939 q 842 943 721 939 q 831 765 831 835 q 832 708 831 726 q 740 696 794 696 q 725 794 738 760 q 673 845 713 828 q 553 863 633 863 l 446 863 m 529 999 q 468 1020 490 999 q 446 1078 446 1042 q 478 1152 446 1125 q 560 1179 510 1179 q 622 1158 599 1179 q 644 1101 644 1138 q 614 1026 644 1053 q 529 999 583 999 z "},"Ẹ":{"ha":835,"x_min":32,"x_max":842,"o":"m 446 863 l 386 514 l 443 514 q 556 535 524 514 q 599 621 589 557 q 650 626 635 626 q 685 624 660 626 q 654 461 664 538 q 639 304 643 385 q 557 324 585 308 q 535 412 560 386 q 435 438 510 438 l 374 438 l 336 217 q 328 147 328 174 q 351 90 328 104 q 432 76 374 76 l 456 76 q 571 96 526 76 q 644 153 615 115 q 701 260 672 192 q 786 222 756 251 q 717 -4 739 118 q 403 0 635 0 q 32 -4 133 0 q 47 72 32 36 q 108 90 88 78 q 138 131 128 103 q 160 222 149 160 l 249 732 q 256 792 256 771 q 237 844 256 828 q 169 868 218 861 q 167 907 167 893 q 169 943 167 918 q 456 939 269 939 l 458 939 q 842 943 721 939 q 831 765 831 835 q 832 708 831 726 q 740 696 794 696 q 725 794 738 760 q 673 845 713 828 q 553 863 633 863 l 446 863 m 332 -311 q 267 -290 290 -311 q 244 -233 244 -269 q 246 -214 244 -221 q 284 -144 254 -169 q 357 -118 314 -118 q 420 -138 396 -118 q 444 -196 444 -158 q 413 -279 444 -247 q 332 -311 382 -311 z "},"È":{"ha":835,"x_min":32,"x_max":842,"o":"m 446 863 l 386 514 l 443 514 q 556 535 524 514 q 599 621 589 557 q 650 626 635 626 q 685 624 660 626 q 654 461 664 538 q 639 304 643 385 q 557 324 585 308 q 535 412 560 386 q 435 438 510 438 l 374 438 l 336 217 q 328 147 328 174 q 351 90 328 104 q 432 76 374 76 l 456 76 q 571 96 526 76 q 644 153 615 115 q 701 260 672 192 q 786 222 756 251 q 717 -4 739 118 q 403 0 635 0 q 32 -4 133 0 q 47 72 32 36 q 108 90 88 78 q 138 131 128 103 q 160 222 149 160 l 249 732 q 256 792 256 771 q 237 844 256 828 q 169 868 218 861 q 167 907 167 893 q 169 943 167 918 q 456 939 269 939 l 458 939 q 842 943 721 939 q 831 765 831 835 q 832 708 831 726 q 740 696 794 696 q 725 794 738 760 q 673 845 713 828 q 553 863 633 863 l 446 863 m 596 1028 q 550 1022 581 1022 q 503 1028 519 1022 q 443 1111 481 1064 q 367 1200 406 1158 q 463 1214 415 1214 q 528 1207 493 1214 q 596 1028 551 1113 z "},"Ẻ":{"ha":835,"x_min":32,"x_max":842,"o":"m 446 863 l 386 514 l 443 514 q 556 535 524 514 q 599 621 589 557 q 650 626 635 626 q 685 624 660 626 q 654 461 664 538 q 639 304 643 385 q 557 324 585 308 q 535 412 560 386 q 435 438 510 438 l 374 438 l 336 217 q 328 147 328 174 q 351 90 328 104 q 432 76 374 76 l 456 76 q 571 96 526 76 q 644 153 615 115 q 701 260 672 192 q 786 222 756 251 q 717 -4 739 118 q 403 0 635 0 q 32 -4 133 0 q 47 72 32 36 q 108 90 88 78 q 138 131 128 103 q 160 222 149 160 l 249 732 q 256 792 256 771 q 237 844 256 828 q 169 868 218 861 q 167 907 167 893 q 169 943 167 918 q 456 939 269 939 l 458 939 q 842 943 721 939 q 831 765 831 835 q 832 708 831 726 q 740 696 794 696 q 725 794 738 760 q 673 845 713 828 q 553 863 633 863 l 446 863 m 489 1014 q 482 1043 482 1028 q 497 1086 482 1072 q 540 1117 511 1100 q 572 1135 560 1126 q 588 1156 583 1143 q 590 1167 590 1164 q 581 1182 590 1176 q 558 1188 572 1188 q 479 1106 503 1188 q 404 1126 425 1111 q 416 1167 411 1147 q 421 1207 421 1186 q 575 1243 493 1243 q 666 1224 635 1243 q 697 1171 697 1204 q 678 1120 697 1139 q 622 1079 660 1101 q 584 1056 597 1067 q 567 1032 571 1046 q 565 1023 567 1029 q 564 1008 563 1017 q 538 1007 557 1007 q 489 1014 506 1007 z "},"Ȇ":{"ha":835,"x_min":32,"x_max":842,"o":"m 446 863 l 386 514 l 443 514 q 556 535 524 514 q 599 621 589 557 q 650 626 635 626 q 685 624 660 626 q 654 461 664 538 q 639 304 643 385 q 557 324 585 308 q 535 412 560 386 q 435 438 510 438 l 374 438 l 336 217 q 328 147 328 174 q 351 90 328 104 q 432 76 374 76 l 456 76 q 571 96 526 76 q 644 153 615 115 q 701 260 672 192 q 786 222 756 251 q 717 -4 739 118 q 403 0 635 0 q 32 -4 133 0 q 47 72 32 36 q 108 90 88 78 q 138 131 128 103 q 160 222 149 160 l 249 732 q 256 792 256 771 q 237 844 256 828 q 169 868 218 861 q 167 907 167 893 q 169 943 167 918 q 456 939 269 939 l 458 939 q 842 943 721 939 q 831 765 831 835 q 832 708 831 726 q 740 696 794 696 q 725 794 738 760 q 673 845 713 828 q 553 863 633 863 l 446 863 m 585 1211 q 740 1172 686 1211 q 793 1060 793 1133 q 789 1015 793 1039 q 721 1001 754 1001 q 700 1003 707 1001 q 662 1077 701 1050 q 551 1104 622 1104 q 434 1077 482 1104 q 372 1003 386 1050 q 347 1001 364 1001 q 301 1010 318 1001 q 392 1159 319 1107 q 585 1211 465 1211 z "},"Ē":{"ha":835,"x_min":32,"x_max":842,"o":"m 446 863 l 386 514 l 443 514 q 556 535 524 514 q 599 621 589 557 q 650 626 635 626 q 685 624 660 626 q 654 461 664 538 q 639 304 643 385 q 557 324 585 308 q 535 412 560 386 q 435 438 510 438 l 374 438 l 336 217 q 328 147 328 174 q 351 90 328 104 q 432 76 374 76 l 456 76 q 571 96 526 76 q 644 153 615 115 q 701 260 672 192 q 786 222 756 251 q 717 -4 739 118 q 403 0 635 0 q 32 -4 133 0 q 47 72 32 36 q 108 90 88 78 q 138 131 128 103 q 160 222 149 160 l 249 732 q 256 792 256 771 q 237 844 256 828 q 169 868 218 861 q 167 907 167 893 q 169 943 167 918 q 456 939 269 939 l 458 939 q 842 943 721 939 q 831 765 831 835 q 832 708 831 726 q 740 696 794 696 q 725 794 738 760 q 673 845 713 828 q 553 863 633 863 l 446 863 m 294 1061 q 297 1099 294 1078 q 307 1133 300 1121 l 796 1133 q 783 1067 796 1097 q 294 1061 496 1067 z "},"Ḗ":{"ha":835,"x_min":32,"x_max":842,"o":"m 446 863 l 386 514 l 443 514 q 556 535 524 514 q 599 621 589 557 q 650 626 635 626 q 685 624 660 626 q 654 461 664 538 q 639 304 643 385 q 557 324 585 308 q 535 412 560 386 q 435 438 510 438 l 374 438 l 336 217 q 328 147 328 174 q 351 90 328 104 q 432 76 374 76 l 456 76 q 571 96 526 76 q 644 153 615 115 q 701 260 672 192 q 786 222 756 251 q 717 -4 739 118 q 403 0 635 0 q 32 -4 133 0 q 47 72 32 36 q 108 90 88 78 q 138 131 128 103 q 160 222 149 160 l 249 732 q 256 792 256 771 q 237 844 256 828 q 169 868 218 861 q 167 907 167 893 q 169 943 167 918 q 456 939 269 939 l 458 939 q 842 943 721 939 q 831 765 831 835 q 832 708 831 726 q 740 696 794 696 q 725 794 738 760 q 673 845 713 828 q 553 863 633 863 l 446 863 m 294 1061 q 297 1099 294 1078 q 307 1133 300 1121 l 796 1133 q 783 1067 796 1097 q 294 1061 496 1067 m 560 1208 q 482 1239 517 1213 q 549 1330 518 1281 q 596 1414 581 1379 q 656 1418 628 1418 q 769 1397 728 1418 q 560 1208 644 1292 z "},"Ḕ":{"ha":835,"x_min":32,"x_max":842,"o":"m 446 863 l 386 514 l 443 514 q 556 535 524 514 q 599 621 589 557 q 650 626 635 626 q 685 624 660 626 q 654 461 664 538 q 639 304 643 385 q 557 324 585 308 q 535 412 560 386 q 435 438 510 438 l 374 438 l 336 217 q 328 147 328 174 q 351 90 328 104 q 432 76 374 76 l 456 76 q 571 96 526 76 q 644 153 615 115 q 701 260 672 192 q 786 222 756 251 q 717 -4 739 118 q 403 0 635 0 q 32 -4 133 0 q 47 72 32 36 q 108 90 88 78 q 138 131 128 103 q 160 222 149 160 l 249 732 q 256 792 256 771 q 237 844 256 828 q 169 868 218 861 q 167 907 167 893 q 169 943 167 918 q 456 939 269 939 l 458 939 q 842 943 721 939 q 831 765 831 835 q 832 708 831 726 q 740 696 794 696 q 725 794 738 760 q 673 845 713 828 q 553 863 633 863 l 446 863 m 294 1061 q 297 1099 294 1078 q 307 1133 300 1121 l 796 1133 q 783 1067 796 1097 q 294 1061 496 1067 m 633 1222 q 588 1217 618 1217 q 540 1222 557 1217 q 481 1306 518 1258 q 404 1394 443 1353 q 500 1408 453 1408 q 565 1401 531 1408 q 633 1222 589 1307 z "},"Ę":{"ha":835,"x_min":32,"x_max":842,"o":"m 446 863 l 386 514 l 443 514 q 556 535 524 514 q 599 621 589 557 q 650 626 635 626 q 685 624 660 626 q 654 461 664 538 q 639 304 643 385 q 557 324 585 308 q 535 412 560 386 q 435 438 510 438 l 374 438 l 336 217 q 328 147 328 174 q 351 90 328 104 q 432 76 374 76 l 456 76 q 571 96 526 76 q 644 153 615 115 q 701 260 672 192 q 786 222 756 251 q 717 -4 739 118 q 604 -1 650 -1 q 492 -74 529 -35 q 456 -150 456 -114 q 474 -195 456 -178 q 528 -212 493 -212 q 581 -203 556 -212 q 596 -269 599 -228 q 475 -343 526 -300 q 447 -346 465 -346 q 342 -315 385 -346 q 299 -222 299 -283 q 339 -105 299 -160 q 476 0 379 -50 l 403 0 q 32 -4 133 0 q 47 72 32 36 q 108 90 88 78 q 138 131 128 103 q 160 222 149 160 l 249 732 q 256 792 256 771 q 237 844 256 828 q 169 868 218 861 q 167 907 167 893 q 169 943 167 918 q 456 939 269 939 l 458 939 q 842 943 721 939 q 831 765 831 835 q 832 708 831 726 q 740 696 794 696 q 725 794 738 760 q 673 845 713 828 q 553 863 633 863 l 446 863 z "},"Ǝ":{"ha":822,"x_min":11,"x_max":894,"o":"m 615 939 q 894 943 796 939 q 886 900 892 921 q 872 868 881 879 q 788 835 813 863 q 751 736 764 807 l 650 211 q 640 135 640 156 q 657 88 640 103 q 717 71 674 74 q 711 -4 719 32 q 329 0 610 0 q 11 -3 136 0 q 18 129 18 69 q 11 228 18 190 q 101 250 44 249 q 128 148 111 183 q 186 94 144 113 q 310 76 228 76 l 324 76 q 427 106 396 76 q 474 218 458 136 l 515 435 l 457 435 q 344 410 379 435 q 290 318 310 385 q 207 313 256 311 q 242 476 224 379 q 268 631 251 525 q 350 614 319 625 q 347 578 347 600 q 374 523 347 538 q 469 508 401 508 l 531 508 l 600 868 l 492 868 q 322 819 379 868 q 243 689 265 769 q 161 724 185 700 q 198 831 178 765 q 229 943 218 896 q 615 939 400 939 z "},"Ẽ":{"ha":835,"x_min":32,"x_max":842,"o":"m 446 863 l 386 514 l 443 514 q 556 535 524 514 q 599 621 589 557 q 650 626 635 626 q 685 624 660 626 q 654 461 664 538 q 639 304 643 385 q 557 324 585 308 q 535 412 560 386 q 435 438 510 438 l 374 438 l 336 217 q 328 147 328 174 q 351 90 328 104 q 432 76 374 76 l 456 76 q 571 96 526 76 q 644 153 615 115 q 701 260 672 192 q 786 222 756 251 q 717 -4 739 118 q 403 0 635 0 q 32 -4 133 0 q 47 72 32 36 q 108 90 88 78 q 138 131 128 103 q 160 222 149 160 l 249 732 q 256 792 256 771 q 237 844 256 828 q 169 868 218 861 q 167 907 167 893 q 169 943 167 918 q 456 939 269 939 l 458 939 q 842 943 721 939 q 831 765 831 835 q 832 708 831 726 q 740 696 794 696 q 725 794 738 760 q 673 845 713 828 q 553 863 633 863 l 446 863 m 615 1033 q 564 1041 586 1033 q 514 1063 542 1049 q 471 1082 486 1076 q 436 1088 456 1088 q 322 1036 383 1088 q 303 1113 299 1067 q 485 1194 386 1194 q 536 1187 514 1194 q 589 1165 558 1179 q 663 1142 633 1142 q 753 1189 703 1142 q 801 1144 789 1172 q 615 1033 718 1033 z "},"Ʒ":{"ha":808,"x_min":31,"x_max":846,"o":"m 844 872 q 528 521 688 683 q 703 457 643 510 q 764 315 764 404 q 758 258 764 285 q 619 58 733 129 q 314 -12 504 -12 q 31 63 142 -12 q 50 171 42 111 q 60 276 58 231 q 118 283 90 283 q 165 279 144 283 l 164 244 q 200 111 164 151 q 321 71 236 71 q 485 123 419 71 q 568 263 551 175 q 572 303 572 283 q 328 460 572 451 q 315 522 315 488 q 317 543 315 536 q 621 868 458 667 l 467 868 q 371 852 408 868 q 303 794 333 836 q 243 675 274 753 q 188 686 215 678 q 147 708 161 694 q 189 821 169 756 q 218 942 208 886 q 547 939 276 939 q 831 942 739 939 q 846 890 846 922 q 844 872 846 879 z "},"Ǯ":{"ha":808,"x_min":31,"x_max":846,"o":"m 844 872 q 528 521 688 683 q 703 457 643 510 q 764 315 764 404 q 758 258 764 285 q 619 58 733 129 q 314 -12 504 -12 q 31 63 142 -12 q 50 171 42 111 q 60 276 58 231 q 118 283 90 283 q 165 279 144 283 l 164 244 q 200 111 164 151 q 321 71 236 71 q 485 123 419 71 q 568 263 551 175 q 572 303 572 283 q 328 460 572 451 q 315 522 315 488 q 317 543 315 536 q 621 868 458 667 l 467 868 q 371 852 408 868 q 303 794 333 836 q 243 675 274 753 q 188 686 215 678 q 147 708 161 694 q 189 821 169 756 q 218 942 208 886 q 547 939 276 939 q 831 942 739 939 q 846 890 846 922 q 844 872 846 879 m 493 1015 q 317 1181 418 1103 q 336 1217 324 1204 q 372 1233 349 1231 q 553 1143 468 1178 q 743 1231 646 1174 q 773 1211 760 1225 q 794 1179 786 1197 q 564 1025 660 1100 q 511 1014 538 1014 q 493 1015 499 1014 z "},"F":{"ha":779,"x_min":29,"x_max":836,"o":"m 836 943 q 824 760 824 843 q 825 708 824 725 q 735 696 789 696 q 719 794 732 760 q 667 845 706 828 q 547 863 628 863 l 444 863 l 379 472 l 444 472 q 558 495 525 472 q 601 582 592 518 q 653 588 638 588 q 688 585 663 588 q 657 422 668 500 q 642 263 643 324 q 560 282 586 268 q 538 373 564 347 q 438 399 513 399 l 367 399 l 335 218 q 326 149 326 176 q 350 98 326 115 q 439 71 374 81 q 444 24 444 50 q 443 -4 444 6 q 238 0 371 0 q 29 -4 96 0 q 44 71 33 36 q 110 92 89 76 q 139 131 131 107 q 157 213 147 156 l 247 732 q 254 793 254 774 q 235 845 254 829 q 171 868 217 861 q 167 910 167 888 q 169 943 167 921 q 454 939 253 939 l 457 939 q 836 943 715 939 z "},"G":{"ha":947,"x_min":74,"x_max":958,"o":"m 638 951 q 817 933 740 951 q 958 874 894 914 q 913 663 928 789 q 856 651 883 651 q 817 656 835 651 q 819 714 819 676 q 777 844 819 810 q 644 878 735 878 q 391 765 489 878 q 271 471 293 651 q 264 375 264 415 q 322 153 264 238 q 496 69 379 69 q 560 74 533 69 q 614 89 586 78 q 651 122 640 100 q 674 211 663 144 q 686 307 686 286 q 666 363 686 349 q 592 382 646 378 q 588 421 588 401 q 590 457 588 435 q 772 453 653 453 q 953 457 879 453 q 939 382 950 413 q 892 366 908 378 q 865 321 876 354 q 842 213 854 288 q 832 133 832 151 q 840 86 832 110 q 670 15 768 42 q 465 -12 572 -12 q 256 35 344 -12 q 121 170 168 82 q 74 379 74 258 q 81 474 74 418 q 186 740 103 633 q 388 899 269 847 q 638 951 507 951 z "},"Ğ":{"ha":947,"x_min":74,"x_max":958,"o":"m 638 951 q 817 933 740 951 q 958 874 894 914 q 913 663 928 789 q 856 651 883 651 q 817 656 835 651 q 819 714 819 676 q 777 844 819 810 q 644 878 735 878 q 391 765 489 878 q 271 471 293 651 q 264 375 264 415 q 322 153 264 238 q 496 69 379 69 q 560 74 533 69 q 614 89 586 78 q 651 122 640 100 q 674 211 663 144 q 686 307 686 286 q 666 363 686 349 q 592 382 646 378 q 588 421 588 401 q 590 457 588 435 q 772 453 653 453 q 953 457 879 453 q 939 382 950 413 q 892 366 908 378 q 865 321 876 354 q 842 213 854 288 q 832 133 832 151 q 840 86 832 110 q 670 15 768 42 q 465 -12 572 -12 q 256 35 344 -12 q 121 170 168 82 q 74 379 74 258 q 81 474 74 418 q 186 740 103 633 q 388 899 269 847 q 638 951 507 951 m 635 1010 q 480 1049 533 1010 q 426 1161 426 1088 q 431 1206 426 1183 q 519 1218 474 1222 q 558 1142 518 1169 q 668 1115 597 1115 q 785 1142 738 1115 q 847 1218 833 1169 q 869 1219 854 1219 q 918 1210 896 1219 q 827 1061 900 1113 q 635 1010 754 1010 z "},"Ǧ":{"ha":947,"x_min":74,"x_max":958,"o":"m 638 951 q 817 933 740 951 q 958 874 894 914 q 913 663 928 789 q 856 651 883 651 q 817 656 835 651 q 819 714 819 676 q 777 844 819 810 q 644 878 735 878 q 391 765 489 878 q 271 471 293 651 q 264 375 264 415 q 322 153 264 238 q 496 69 379 69 q 560 74 533 69 q 614 89 586 78 q 651 122 640 100 q 674 211 663 144 q 686 307 686 286 q 666 363 686 349 q 592 382 646 378 q 588 421 588 401 q 590 457 588 435 q 772 453 653 453 q 953 457 879 453 q 939 382 950 413 q 892 366 908 378 q 865 321 876 354 q 842 213 854 288 q 832 133 832 151 q 840 86 832 110 q 670 15 768 42 q 465 -12 572 -12 q 256 35 344 -12 q 121 170 168 82 q 74 379 74 258 q 81 474 74 418 q 186 740 103 633 q 388 899 269 847 q 638 951 507 951 m 611 1015 q 435 1181 536 1103 q 454 1217 442 1204 q 490 1233 467 1231 q 671 1143 586 1178 q 861 1231 764 1174 q 891 1211 878 1225 q 913 1179 904 1197 q 682 1025 778 1100 q 629 1014 656 1014 q 611 1015 617 1014 z "},"Ĝ":{"ha":947,"x_min":74,"x_max":958,"o":"m 638 951 q 817 933 740 951 q 958 874 894 914 q 913 663 928 789 q 856 651 883 651 q 817 656 835 651 q 819 714 819 676 q 777 844 819 810 q 644 878 735 878 q 391 765 489 878 q 271 471 293 651 q 264 375 264 415 q 322 153 264 238 q 496 69 379 69 q 560 74 533 69 q 614 89 586 78 q 651 122 640 100 q 674 211 663 144 q 686 307 686 286 q 666 363 686 349 q 592 382 646 378 q 588 421 588 401 q 590 457 588 435 q 772 453 653 453 q 953 457 879 453 q 939 382 950 413 q 892 366 908 378 q 865 321 876 354 q 842 213 854 288 q 832 133 832 151 q 840 86 832 110 q 670 15 768 42 q 465 -12 572 -12 q 256 35 344 -12 q 121 170 168 82 q 74 379 74 258 q 81 474 74 418 q 186 740 103 633 q 388 899 269 847 q 638 951 507 951 m 481 1008 q 453 1039 464 1018 q 443 1078 443 1060 q 667 1225 538 1126 q 690 1226 675 1226 q 742 1218 717 1226 q 867 1088 783 1168 l 904 1050 q 878 1028 896 1036 q 839 1017 860 1019 q 669 1103 749 1074 q 571 1057 624 1085 q 506 1022 518 1029 l 481 1008 z "},"Ģ":{"ha":947,"x_min":74,"x_max":958,"o":"m 638 951 q 817 933 740 951 q 958 874 894 914 q 913 663 928 789 q 856 651 883 651 q 817 656 835 651 q 819 714 819 676 q 777 844 819 810 q 644 878 735 878 q 391 765 489 878 q 271 471 293 651 q 264 375 264 415 q 322 153 264 238 q 496 69 379 69 q 560 74 533 69 q 614 89 586 78 q 651 122 640 100 q 674 211 663 144 q 686 307 686 286 q 666 363 686 349 q 592 382 646 378 q 588 421 588 401 q 590 457 588 435 q 772 453 653 453 q 953 457 879 453 q 939 382 950 413 q 892 366 908 378 q 865 321 876 354 q 842 213 854 288 q 832 133 832 151 q 840 86 832 110 q 670 15 768 42 q 465 -12 572 -12 q 256 35 344 -12 q 121 170 168 82 q 74 379 74 258 q 81 474 74 418 q 186 740 103 633 q 388 899 269 847 q 638 951 507 951 m 369 -406 q 322 -367 335 -396 q 384 -303 361 -336 q 407 -243 407 -269 q 351 -199 407 -207 q 381 -99 349 -143 q 519 -57 464 -90 q 564 -128 564 -74 q 561 -157 564 -137 q 369 -406 538 -296 z "},"Ġ":{"ha":947,"x_min":74,"x_max":958,"o":"m 638 951 q 817 933 740 951 q 958 874 894 914 q 913 663 928 789 q 856 651 883 651 q 817 656 835 651 q 819 714 819 676 q 777 844 819 810 q 644 878 735 878 q 391 765 489 878 q 271 471 293 651 q 264 375 264 415 q 322 153 264 238 q 496 69 379 69 q 560 74 533 69 q 614 89 586 78 q 651 122 640 100 q 674 211 663 144 q 686 307 686 286 q 666 363 686 349 q 592 382 646 378 q 588 421 588 401 q 590 457 588 435 q 772 453 653 453 q 953 457 879 453 q 939 382 950 413 q 892 366 908 378 q 865 321 876 354 q 842 213 854 288 q 832 133 832 151 q 840 86 832 110 q 670 15 768 42 q 465 -12 572 -12 q 256 35 344 -12 q 121 170 168 82 q 74 379 74 258 q 81 474 74 418 q 186 740 103 633 q 388 899 269 847 q 638 951 507 951 m 651 999 q 590 1020 613 999 q 568 1078 568 1042 q 600 1152 568 1125 q 682 1179 632 1179 q 744 1158 721 1179 q 767 1101 767 1138 q 736 1026 767 1053 q 651 999 706 999 z "},"Ḡ":{"ha":947,"x_min":74,"x_max":958,"o":"m 638 951 q 817 933 740 951 q 958 874 894 914 q 913 663 928 789 q 856 651 883 651 q 817 656 835 651 q 819 714 819 676 q 777 844 819 810 q 644 878 735 878 q 391 765 489 878 q 271 471 293 651 q 264 375 264 415 q 322 153 264 238 q 496 69 379 69 q 560 74 533 69 q 614 89 586 78 q 651 122 640 100 q 674 211 663 144 q 686 307 686 286 q 666 363 686 349 q 592 382 646 378 q 588 421 588 401 q 590 457 588 435 q 772 453 653 453 q 953 457 879 453 q 939 382 950 413 q 892 366 908 378 q 865 321 876 354 q 842 213 854 288 q 832 133 832 151 q 840 86 832 110 q 670 15 768 42 q 465 -12 572 -12 q 256 35 344 -12 q 121 170 168 82 q 74 379 74 258 q 81 474 74 418 q 186 740 103 633 q 388 899 269 847 q 638 951 507 951 m 417 1061 q 419 1099 417 1078 q 429 1133 422 1121 l 918 1133 q 906 1067 918 1097 q 417 1061 618 1067 z "},"Ǥ":{"ha":947,"x_min":74,"x_max":958,"o":"m 939 382 q 898 372 913 379 q 873 342 883 364 q 853 274 863 319 l 947 274 q 933 186 947 222 l 838 188 q 832 133 832 143 q 840 86 832 110 q 670 15 768 42 q 465 -12 572 -12 q 256 35 344 -12 q 121 170 168 82 q 74 379 74 258 q 81 474 74 418 q 186 740 103 633 q 388 899 269 847 q 638 951 507 951 q 817 933 740 951 q 958 874 894 914 q 913 663 928 789 q 856 651 883 651 q 817 656 835 651 q 819 714 819 676 q 777 844 819 810 q 644 878 735 878 q 391 765 489 878 q 271 471 293 651 q 264 375 264 415 q 322 153 264 238 q 496 69 379 69 q 560 74 533 69 q 614 89 586 78 q 649 119 639 100 q 669 188 660 138 l 531 186 q 500 185 521 185 q 503 234 500 208 q 513 274 507 260 l 683 274 q 686 307 686 299 q 666 364 686 350 q 592 382 646 378 q 588 421 588 401 q 590 457 588 435 q 772 453 653 453 q 953 457 879 453 q 939 382 950 413 z "},"Ȝ":{"ha":739,"x_min":-61,"x_max":736,"o":"m 731 711 q 636 547 713 617 q 424 426 560 478 q 606 374 538 426 q 674 217 674 321 q 667 146 674 178 q 572 -53 644 35 q 390 -189 499 -140 q 156 -237 282 -237 q 24 -220 81 -237 q -61 -174 -32 -203 q -22 -111 -51 -136 q 42 -141 -6 -128 q 142 -154 89 -154 q 360 -74 268 -154 q 476 136 451 6 q 483 200 483 175 q 441 314 483 275 q 319 353 399 353 q 183 325 250 353 q 175 367 175 344 q 182 410 175 389 q 437 522 356 454 q 539 694 518 589 q 544 749 544 721 q 510 843 544 811 q 410 875 475 875 q 297 833 340 875 q 215 685 253 790 q 122 700 161 682 q 161 890 153 808 q 287 935 215 919 q 440 951 358 951 q 663 901 589 951 q 736 760 736 850 q 731 711 736 744 z "},"H":{"ha":1074,"x_min":32,"x_max":1101,"o":"m 910 939 q 1101 943 1006 939 q 1088 868 1099 896 q 1027 848 1047 861 q 997 810 1007 835 q 978 732 988 785 l 886 200 q 879 139 879 158 q 897 92 879 107 q 961 71 915 76 q 965 24 965 50 q 964 -4 965 6 q 776 0 868 0 q 585 -4 664 0 q 600 71 586 35 q 660 89 640 76 q 690 125 681 101 q 708 199 700 149 l 750 439 q 374 431 504 439 l 333 200 q 326 140 326 158 q 344 91 326 104 q 408 71 361 78 q 413 24 413 50 q 411 -4 413 6 q 224 0 315 0 q 32 -4 111 0 q 47 71 35 40 q 106 87 86 76 q 135 122 125 97 q 156 199 146 146 l 249 742 q 254 796 254 771 q 236 847 254 833 q 171 868 218 861 q 167 910 167 888 q 169 943 167 921 q 357 939 253 939 q 549 943 453 939 q 535 868 546 896 q 474 848 494 861 q 444 810 454 835 q 425 732 435 785 l 388 515 l 763 515 l 801 742 q 807 796 807 771 q 789 846 807 831 q 724 868 771 861 q 719 910 719 888 q 722 943 719 921 q 910 939 806 939 z "},"Ħ":{"ha":1074,"x_min":32,"x_max":1101,"o":"m 1088 868 q 1030 851 1049 861 q 1000 815 1011 840 q 978 732 989 789 l 972 703 l 1057 703 q 1042 629 1057 667 l 960 629 l 886 200 q 879 139 879 158 q 897 92 879 107 q 961 71 915 76 q 965 24 965 50 q 964 -4 965 6 q 776 0 868 0 q 585 -4 664 0 q 600 71 586 35 q 660 89 640 76 q 690 125 681 101 q 708 199 700 149 l 750 439 q 374 431 504 439 l 333 200 q 326 140 326 158 q 344 91 326 104 q 408 71 361 78 q 413 24 413 50 q 411 -4 413 6 q 224 0 315 0 q 32 -4 111 0 q 47 71 35 40 q 106 87 86 76 q 135 122 125 97 q 156 199 146 146 l 229 625 l 142 624 q 146 666 142 643 q 157 703 150 689 l 242 703 l 249 742 q 254 797 254 771 q 236 847 254 832 q 171 868 218 861 q 167 910 167 888 q 169 943 167 921 q 357 939 253 939 q 549 943 453 939 q 535 868 546 896 q 477 851 496 861 q 447 815 458 840 q 425 732 436 789 l 419 703 l 794 703 l 801 742 q 807 797 807 771 q 789 847 807 832 q 724 868 771 861 q 719 910 719 888 q 722 943 719 921 q 910 939 806 939 q 1101 943 1006 939 q 1088 868 1099 896 m 782 629 q 407 626 663 629 l 388 515 l 763 515 l 782 629 z "},"Ḫ":{"ha":1074,"x_min":32,"x_max":1101,"o":"m 910 939 q 1101 943 1006 939 q 1088 868 1099 896 q 1027 848 1047 861 q 997 810 1007 835 q 978 732 988 785 l 886 200 q 879 139 879 158 q 897 92 879 107 q 961 71 915 76 q 965 24 965 50 q 964 -4 965 6 q 776 0 868 0 q 585 -4 664 0 q 600 71 586 35 q 660 89 640 76 q 690 125 681 101 q 708 199 700 149 l 750 439 q 374 431 504 439 l 333 200 q 326 140 326 158 q 344 91 326 104 q 408 71 361 78 q 413 24 413 50 q 411 -4 413 6 q 224 0 315 0 q 32 -4 111 0 q 47 71 35 40 q 106 87 86 76 q 135 122 125 97 q 156 199 146 146 l 249 742 q 254 796 254 771 q 236 847 254 833 q 171 868 218 861 q 167 910 167 888 q 169 943 167 921 q 357 939 253 939 q 549 943 453 939 q 535 868 546 896 q 474 848 494 861 q 444 810 454 835 q 425 732 435 785 l 388 515 l 763 515 l 801 742 q 807 796 807 771 q 789 846 807 831 q 724 868 771 861 q 719 910 719 888 q 722 943 719 921 q 910 939 806 939 z "},"Ȟ":{"ha":1074,"x_min":32,"x_max":1101,"o":"m 910 939 q 1101 943 1006 939 q 1088 868 1099 896 q 1027 848 1047 861 q 997 810 1007 835 q 978 732 988 785 l 886 200 q 879 139 879 158 q 897 92 879 107 q 961 71 915 76 q 965 24 965 50 q 964 -4 965 6 q 776 0 868 0 q 585 -4 664 0 q 600 71 586 35 q 660 89 640 76 q 690 125 681 101 q 708 199 700 149 l 750 439 q 374 431 504 439 l 333 200 q 326 140 326 158 q 344 91 326 104 q 408 71 361 78 q 413 24 413 50 q 411 -4 413 6 q 224 0 315 0 q 32 -4 111 0 q 47 71 35 40 q 106 87 86 76 q 135 122 125 97 q 156 199 146 146 l 249 742 q 254 796 254 771 q 236 847 254 833 q 171 868 218 861 q 167 910 167 888 q 169 943 167 921 q 357 939 253 939 q 549 943 453 939 q 535 868 546 896 q 474 848 494 861 q 444 810 454 835 q 425 732 435 785 l 388 515 l 763 515 l 801 742 q 807 796 807 771 q 789 846 807 831 q 724 868 771 861 q 719 910 719 888 q 722 943 719 921 q 910 939 806 939 m 606 1015 q 429 1181 531 1103 q 449 1217 436 1204 q 485 1233 461 1231 q 665 1143 581 1178 q 856 1231 758 1174 q 885 1211 872 1225 q 907 1179 899 1197 q 676 1025 772 1100 q 624 1014 650 1014 q 606 1015 611 1014 z "},"Ĥ":{"ha":1074,"x_min":32,"x_max":1101,"o":"m 910 939 q 1101 943 1006 939 q 1088 868 1099 896 q 1027 848 1047 861 q 997 810 1007 835 q 978 732 988 785 l 886 200 q 879 139 879 158 q 897 92 879 107 q 961 71 915 76 q 965 24 965 50 q 964 -4 965 6 q 776 0 868 0 q 585 -4 664 0 q 600 71 586 35 q 660 89 640 76 q 690 125 681 101 q 708 199 700 149 l 750 439 q 374 431 504 439 l 333 200 q 326 140 326 158 q 344 91 326 104 q 408 71 361 78 q 413 24 413 50 q 411 -4 413 6 q 224 0 315 0 q 32 -4 111 0 q 47 71 35 40 q 106 87 86 76 q 135 122 125 97 q 156 199 146 146 l 249 742 q 254 796 254 771 q 236 847 254 833 q 171 868 218 861 q 167 910 167 888 q 169 943 167 921 q 357 939 253 939 q 549 943 453 939 q 535 868 546 896 q 474 848 494 861 q 444 810 454 835 q 425 732 435 785 l 388 515 l 763 515 l 801 742 q 807 796 807 771 q 789 846 807 831 q 724 868 771 861 q 719 910 719 888 q 722 943 719 921 q 910 939 806 939 m 475 1008 q 448 1039 458 1018 q 438 1078 438 1060 q 661 1225 532 1126 q 685 1226 669 1226 q 736 1218 711 1226 q 861 1088 778 1168 l 899 1050 q 872 1028 890 1036 q 833 1017 854 1019 q 664 1103 743 1074 q 565 1057 618 1085 q 500 1022 513 1029 l 475 1008 z "},"Ḥ":{"ha":1074,"x_min":32,"x_max":1101,"o":"m 910 939 q 1101 943 1006 939 q 1088 868 1099 896 q 1027 848 1047 861 q 997 810 1007 835 q 978 732 988 785 l 886 200 q 879 139 879 158 q 897 92 879 107 q 961 71 915 76 q 965 24 965 50 q 964 -4 965 6 q 776 0 868 0 q 585 -4 664 0 q 600 71 586 35 q 660 89 640 76 q 690 125 681 101 q 708 199 700 149 l 750 439 q 374 431 504 439 l 333 200 q 326 140 326 158 q 344 91 326 104 q 408 71 361 78 q 413 24 413 50 q 411 -4 413 6 q 224 0 315 0 q 32 -4 111 0 q 47 71 35 40 q 106 87 86 76 q 135 122 125 97 q 156 199 146 146 l 249 742 q 254 796 254 771 q 236 847 254 833 q 171 868 218 861 q 167 910 167 888 q 169 943 167 921 q 357 939 253 939 q 549 943 453 939 q 535 868 546 896 q 474 848 494 861 q 444 810 454 835 q 425 732 435 785 l 388 515 l 763 515 l 801 742 q 807 796 807 771 q 789 846 807 831 q 724 868 771 861 q 719 910 719 888 q 722 943 719 921 q 910 939 806 939 m 433 -311 q 369 -290 392 -311 q 346 -233 346 -269 q 347 -214 346 -221 q 385 -144 356 -169 q 458 -118 415 -118 q 522 -138 497 -118 q 546 -196 546 -158 q 515 -279 546 -247 q 433 -311 483 -311 z "},"I":{"ha":521,"x_min":32,"x_max":549,"o":"m 249 742 q 254 796 254 771 q 236 846 254 831 q 171 868 218 861 q 167 910 167 888 q 169 943 167 921 q 357 939 253 939 q 549 943 453 939 q 535 868 546 896 q 474 848 494 861 q 444 810 454 835 q 425 732 435 785 l 333 200 q 326 140 326 161 q 344 91 326 104 q 408 71 361 78 q 413 24 413 50 q 411 -4 413 6 q 224 0 315 0 q 32 -4 111 0 q 47 71 35 40 q 106 87 86 76 q 135 122 125 97 q 156 199 146 146 l 249 742 z "},"Ĳ":{"ha":946,"x_min":101,"x_max":1015,"o":"m 329 -343 q 103 -253 207 -343 q 101 -217 101 -240 q 119 -131 101 -167 q 267 -172 189 -157 q 413 -187 346 -187 q 501 -165 471 -187 q 551 -80 532 -142 q 596 119 571 -18 q 619 241 613 213 q 643 310 626 269 l 640 310 q 551 165 607 239 q 426 38 496 90 q 288 -14 357 -14 q 165 176 165 -14 q 173 285 165 232 q 196 431 181 338 l 250 739 q 256 793 256 767 q 235 844 256 828 q 164 868 215 861 q 160 910 160 888 q 163 943 160 921 q 356 939 250 939 q 554 943 454 939 q 539 868 551 900 q 478 850 499 861 q 447 813 458 839 q 425 732 436 786 l 360 396 q 335 204 335 261 q 347 138 335 160 q 385 115 358 115 q 503 195 435 115 q 630 419 571 275 q 713 744 689 563 q 718 799 718 789 q 699 847 718 833 q 626 868 679 861 q 622 911 622 889 q 624 943 622 932 q 814 939 672 939 q 1015 943 947 939 q 1003 868 1014 900 q 937 849 958 864 q 906 808 915 835 q 885 726 896 782 l 783 194 q 689 -78 754 44 q 530 -272 624 -201 q 329 -343 436 -343 z "},"Í":{"ha":521,"x_min":32,"x_max":574,"o":"m 249 742 q 254 796 254 771 q 236 846 254 831 q 171 868 218 861 q 167 910 167 888 q 169 943 167 921 q 357 939 253 939 q 549 943 453 939 q 535 868 546 896 q 474 848 494 861 q 444 810 454 835 q 425 732 435 785 l 333 200 q 326 140 326 161 q 344 91 326 104 q 408 71 361 78 q 413 24 413 50 q 411 -4 413 6 q 224 0 315 0 q 32 -4 111 0 q 47 71 35 40 q 106 87 86 76 q 135 122 125 97 q 156 199 146 146 l 249 742 m 364 1014 q 286 1044 321 1018 q 353 1135 322 1086 q 400 1219 385 1185 q 460 1224 432 1224 q 574 1203 532 1224 q 364 1014 449 1097 z "},"Ĭ":{"ha":521,"x_min":32,"x_max":596,"o":"m 358 992 q 227 1031 271 992 q 183 1146 183 1071 q 189 1203 183 1176 q 217 1206 197 1206 q 263 1197 242 1206 q 294 1123 265 1147 q 381 1099 324 1099 q 483 1131 440 1099 q 536 1214 525 1163 q 596 1188 579 1210 q 358 992 560 992 m 249 742 q 254 796 254 771 q 236 846 254 831 q 171 868 218 861 q 167 910 167 888 q 169 943 167 921 q 357 939 253 939 q 549 943 453 939 q 535 868 546 896 q 474 848 494 861 q 444 810 454 835 q 425 732 435 785 l 333 200 q 326 140 326 161 q 344 91 326 104 q 408 71 361 78 q 413 24 413 50 q 411 -4 413 6 q 224 0 315 0 q 32 -4 111 0 q 47 71 35 40 q 106 87 86 76 q 135 122 125 97 q 156 199 146 146 l 249 742 z "},"Ǐ":{"ha":521,"x_min":32,"x_max":588,"o":"m 218 1143 q 203 1165 210 1156 q 190 1183 196 1175 q 228 1202 204 1194 q 271 1210 251 1210 q 392 1113 338 1149 q 538 1219 468 1160 q 588 1150 576 1197 q 390 989 521 1106 q 356 988 378 988 q 318 992 331 988 l 218 1143 m 249 742 q 254 796 254 771 q 236 846 254 831 q 171 868 218 861 q 167 910 167 888 q 169 943 167 921 q 357 939 253 939 q 549 943 453 939 q 535 868 546 896 q 474 848 494 861 q 444 810 454 835 q 425 732 435 785 l 333 200 q 326 140 326 161 q 344 91 326 104 q 408 71 361 78 q 413 24 413 50 q 411 -4 413 6 q 224 0 315 0 q 32 -4 111 0 q 47 71 35 40 q 106 87 86 76 q 135 122 125 97 q 156 199 146 146 l 249 742 z "},"Î":{"ha":521,"x_min":32,"x_max":588,"o":"m 239 982 q 190 1051 199 1007 q 386 1213 271 1106 l 424 1214 q 458 1210 446 1214 q 588 1018 493 1156 q 550 999 574 1006 q 507 992 526 992 q 386 1089 449 1049 q 239 982 311 1042 m 249 742 q 254 796 254 771 q 236 846 254 831 q 171 868 218 861 q 167 910 167 888 q 169 943 167 921 q 357 939 253 939 q 549 943 453 939 q 535 868 546 896 q 474 848 494 861 q 444 810 454 835 q 425 732 435 785 l 333 200 q 326 140 326 161 q 344 91 326 104 q 408 71 361 78 q 413 24 413 50 q 411 -4 413 6 q 224 0 315 0 q 32 -4 111 0 q 47 71 35 40 q 106 87 86 76 q 135 122 125 97 q 156 199 146 146 l 249 742 z "},"Ȉ":{"ha":521,"x_min":32,"x_max":549,"o":"m 249 742 q 254 796 254 771 q 236 846 254 831 q 171 868 218 861 q 167 910 167 888 q 169 943 167 921 q 357 939 253 939 q 549 943 453 939 q 535 868 546 896 q 474 848 494 861 q 444 810 454 835 q 425 732 435 785 l 333 200 q 326 140 326 161 q 344 91 326 104 q 408 71 361 78 q 413 24 413 50 q 411 -4 413 6 q 224 0 315 0 q 32 -4 111 0 q 47 71 35 40 q 106 87 86 76 q 135 122 125 97 q 156 199 146 146 l 249 742 m 246 1007 q 133 1182 192 1103 q 218 1196 167 1196 q 278 1190 242 1196 q 293 1121 279 1181 q 326 1004 307 1061 q 297 1001 307 1001 q 246 1007 285 1001 m 464 1007 q 358 1183 408 1108 q 439 1196 392 1196 q 496 1190 460 1196 q 511 1121 497 1181 q 544 1004 525 1061 q 515 1001 525 1001 q 464 1007 503 1001 z "},"Ï":{"ha":521,"x_min":32,"x_max":606,"o":"m 257 1011 q 194 1033 218 1011 q 171 1089 171 1056 q 172 1104 171 1099 q 205 1158 179 1136 q 275 1179 231 1179 q 339 1159 318 1179 q 360 1106 360 1139 q 357 1079 360 1096 q 323 1031 351 1050 q 257 1011 294 1011 m 504 1013 q 438 1033 461 1013 q 415 1090 415 1054 q 418 1114 415 1097 q 451 1163 424 1146 q 519 1179 479 1179 q 582 1158 558 1179 q 606 1104 606 1138 q 604 1088 606 1093 q 573 1033 597 1054 q 504 1013 549 1013 m 249 742 q 254 796 254 771 q 236 846 254 831 q 171 868 218 861 q 167 910 167 888 q 169 943 167 921 q 357 939 253 939 q 549 943 453 939 q 535 868 546 896 q 474 848 494 861 q 444 810 454 835 q 425 732 435 785 l 333 200 q 326 140 326 161 q 344 91 326 104 q 408 71 361 78 q 413 24 413 50 q 411 -4 413 6 q 224 0 315 0 q 32 -4 111 0 q 47 71 35 40 q 106 87 86 76 q 135 122 125 97 q 156 199 146 146 l 249 742 z "},"Ḯ":{"ha":521,"x_min":32,"x_max":606,"o":"m 397 1208 q 319 1239 351 1213 q 385 1329 356 1281 q 432 1414 415 1378 q 493 1418 464 1418 q 606 1397 564 1418 q 397 1208 506 1314 m 257 1011 q 194 1033 218 1011 q 171 1089 171 1056 q 172 1104 171 1099 q 205 1158 179 1136 q 275 1179 231 1179 q 339 1159 318 1179 q 360 1106 360 1139 q 357 1079 360 1096 q 323 1031 351 1050 q 257 1011 294 1011 m 504 1013 q 438 1033 461 1013 q 415 1090 415 1054 q 418 1114 415 1097 q 451 1163 424 1146 q 519 1179 479 1179 q 582 1158 558 1179 q 606 1104 606 1138 q 604 1088 606 1093 q 573 1033 597 1054 q 504 1013 549 1013 m 249 742 q 254 796 254 771 q 236 846 254 831 q 171 868 218 861 q 167 910 167 888 q 169 943 167 921 q 357 939 253 939 q 549 943 453 939 q 535 868 546 896 q 474 848 494 861 q 444 810 454 835 q 425 732 435 785 l 333 200 q 326 140 326 161 q 344 91 326 104 q 408 71 361 78 q 413 24 413 50 q 411 -4 413 6 q 224 0 315 0 q 32 -4 111 0 q 47 71 35 40 q 106 87 86 76 q 135 122 125 97 q 156 199 146 146 l 249 742 z "},"İ":{"ha":521,"x_min":32,"x_max":549,"o":"m 249 742 q 254 796 254 771 q 236 846 254 831 q 171 868 218 861 q 167 910 167 888 q 169 943 167 921 q 357 939 253 939 q 549 943 453 939 q 535 868 546 896 q 474 848 494 861 q 444 810 454 835 q 425 732 435 785 l 333 200 q 326 140 326 161 q 344 91 326 104 q 408 71 361 78 q 413 24 413 50 q 411 -4 413 6 q 224 0 315 0 q 32 -4 111 0 q 47 71 35 40 q 106 87 86 76 q 135 122 125 97 q 156 199 146 146 l 249 742 m 371 999 q 310 1020 332 999 q 288 1078 288 1042 q 319 1152 288 1125 q 401 1179 351 1179 q 463 1158 440 1179 q 486 1101 486 1138 q 456 1026 486 1053 q 371 999 425 999 z "},"Ị":{"ha":521,"x_min":32,"x_max":549,"o":"m 249 742 q 254 796 254 771 q 236 846 254 831 q 171 868 218 861 q 167 910 167 888 q 169 943 167 921 q 357 939 253 939 q 549 943 453 939 q 535 868 546 896 q 474 848 494 861 q 444 810 454 835 q 425 732 435 785 l 333 200 q 326 140 326 161 q 344 91 326 104 q 408 71 361 78 q 413 24 413 50 q 411 -4 413 6 q 224 0 315 0 q 32 -4 111 0 q 47 71 35 40 q 106 87 86 76 q 135 122 125 97 q 156 199 146 146 l 249 742 m 157 -311 q 92 -290 115 -311 q 69 -233 69 -269 q 71 -214 69 -221 q 109 -144 79 -169 q 182 -118 139 -118 q 245 -138 221 -118 q 269 -196 269 -158 q 238 -279 269 -247 q 157 -311 207 -311 z "},"Ì":{"ha":521,"x_min":32,"x_max":549,"o":"m 249 742 q 254 796 254 771 q 236 846 254 831 q 171 868 218 861 q 167 910 167 888 q 169 943 167 921 q 357 939 253 939 q 549 943 453 939 q 535 868 546 896 q 474 848 494 861 q 444 810 454 835 q 425 732 435 785 l 333 200 q 326 140 326 161 q 344 91 326 104 q 408 71 361 78 q 413 24 413 50 q 411 -4 413 6 q 224 0 315 0 q 32 -4 111 0 q 47 71 35 40 q 106 87 86 76 q 135 122 125 97 q 156 199 146 146 l 249 742 m 438 1028 q 392 1022 422 1022 q 344 1028 361 1022 q 285 1111 322 1064 q 208 1200 247 1158 q 304 1214 257 1214 q 369 1207 335 1214 q 438 1028 393 1113 z "},"Ỉ":{"ha":521,"x_min":32,"x_max":549,"o":"m 249 742 q 254 796 254 771 q 236 846 254 831 q 171 868 218 861 q 167 910 167 888 q 169 943 167 921 q 357 939 253 939 q 549 943 453 939 q 535 868 546 896 q 474 848 494 861 q 444 810 454 835 q 425 732 435 785 l 333 200 q 326 140 326 161 q 344 91 326 104 q 408 71 361 78 q 413 24 413 50 q 411 -4 413 6 q 224 0 315 0 q 32 -4 111 0 q 47 71 35 40 q 106 87 86 76 q 135 122 125 97 q 156 199 146 146 l 249 742 m 332 1014 q 325 1043 325 1028 q 340 1086 325 1072 q 383 1117 354 1100 q 415 1135 403 1126 q 431 1156 426 1143 q 433 1167 433 1164 q 424 1182 433 1176 q 401 1188 415 1188 q 322 1106 346 1188 q 247 1126 268 1111 q 259 1167 254 1147 q 264 1207 264 1186 q 418 1243 336 1243 q 509 1224 478 1243 q 540 1171 540 1204 q 522 1120 540 1139 q 465 1079 503 1101 q 427 1056 440 1067 q 410 1032 414 1046 q 408 1023 410 1029 q 407 1008 406 1017 q 381 1007 400 1007 q 332 1014 349 1007 z "},"Ȋ":{"ha":521,"x_min":32,"x_max":594,"o":"m 249 742 q 254 796 254 771 q 236 846 254 831 q 171 868 218 861 q 167 910 167 888 q 169 943 167 921 q 357 939 253 939 q 549 943 453 939 q 535 868 546 896 q 474 848 494 861 q 444 810 454 835 q 425 732 435 785 l 333 200 q 326 140 326 161 q 344 91 326 104 q 408 71 361 78 q 413 24 413 50 q 411 -4 413 6 q 224 0 315 0 q 32 -4 111 0 q 47 71 35 40 q 106 87 86 76 q 135 122 125 97 q 156 199 146 146 l 249 742 m 419 1208 q 551 1168 507 1208 q 594 1053 594 1128 q 589 996 594 1022 q 561 993 572 993 q 515 1003 536 993 q 397 1101 508 1101 q 295 1069 338 1101 q 240 985 253 1036 q 182 1013 197 993 q 258 1158 199 1108 q 419 1208 318 1208 z "},"Ī":{"ha":521,"x_min":32,"x_max":593,"o":"m 181 1050 q 204 1129 183 1104 l 593 1129 q 574 1057 590 1086 q 181 1050 324 1057 m 249 742 q 254 796 254 771 q 236 846 254 831 q 171 868 218 861 q 167 910 167 888 q 169 943 167 921 q 357 939 253 939 q 549 943 453 939 q 535 868 546 896 q 474 848 494 861 q 444 810 454 835 q 425 732 435 785 l 333 200 q 326 140 326 161 q 344 91 326 104 q 408 71 361 78 q 413 24 413 50 q 411 -4 413 6 q 224 0 315 0 q 32 -4 111 0 q 47 71 35 40 q 106 87 86 76 q 135 122 125 97 q 156 199 146 146 l 249 742 z "},"Į":{"ha":521,"x_min":21,"x_max":549,"o":"m 357 939 q 549 943 453 939 q 535 868 546 896 q 474 848 494 861 q 444 810 454 835 q 425 732 435 785 l 333 200 q 326 140 326 161 q 344 91 326 104 q 408 71 361 78 q 413 24 413 50 q 411 -4 413 6 q 325 -1 353 -1 q 213 -74 249 -36 q 178 -150 178 -112 q 197 -195 178 -178 q 250 -212 215 -212 q 303 -203 278 -212 q 318 -269 321 -228 q 197 -343 249 -300 q 169 -346 188 -346 q 64 -315 107 -346 q 21 -222 21 -283 q 61 -105 21 -160 q 199 0 101 -50 q 32 -4 101 0 q 47 71 35 40 q 106 87 86 76 q 135 122 125 97 q 156 199 146 146 l 249 742 q 254 796 254 771 q 236 847 254 833 q 171 868 218 861 q 167 910 167 888 q 169 943 167 921 q 357 939 253 939 z "},"Ĩ":{"ha":521,"x_min":32,"x_max":613,"o":"m 451 1015 q 401 1023 419 1015 q 364 1044 382 1031 q 337 1061 349 1056 q 307 1067 325 1067 q 253 1054 281 1067 q 190 1018 225 1042 q 167 1081 165 1046 q 340 1186 251 1186 q 383 1179 367 1186 q 421 1158 399 1172 q 450 1142 439 1147 q 478 1136 461 1136 q 526 1149 500 1136 q 571 1182 551 1161 q 613 1128 606 1157 q 538 1042 576 1068 q 451 1015 500 1015 m 249 742 q 254 796 254 771 q 236 846 254 831 q 171 868 218 861 q 167 910 167 888 q 169 943 167 921 q 357 939 253 939 q 549 943 453 939 q 535 868 546 896 q 474 848 494 861 q 444 810 454 835 q 425 732 435 785 l 333 200 q 326 140 326 161 q 344 91 326 104 q 408 71 361 78 q 413 24 413 50 q 411 -4 413 6 q 224 0 315 0 q 32 -4 111 0 q 47 71 35 40 q 106 87 86 76 q 135 122 125 97 q 156 199 146 146 l 249 742 z "},"J":{"ha":461,"x_min":-106,"x_max":531,"o":"m 150 943 q 336 939 197 939 q 531 943 467 939 q 518 868 529 900 q 458 851 478 863 q 427 813 439 840 q 406 726 415 785 l 308 169 q 253 -49 285 36 q 144 -208 221 -133 q -76 -344 68 -283 q -106 -274 -103 -325 q 40 -136 -11 -214 q 113 69 90 -58 l 231 744 q 238 800 238 782 q 219 847 238 833 q 153 868 200 861 q 147 907 147 885 q 150 943 147 918 z "},"Ĵ":{"ha":461,"x_min":-106,"x_max":560,"o":"m 211 982 q 163 1051 171 1007 q 358 1213 239 1101 l 396 1214 q 432 1210 418 1214 q 560 1018 488 1124 q 522 999 546 1006 q 479 992 499 992 q 360 1089 422 1046 q 211 982 279 1038 m 150 943 q 336 939 197 939 q 531 943 467 939 q 518 868 529 900 q 458 851 478 863 q 427 813 439 840 q 406 726 415 785 l 308 169 q 253 -49 285 36 q 144 -208 221 -133 q -76 -344 68 -283 q -106 -274 -103 -325 q 40 -136 -11 -214 q 113 69 90 -58 l 231 744 q 238 800 238 782 q 219 847 238 833 q 153 868 200 861 q 147 907 147 885 q 150 943 147 918 z "},"K":{"ha":953,"x_min":32,"x_max":997,"o":"m 986 867 q 916 852 943 861 q 855 820 889 843 q 767 747 821 797 l 522 524 q 630 389 582 464 q 726 206 678 314 q 765 142 746 160 q 807 124 783 124 q 860 144 835 124 q 903 85 888 126 q 815 12 861 36 q 713 -12 769 -12 q 619 19 656 -12 q 557 124 583 50 q 475 311 518 232 q 378 457 432 390 l 333 199 q 326 135 326 154 q 341 91 326 104 q 394 71 356 78 q 399 24 399 50 q 397 -4 399 6 q 224 0 301 0 q 32 -4 111 0 q 47 71 35 40 q 107 88 88 76 q 137 126 126 100 q 157 208 147 153 l 249 742 q 254 796 254 771 q 236 846 254 831 q 171 868 218 861 q 167 910 167 888 q 169 943 167 921 q 357 939 253 939 q 549 943 453 939 q 535 868 546 896 q 474 848 494 861 q 444 810 454 835 q 425 732 435 785 l 386 507 l 644 744 q 705 806 686 782 q 724 843 724 829 q 689 868 724 860 q 683 922 683 901 q 685 943 683 936 q 843 939 740 939 q 997 943 950 939 q 986 867 997 896 z "},"Ǩ":{"ha":953,"x_min":32,"x_max":997,"o":"m 986 867 q 916 852 943 861 q 855 820 889 843 q 767 747 821 797 l 522 524 q 630 389 582 464 q 726 206 678 314 q 765 142 746 160 q 807 124 783 124 q 860 144 835 124 q 903 85 888 126 q 815 12 861 36 q 713 -12 769 -12 q 619 19 656 -12 q 557 124 583 50 q 475 311 518 232 q 378 457 432 390 l 333 199 q 326 135 326 154 q 341 91 326 104 q 394 71 356 78 q 399 24 399 50 q 397 -4 399 6 q 224 0 301 0 q 32 -4 111 0 q 47 71 35 40 q 107 88 88 76 q 137 126 126 100 q 157 208 147 153 l 249 742 q 254 796 254 771 q 236 846 254 831 q 171 868 218 861 q 167 910 167 888 q 169 943 167 921 q 357 939 253 939 q 549 943 453 939 q 535 868 546 896 q 474 848 494 861 q 444 810 454 835 q 425 732 435 785 l 386 507 l 644 744 q 705 806 686 782 q 724 843 724 829 q 689 868 724 860 q 683 922 683 901 q 685 943 683 936 q 843 939 740 939 q 997 943 950 939 q 986 867 997 896 m 588 1015 q 411 1181 513 1103 q 431 1217 418 1204 q 467 1233 443 1231 q 647 1143 563 1178 q 838 1231 740 1174 q 867 1211 854 1225 q 889 1179 881 1197 q 658 1025 754 1100 q 606 1014 632 1014 q 588 1015 593 1014 z "},"Ķ":{"ha":953,"x_min":32,"x_max":997,"o":"m 986 867 q 916 852 943 861 q 855 820 889 843 q 767 747 821 797 l 522 524 q 630 389 582 464 q 726 206 678 314 q 765 142 746 160 q 807 124 783 124 q 860 144 835 124 q 903 85 888 126 q 815 12 861 36 q 713 -12 769 -12 q 619 19 656 -12 q 557 124 583 50 q 475 311 518 232 q 378 457 432 390 l 333 199 q 326 135 326 154 q 341 91 326 104 q 394 71 356 78 q 399 24 399 50 q 397 -4 399 6 q 224 0 301 0 q 32 -4 111 0 q 47 71 35 40 q 107 88 88 76 q 137 126 126 100 q 157 208 147 153 l 249 742 q 254 796 254 771 q 236 846 254 831 q 171 868 218 861 q 167 910 167 888 q 169 943 167 921 q 357 939 253 939 q 549 943 453 939 q 535 868 546 896 q 474 848 494 861 q 444 810 454 835 q 425 732 435 785 l 386 507 l 644 744 q 705 806 686 782 q 724 843 724 829 q 689 868 724 860 q 683 922 683 901 q 685 943 683 936 q 843 939 740 939 q 997 943 950 939 q 986 867 997 896 m 392 -406 q 344 -367 357 -396 q 406 -303 383 -336 q 429 -243 429 -269 q 374 -199 429 -207 q 403 -99 371 -143 q 542 -57 486 -90 q 586 -128 586 -74 q 583 -157 586 -137 q 392 -406 560 -296 z "},"L":{"ha":800,"x_min":28,"x_max":771,"o":"m 28 -4 q 43 71 33 44 q 105 89 85 76 q 135 130 125 101 q 157 222 146 158 l 249 746 q 254 796 254 772 q 235 847 254 832 q 171 868 217 861 q 168 908 168 881 q 169 943 168 932 q 357 939 225 939 q 563 942 500 939 q 549 868 563 900 q 478 849 501 861 q 444 810 456 838 q 422 725 432 783 l 332 207 q 325 142 325 163 q 347 90 325 103 q 425 76 368 76 l 439 76 q 549 95 506 76 q 622 153 592 114 q 683 263 653 193 q 771 221 740 251 q 700 -4 726 129 q 403 0 635 0 q 28 -4 122 0 z "},"Ǉ":{"ha":1260,"x_min":28,"x_max":1331,"o":"m 28 -4 q 43 71 33 44 q 105 89 85 76 q 135 130 125 101 q 157 222 146 158 l 249 746 q 254 796 254 772 q 235 847 254 832 q 171 868 217 861 q 168 908 168 881 q 169 943 168 932 q 357 939 225 939 q 563 942 500 939 q 549 868 563 900 q 478 849 501 861 q 444 810 456 838 q 422 725 432 783 l 332 207 q 325 142 325 163 q 347 90 325 103 q 425 76 368 76 l 439 76 q 549 95 506 76 q 622 153 592 114 q 683 263 653 193 q 771 221 740 251 q 700 -4 726 129 q 403 0 635 0 q 28 -4 122 0 m 950 943 q 1136 939 997 939 q 1331 943 1267 939 q 1318 868 1329 900 q 1258 851 1278 863 q 1227 813 1239 840 q 1206 726 1215 785 l 1108 169 q 1053 -49 1085 36 q 944 -208 1021 -133 q 724 -344 868 -283 q 694 -274 697 -325 q 840 -136 789 -214 q 913 69 890 -58 l 1031 744 q 1038 800 1038 782 q 1019 847 1038 833 q 953 868 1000 861 q 947 907 947 885 q 950 943 947 918 z "},"Ĺ":{"ha":800,"x_min":28,"x_max":771,"o":"m 28 -4 q 43 71 33 44 q 105 89 85 76 q 135 130 125 101 q 157 222 146 158 l 249 746 q 254 796 254 772 q 235 847 254 832 q 171 868 217 861 q 168 908 168 881 q 169 943 168 932 q 357 939 225 939 q 563 942 500 939 q 549 868 563 900 q 478 849 501 861 q 444 810 456 838 q 422 725 432 783 l 332 207 q 325 142 325 163 q 347 90 325 103 q 425 76 368 76 l 439 76 q 549 95 506 76 q 622 153 592 114 q 683 263 653 193 q 771 221 740 251 q 700 -4 726 129 q 403 0 635 0 q 28 -4 122 0 m 376 1014 q 299 1044 333 1018 q 366 1135 335 1086 q 413 1219 397 1185 q 472 1224 444 1224 q 586 1203 544 1224 q 376 1014 461 1097 z "},"Ľ":{"ha":813,"x_min":28,"x_max":883,"o":"m 28 -4 q 43 71 33 44 q 105 89 85 76 q 135 130 125 101 q 157 222 146 158 l 249 746 q 254 796 254 772 q 235 847 254 832 q 171 868 217 861 q 168 908 168 881 q 169 943 168 932 q 357 939 225 939 q 563 942 500 939 q 549 868 563 900 q 478 849 501 861 q 444 810 456 838 q 422 725 432 783 l 332 207 q 325 142 325 163 q 347 90 325 103 q 425 76 368 76 l 439 76 q 549 95 506 76 q 622 153 592 114 q 683 263 653 193 q 771 221 740 251 q 700 -4 726 129 q 403 0 635 0 q 28 -4 122 0 m 719 607 q 660 644 678 611 q 743 782 743 726 q 674 846 743 832 q 681 903 674 874 q 703 954 689 933 q 778 968 739 956 q 844 997 817 981 q 883 913 883 976 q 876 854 883 889 q 719 607 850 713 z "},"Ļ":{"ha":800,"x_min":28,"x_max":771,"o":"m 28 -4 q 43 71 33 44 q 105 89 85 76 q 135 130 125 101 q 157 222 146 158 l 249 746 q 254 796 254 772 q 235 847 254 832 q 171 868 217 861 q 168 908 168 881 q 169 943 168 932 q 357 939 225 939 q 563 942 500 939 q 549 868 563 900 q 478 849 501 861 q 444 810 456 838 q 422 725 432 783 l 332 207 q 325 142 325 163 q 347 90 325 103 q 425 76 368 76 l 439 76 q 549 95 506 76 q 622 153 592 114 q 683 263 653 193 q 771 221 740 251 q 700 -4 726 129 q 403 0 635 0 q 28 -4 122 0 m 249 -406 q 201 -367 214 -396 q 263 -303 240 -336 q 286 -243 286 -269 q 231 -199 286 -207 q 260 -99 228 -143 q 399 -57 343 -90 q 443 -128 443 -74 q 440 -157 443 -137 q 249 -406 417 -296 z "},"Ŀ":{"ha":800,"x_min":28,"x_max":775,"o":"m 28 -4 q 43 71 33 44 q 105 89 85 76 q 135 130 125 101 q 157 222 146 158 l 249 746 q 254 796 254 772 q 235 847 254 832 q 171 868 217 861 q 168 908 168 881 q 169 943 168 932 q 357 939 225 939 q 563 942 500 939 q 549 868 563 900 q 478 849 501 861 q 444 810 456 838 q 422 725 432 783 l 332 207 q 325 142 325 163 q 347 90 325 103 q 425 76 368 76 l 439 76 q 549 95 506 76 q 622 153 592 114 q 683 263 653 193 q 771 221 740 251 q 700 -4 726 129 q 403 0 635 0 q 28 -4 122 0 m 690 414 q 633 433 654 414 q 611 488 611 453 q 614 511 611 494 q 643 562 619 543 q 701 581 667 581 q 753 560 732 581 q 775 504 775 539 q 753 438 775 463 q 690 414 731 414 z "},"Ḷ":{"ha":800,"x_min":28,"x_max":771,"o":"m 28 -4 q 43 71 33 44 q 105 89 85 76 q 135 130 125 101 q 157 222 146 158 l 249 746 q 254 796 254 772 q 235 847 254 832 q 171 868 217 861 q 168 908 168 881 q 169 943 168 932 q 357 939 225 939 q 563 942 500 939 q 549 868 563 900 q 478 849 501 861 q 444 810 456 838 q 422 725 432 783 l 332 207 q 325 142 325 163 q 347 90 325 103 q 425 76 368 76 l 439 76 q 549 95 506 76 q 622 153 592 114 q 683 263 653 193 q 771 221 740 251 q 700 -4 726 129 q 403 0 635 0 q 28 -4 122 0 m 315 -311 q 251 -290 274 -311 q 228 -233 228 -269 q 229 -214 228 -221 q 267 -144 238 -169 q 340 -118 297 -118 q 403 -138 379 -118 q 428 -196 428 -158 q 397 -279 428 -247 q 315 -311 365 -311 z "},"ǈ":{"ha":1157,"x_min":28,"x_max":1181,"o":"m 28 -4 q 43 71 33 44 q 105 89 85 76 q 135 130 125 101 q 157 222 146 158 l 249 746 q 254 796 254 772 q 235 847 254 832 q 171 868 217 861 q 168 908 168 881 q 169 943 168 932 q 357 939 225 939 q 563 942 500 939 q 549 868 563 900 q 478 849 501 861 q 444 810 456 838 q 422 725 432 783 l 332 207 q 325 142 325 163 q 347 90 325 103 q 425 76 368 76 l 439 76 q 549 95 506 76 q 622 153 592 114 q 683 263 653 193 q 771 221 740 251 q 700 -4 726 129 q 403 0 635 0 q 28 -4 122 0 m 1060 771 q 1001 792 1022 771 q 981 847 981 813 q 982 868 981 861 q 1022 940 990 914 q 1100 965 1053 965 q 1158 944 1136 965 q 1181 888 1181 922 q 1147 802 1181 833 q 1060 771 1114 771 m 672 -344 q 644 -278 644 -321 q 790 -133 736 -217 q 865 71 844 -50 l 928 414 q 935 471 935 453 q 917 512 935 501 q 851 522 900 522 q 864 592 851 563 q 975 611 913 594 q 1078 649 1038 628 q 1112 617 1101 633 q 1122 568 1122 600 q 1110 469 1122 535 l 1046 125 q 983 -79 1024 6 q 868 -230 943 -164 q 672 -344 793 -296 z "},"Ḻ":{"ha":800,"x_min":28,"x_max":771,"o":"m 28 -4 q 43 71 33 44 q 105 89 85 76 q 135 130 125 101 q 157 222 146 158 l 249 746 q 254 796 254 772 q 235 847 254 832 q 171 868 217 861 q 168 908 168 881 q 169 943 168 932 q 357 939 225 939 q 563 942 500 939 q 549 868 563 900 q 478 849 501 861 q 444 810 456 838 q 422 725 432 783 l 332 207 q 325 142 325 163 q 347 90 325 103 q 425 76 368 76 l 439 76 q 549 95 506 76 q 622 153 592 114 q 683 263 653 193 q 771 221 740 251 q 700 -4 726 129 q 403 0 635 0 q 28 -4 122 0 m 78 -246 q 81 -208 78 -229 q 90 -174 83 -186 l 579 -174 q 567 -240 579 -210 q 78 -246 279 -240 z "},"Ł":{"ha":800,"x_min":28,"x_max":771,"o":"m 683 263 q 771 221 740 251 q 700 -4 726 129 q 403 0 635 0 q 28 -4 122 0 q 43 71 33 44 q 103 88 83 75 q 135 131 124 101 q 157 222 146 160 l 179 346 l 107 283 q 80 318 90 297 q 69 358 69 339 l 201 472 l 249 746 q 254 797 254 774 q 236 847 254 832 q 171 868 218 861 q 168 908 168 881 q 169 943 168 932 q 357 939 225 939 q 563 942 500 939 q 549 868 563 900 q 478 849 501 861 q 444 810 456 838 q 422 725 432 783 l 403 614 l 494 694 q 520 663 510 685 q 531 622 531 642 l 382 492 l 332 207 q 324 140 324 165 q 345 90 324 104 q 425 76 367 76 l 439 76 q 549 95 506 76 q 622 153 592 114 q 683 263 653 193 z "},"M":{"ha":1268,"x_min":-42,"x_max":1263,"o":"m 1150 711 q 1117 243 1133 401 q 1113 172 1113 201 q 1128 99 1113 119 q 1185 71 1144 79 q 1189 28 1189 53 q 1188 -4 1189 7 q 994 0 1138 0 q 803 -4 860 0 q 817 71 803 38 q 887 94 864 78 q 920 143 910 110 q 938 244 931 176 q 969 692 960 471 q 572 -6 785 340 q 500 -12 547 -12 q 304 704 424 318 q 196 283 254 501 q 171 150 171 194 q 190 97 171 114 q 251 71 208 79 q 256 28 256 50 q 254 -4 256 6 q 111 0 203 0 q -42 -4 15 0 q -28 71 -42 38 q 29 100 8 81 q 67 158 50 119 q 108 275 85 197 q 233 744 186 533 q 243 808 243 790 q 226 851 243 839 q 167 868 208 864 q 163 908 163 889 q 165 943 163 918 q 297 939 210 939 q 428 943 382 939 q 621 229 536 593 q 1017 943 832 583 q 1140 939 1069 939 q 1263 943 1217 939 q 1250 868 1263 904 q 1192 848 1213 863 q 1163 801 1172 833 q 1150 711 1154 769 z "},"Ṃ":{"ha":1268,"x_min":-42,"x_max":1263,"o":"m 1150 711 q 1117 243 1133 401 q 1113 172 1113 201 q 1128 99 1113 119 q 1185 71 1144 79 q 1189 28 1189 53 q 1188 -4 1189 7 q 994 0 1138 0 q 803 -4 860 0 q 817 71 803 38 q 887 94 864 78 q 920 143 910 110 q 938 244 931 176 q 969 692 960 471 q 572 -6 785 340 q 500 -12 547 -12 q 304 704 424 318 q 196 283 254 501 q 171 150 171 194 q 190 97 171 114 q 251 71 208 79 q 256 28 256 50 q 254 -4 256 6 q 111 0 203 0 q -42 -4 15 0 q -28 71 -42 38 q 29 100 8 81 q 67 158 50 119 q 108 275 85 197 q 233 744 186 533 q 243 808 243 790 q 226 851 243 839 q 167 868 208 864 q 163 908 163 889 q 165 943 163 918 q 297 939 210 939 q 428 943 382 939 q 621 229 536 593 q 1017 943 832 583 q 1140 939 1069 939 q 1263 943 1217 939 q 1250 868 1263 904 q 1192 848 1213 863 q 1163 801 1172 833 q 1150 711 1154 769 m 475 -311 q 410 -290 433 -311 q 388 -233 388 -269 q 389 -214 388 -221 q 427 -144 397 -169 q 500 -118 457 -118 q 563 -138 539 -118 q 588 -196 588 -158 q 556 -279 588 -247 q 475 -311 525 -311 z "},"N":{"ha":954,"x_min":25,"x_max":1025,"o":"m 876 939 q 1025 943 981 939 q 1010 868 1022 900 q 956 837 975 858 q 924 777 936 815 q 900 665 913 739 l 783 -3 q 704 -12 757 -12 q 325 701 536 324 l 249 269 q 236 168 236 206 q 256 101 236 122 q 325 71 276 81 q 329 29 329 53 q 328 -4 329 7 q 172 0 269 0 q 25 -4 86 0 q 39 71 28 40 q 100 97 78 79 q 138 152 122 115 q 165 260 153 189 l 263 811 l 256 824 q 226 857 242 849 q 171 868 210 865 q 167 906 167 888 q 169 943 167 918 q 282 939 224 939 q 399 943 350 939 q 753 283 576 635 l 818 675 q 829 771 829 738 q 810 837 829 817 q 739 868 790 857 q 736 908 736 881 q 738 943 736 931 q 876 939 785 939 z "},"Ǌ":{"ha":1356,"x_min":25,"x_max":1424,"o":"m 876 939 q 1025 943 981 939 q 1010 868 1022 900 q 956 837 975 858 q 924 777 936 815 q 900 665 913 739 l 783 -3 q 704 -12 757 -12 q 325 701 536 324 l 249 269 q 236 168 236 206 q 256 101 236 122 q 325 71 276 81 q 329 29 329 53 q 328 -4 329 7 q 172 0 269 0 q 25 -4 86 0 q 39 71 28 40 q 100 97 78 79 q 138 152 122 115 q 165 260 153 189 l 263 811 l 256 824 q 226 857 242 849 q 171 868 210 865 q 167 906 167 888 q 169 943 167 918 q 282 939 224 939 q 399 943 350 939 q 753 283 576 635 l 818 675 q 829 771 829 738 q 810 837 829 817 q 739 868 790 857 q 736 908 736 881 q 738 943 736 931 q 876 939 785 939 m 1043 943 q 1229 939 1090 939 q 1424 943 1360 939 q 1411 868 1422 900 q 1351 851 1371 863 q 1320 813 1332 840 q 1299 726 1308 785 l 1201 169 q 1146 -49 1178 36 q 1038 -208 1114 -133 q 817 -344 961 -283 q 788 -274 790 -325 q 933 -136 882 -214 q 1006 69 983 -58 l 1124 744 q 1131 800 1131 782 q 1112 847 1131 833 q 1046 868 1093 861 q 1040 907 1040 885 q 1043 943 1040 918 z "},"Ń":{"ha":954,"x_min":25,"x_max":1025,"o":"m 876 939 q 1025 943 981 939 q 1010 868 1022 900 q 956 837 975 858 q 924 777 936 815 q 900 665 913 739 l 783 -3 q 704 -12 757 -12 q 325 701 536 324 l 249 269 q 236 168 236 206 q 256 101 236 122 q 325 71 276 81 q 329 29 329 53 q 328 -4 329 7 q 172 0 269 0 q 25 -4 86 0 q 39 71 28 40 q 100 97 78 79 q 138 152 122 115 q 165 260 153 189 l 263 811 l 256 824 q 226 857 242 849 q 171 868 210 865 q 167 906 167 888 q 169 943 167 918 q 282 939 224 939 q 399 943 350 939 q 753 283 576 635 l 818 675 q 829 771 829 738 q 810 837 829 817 q 739 868 790 857 q 736 908 736 881 q 738 943 736 931 q 876 939 785 939 m 611 1014 q 533 1044 568 1018 q 601 1135 569 1086 q 647 1219 632 1185 q 707 1224 679 1224 q 821 1203 779 1224 q 611 1014 696 1097 z "},"Ň":{"ha":954,"x_min":25,"x_max":1025,"o":"m 876 939 q 1025 943 981 939 q 1010 868 1022 900 q 956 837 975 858 q 924 777 936 815 q 900 665 913 739 l 783 -3 q 704 -12 757 -12 q 325 701 536 324 l 249 269 q 236 168 236 206 q 256 101 236 122 q 325 71 276 81 q 329 29 329 53 q 328 -4 329 7 q 172 0 269 0 q 25 -4 86 0 q 39 71 28 40 q 100 97 78 79 q 138 152 122 115 q 165 260 153 189 l 263 811 l 256 824 q 226 857 242 849 q 171 868 210 865 q 167 906 167 888 q 169 943 167 918 q 282 939 224 939 q 399 943 350 939 q 753 283 576 635 l 818 675 q 829 771 829 738 q 810 837 829 817 q 739 868 790 857 q 736 908 736 881 q 738 943 736 931 q 876 939 785 939 m 579 1015 q 403 1181 504 1103 q 422 1217 410 1204 q 458 1233 435 1231 q 639 1143 554 1178 q 829 1231 732 1174 q 859 1211 846 1225 q 881 1179 872 1197 q 650 1025 746 1100 q 597 1014 624 1014 q 579 1015 585 1014 z "},"Ņ":{"ha":954,"x_min":25,"x_max":1025,"o":"m 876 939 q 1025 943 981 939 q 1010 868 1022 900 q 956 837 975 858 q 924 777 936 815 q 900 665 913 739 l 783 -3 q 704 -12 757 -12 q 325 701 536 324 l 249 269 q 236 168 236 206 q 256 101 236 122 q 325 71 276 81 q 329 29 329 53 q 328 -4 329 7 q 172 0 269 0 q 25 -4 86 0 q 39 71 28 40 q 100 97 78 79 q 138 152 122 115 q 165 260 153 189 l 263 811 l 256 824 q 226 857 242 849 q 171 868 210 865 q 167 906 167 888 q 169 943 167 918 q 282 939 224 939 q 399 943 350 939 q 753 283 576 635 l 818 675 q 829 771 829 738 q 810 837 829 817 q 739 868 790 857 q 736 908 736 881 q 738 943 736 931 q 876 939 785 939 m 356 -406 q 308 -367 321 -396 q 370 -303 347 -336 q 393 -243 393 -269 q 338 -199 393 -207 q 367 -99 335 -143 q 506 -57 450 -90 q 550 -128 550 -74 q 547 -157 550 -137 q 356 -406 524 -296 z "},"Ṅ":{"ha":954,"x_min":25,"x_max":1025,"o":"m 876 939 q 1025 943 981 939 q 1010 868 1022 900 q 956 837 975 858 q 924 777 936 815 q 900 665 913 739 l 783 -3 q 704 -12 757 -12 q 325 701 536 324 l 249 269 q 236 168 236 206 q 256 101 236 122 q 325 71 276 81 q 329 29 329 53 q 328 -4 329 7 q 172 0 269 0 q 25 -4 86 0 q 39 71 28 40 q 100 97 78 79 q 138 152 122 115 q 165 260 153 189 l 263 811 l 256 824 q 226 857 242 849 q 171 868 210 865 q 167 906 167 888 q 169 943 167 918 q 282 939 224 939 q 399 943 350 939 q 753 283 576 635 l 818 675 q 829 771 829 738 q 810 837 829 817 q 739 868 790 857 q 736 908 736 881 q 738 943 736 931 q 876 939 785 939 m 618 999 q 557 1020 579 999 q 535 1078 535 1042 q 567 1152 535 1125 q 649 1179 599 1179 q 710 1158 688 1179 q 733 1101 733 1138 q 703 1026 733 1053 q 618 999 672 999 z "},"Ṇ":{"ha":954,"x_min":25,"x_max":1025,"o":"m 876 939 q 1025 943 981 939 q 1010 868 1022 900 q 956 837 975 858 q 924 777 936 815 q 900 665 913 739 l 783 -3 q 704 -12 757 -12 q 325 701 536 324 l 249 269 q 236 168 236 206 q 256 101 236 122 q 325 71 276 81 q 329 29 329 53 q 328 -4 329 7 q 172 0 269 0 q 25 -4 86 0 q 39 71 28 40 q 100 97 78 79 q 138 152 122 115 q 165 260 153 189 l 263 811 l 256 824 q 226 857 242 849 q 171 868 210 865 q 167 906 167 888 q 169 943 167 918 q 282 939 224 939 q 399 943 350 939 q 753 283 576 635 l 818 675 q 829 771 829 738 q 810 837 829 817 q 739 868 790 857 q 736 908 736 881 q 738 943 736 931 q 876 939 785 939 m 424 -311 q 359 -290 382 -311 q 336 -233 336 -269 q 338 -214 336 -221 q 376 -144 346 -169 q 449 -118 406 -118 q 512 -138 488 -118 q 536 -196 536 -158 q 505 -279 536 -247 q 424 -311 474 -311 z "},"Ŋ":{"ha":919,"x_min":103,"x_max":939,"o":"m 774 947 q 889 897 839 947 q 939 725 939 846 q 918 558 939 657 l 817 103 q 734 -112 792 -8 q 599 -281 676 -217 q 439 -346 521 -346 q 368 -330 399 -346 q 319 -287 338 -314 q 347 -178 319 -231 q 395 -192 368 -187 q 443 -197 422 -197 q 538 -172 504 -197 q 589 -97 571 -146 q 626 47 607 -49 l 732 550 q 753 701 753 654 q 686 801 753 801 q 556 732 628 801 q 422 540 483 663 q 332 267 360 418 l 282 0 l 103 0 l 225 658 q 239 760 239 735 q 221 803 239 793 q 150 813 203 813 q 163 883 150 861 q 285 908 211 888 q 404 949 358 928 q 433 924 425 939 q 442 882 442 908 q 439 839 442 856 q 404 683 429 763 q 360 564 379 604 l 360 560 l 393 631 q 488 772 424 697 q 630 897 553 846 q 774 947 707 947 z "},"Ɲ":{"ha":1013,"x_min":-258,"x_max":1086,"o":"m 949 939 q 1086 943 1032 939 q 1064 868 1079 903 q 1010 848 1031 865 q 973 790 989 831 q 942 669 957 749 l 811 -4 q 731 -12 781 -12 l 325 706 l 204 79 q 130 -141 181 -44 q 8 -292 79 -237 q -144 -346 -62 -346 q -214 -333 -186 -346 q -257 -300 -242 -319 q -249 -242 -258 -278 q -228 -183 -240 -207 q -124 -197 -169 -197 q 33 -133 -26 -197 q 119 68 93 -69 l 265 813 l 257 826 q 229 856 244 849 q 175 868 214 864 q 181 943 174 900 q 310 939 226 939 q 424 943 379 939 l 786 289 l 861 669 q 876 782 876 754 q 858 845 876 824 q 794 868 839 867 q 801 943 797 918 q 949 939 861 939 z "},"ǋ":{"ha":1311,"x_min":25,"x_max":1335,"o":"m 876 939 q 1025 943 981 939 q 1010 868 1022 900 q 956 837 975 858 q 924 777 936 815 q 900 665 913 739 l 783 -3 q 704 -12 757 -12 q 325 701 536 324 l 249 269 q 236 168 236 206 q 256 101 236 122 q 325 71 276 81 q 329 29 329 53 q 328 -4 329 7 q 172 0 269 0 q 25 -4 86 0 q 39 71 28 40 q 100 97 78 79 q 138 152 122 115 q 165 260 153 189 l 263 811 l 256 824 q 226 857 242 849 q 171 868 210 865 q 167 906 167 888 q 169 943 167 918 q 282 939 224 939 q 399 943 350 939 q 753 283 576 635 l 818 675 q 829 771 829 738 q 810 837 829 817 q 739 868 790 857 q 736 908 736 881 q 738 943 736 931 q 876 939 785 939 m 1214 771 q 1156 792 1176 771 q 1135 847 1135 813 q 1136 868 1135 861 q 1176 940 1144 914 q 1254 965 1207 965 q 1313 944 1290 965 q 1335 888 1335 922 q 1301 802 1335 833 q 1214 771 1268 771 m 826 -344 q 799 -278 799 -321 q 944 -133 890 -217 q 1019 71 999 -50 l 1082 414 q 1089 471 1089 453 q 1072 512 1089 501 q 1006 522 1054 522 q 1018 592 1006 563 q 1129 611 1067 594 q 1232 649 1192 628 q 1266 617 1256 633 q 1276 568 1276 600 q 1264 469 1276 535 l 1200 125 q 1138 -79 1178 6 q 1022 -230 1097 -164 q 826 -344 947 -296 z "},"Ṉ":{"ha":954,"x_min":25,"x_max":1025,"o":"m 876 939 q 1025 943 981 939 q 1010 868 1022 900 q 956 837 975 858 q 924 777 936 815 q 900 665 913 739 l 783 -3 q 704 -12 757 -12 q 325 701 536 324 l 249 269 q 236 168 236 206 q 256 101 236 122 q 325 71 276 81 q 329 29 329 53 q 328 -4 329 7 q 172 0 269 0 q 25 -4 86 0 q 39 71 28 40 q 100 97 78 79 q 138 152 122 115 q 165 260 153 189 l 263 811 l 256 824 q 226 857 242 849 q 171 868 210 865 q 167 906 167 888 q 169 943 167 918 q 282 939 224 939 q 399 943 350 939 q 753 283 576 635 l 818 675 q 829 771 829 738 q 810 837 829 817 q 739 868 790 857 q 736 908 736 881 q 738 943 736 931 q 876 939 785 939 m 185 -246 q 188 -208 185 -229 q 197 -174 190 -186 l 686 -174 q 674 -240 686 -210 q 185 -246 386 -240 z "},"Ñ":{"ha":954,"x_min":25,"x_max":1025,"o":"m 876 939 q 1025 943 981 939 q 1010 868 1022 900 q 956 837 975 858 q 924 777 936 815 q 900 665 913 739 l 783 -3 q 704 -12 757 -12 q 325 701 536 324 l 249 269 q 236 168 236 206 q 256 101 236 122 q 325 71 276 81 q 329 29 329 53 q 328 -4 329 7 q 172 0 269 0 q 25 -4 86 0 q 39 71 28 40 q 100 97 78 79 q 138 152 122 115 q 165 260 153 189 l 263 811 l 256 824 q 226 857 242 849 q 171 868 210 865 q 167 906 167 888 q 169 943 167 918 q 282 939 224 939 q 399 943 350 939 q 753 283 576 635 l 818 675 q 829 771 829 738 q 810 837 829 817 q 739 868 790 857 q 736 908 736 881 q 738 943 736 931 q 876 939 785 939 m 704 1033 q 653 1041 675 1033 q 603 1063 631 1049 q 560 1082 575 1076 q 525 1088 544 1088 q 411 1036 472 1088 q 392 1113 388 1067 q 574 1194 475 1194 q 625 1187 603 1194 q 678 1165 647 1179 q 751 1142 722 1142 q 842 1189 792 1142 q 890 1144 878 1172 q 704 1033 807 1033 z "},"O":{"ha":1029,"x_min":75,"x_max":1015,"o":"m 478 -12 q 265 37 356 -12 q 124 177 174 86 q 75 389 75 268 q 88 511 75 447 q 186 739 111 639 q 372 895 261 839 q 610 951 482 951 q 821 906 729 951 q 964 771 913 860 q 1015 557 1015 682 q 1001 426 1015 503 q 904 201 976 300 q 721 44 832 101 q 478 -12 610 -12 m 500 64 q 701 166 618 64 q 815 435 785 268 q 826 556 826 492 q 797 723 826 650 q 713 836 767 796 q 586 876 658 876 q 449 830 513 876 q 341 702 386 783 q 276 518 296 621 q 263 381 263 450 q 324 151 263 239 q 500 64 386 64 z "},"Ó":{"ha":1029,"x_min":75,"x_max":1015,"o":"m 478 -12 q 265 37 356 -12 q 124 177 174 86 q 75 389 75 268 q 88 511 75 447 q 186 739 111 639 q 372 895 261 839 q 610 951 482 951 q 821 906 729 951 q 964 771 913 860 q 1015 557 1015 682 q 1001 426 1015 503 q 904 201 976 300 q 721 44 832 101 q 478 -12 610 -12 m 500 64 q 701 166 618 64 q 815 435 785 268 q 826 556 826 492 q 797 723 826 650 q 713 836 767 796 q 586 876 658 876 q 449 830 513 876 q 341 702 386 783 q 276 518 296 621 q 263 381 263 450 q 324 151 263 239 q 500 64 386 64 m 625 1014 q 547 1044 582 1018 q 615 1135 583 1086 q 661 1219 646 1185 q 721 1224 693 1224 q 835 1203 793 1224 q 625 1014 710 1097 z "},"Ŏ":{"ha":1029,"x_min":75,"x_max":1015,"o":"m 478 -12 q 265 37 356 -12 q 124 177 174 86 q 75 389 75 268 q 88 511 75 447 q 186 739 111 639 q 372 895 261 839 q 610 951 482 951 q 821 906 729 951 q 964 771 913 860 q 1015 557 1015 682 q 1001 426 1015 503 q 904 201 976 300 q 721 44 832 101 q 478 -12 610 -12 m 500 64 q 701 166 618 64 q 815 435 785 268 q 826 556 826 492 q 797 723 826 650 q 713 836 767 796 q 586 876 658 876 q 449 830 513 876 q 341 702 386 783 q 276 518 296 621 q 263 381 263 450 q 324 151 263 239 q 500 64 386 64 m 617 1010 q 462 1049 515 1010 q 408 1161 408 1088 q 413 1206 408 1183 q 501 1218 456 1222 q 540 1142 500 1169 q 650 1115 579 1115 q 767 1142 719 1115 q 829 1218 815 1169 q 851 1219 836 1219 q 900 1210 878 1219 q 809 1061 882 1113 q 617 1010 736 1010 z "},"Ǒ":{"ha":1029,"x_min":75,"x_max":1015,"o":"m 478 -12 q 265 37 356 -12 q 124 177 174 86 q 75 389 75 268 q 88 511 75 447 q 186 739 111 639 q 372 895 261 839 q 610 951 482 951 q 821 906 729 951 q 964 771 913 860 q 1015 557 1015 682 q 1001 426 1015 503 q 904 201 976 300 q 721 44 832 101 q 478 -12 610 -12 m 500 64 q 701 166 618 64 q 815 435 785 268 q 826 556 826 492 q 797 723 826 650 q 713 836 767 796 q 586 876 658 876 q 449 830 513 876 q 341 702 386 783 q 276 518 296 621 q 263 381 263 450 q 324 151 263 239 q 500 64 386 64 m 593 1015 q 417 1181 518 1103 q 436 1217 424 1204 q 472 1233 449 1231 q 653 1143 568 1178 q 843 1231 746 1174 q 873 1211 860 1225 q 894 1179 886 1197 q 664 1025 760 1100 q 611 1014 638 1014 q 593 1015 599 1014 z "},"Ô":{"ha":1029,"x_min":75,"x_max":1015,"o":"m 478 -12 q 265 37 356 -12 q 124 177 174 86 q 75 389 75 268 q 88 511 75 447 q 186 739 111 639 q 372 895 261 839 q 610 951 482 951 q 821 906 729 951 q 964 771 913 860 q 1015 557 1015 682 q 1001 426 1015 503 q 904 201 976 300 q 721 44 832 101 q 478 -12 610 -12 m 500 64 q 701 166 618 64 q 815 435 785 268 q 826 556 826 492 q 797 723 826 650 q 713 836 767 796 q 586 876 658 876 q 449 830 513 876 q 341 702 386 783 q 276 518 296 621 q 263 381 263 450 q 324 151 263 239 q 500 64 386 64 m 463 1008 q 435 1039 446 1018 q 425 1078 425 1060 q 649 1225 519 1126 q 672 1226 657 1226 q 724 1218 699 1226 q 849 1088 765 1168 l 886 1050 q 860 1028 878 1036 q 821 1017 842 1019 q 651 1103 731 1074 q 553 1057 606 1085 q 488 1022 500 1029 l 463 1008 z "},"Ố":{"ha":1029,"x_min":75,"x_max":1063,"o":"m 478 -12 q 265 37 356 -12 q 124 177 174 86 q 75 389 75 268 q 88 511 75 447 q 186 739 111 639 q 372 895 261 839 q 610 951 482 951 q 821 906 729 951 q 964 771 913 860 q 1015 557 1015 682 q 1001 426 1015 503 q 904 201 976 300 q 721 44 832 101 q 478 -12 610 -12 m 500 64 q 701 166 618 64 q 815 435 785 268 q 826 556 826 492 q 797 723 826 650 q 713 836 767 796 q 586 876 658 876 q 449 830 513 876 q 341 702 386 783 q 276 518 296 621 q 263 381 263 450 q 324 151 263 239 q 500 64 386 64 m 874 1188 q 804 1215 833 1192 q 865 1298 838 1254 q 906 1372 893 1342 q 961 1376 935 1376 q 1063 1358 1022 1376 q 874 1188 969 1281 m 461 1008 q 434 1039 444 1018 q 424 1078 424 1060 q 649 1225 518 1126 q 671 1226 656 1226 q 722 1218 697 1226 q 886 1050 768 1165 q 859 1028 876 1036 q 819 1017 842 1019 q 650 1103 726 1075 q 501 1029 594 1081 l 461 1008 z "},"Ộ":{"ha":1029,"x_min":75,"x_max":1015,"o":"m 478 -12 q 265 37 356 -12 q 124 177 174 86 q 75 389 75 268 q 88 511 75 447 q 186 739 111 639 q 372 895 261 839 q 610 951 482 951 q 821 906 729 951 q 964 771 913 860 q 1015 557 1015 682 q 1001 426 1015 503 q 904 201 976 300 q 721 44 832 101 q 478 -12 610 -12 m 500 64 q 701 166 618 64 q 815 435 785 268 q 826 556 826 492 q 797 723 826 650 q 713 836 767 796 q 586 876 658 876 q 449 830 513 876 q 341 702 386 783 q 276 518 296 621 q 263 381 263 450 q 324 151 263 239 q 500 64 386 64 m 428 -311 q 363 -290 386 -311 q 340 -233 340 -269 q 342 -214 340 -221 q 380 -144 350 -169 q 453 -118 410 -118 q 516 -138 492 -118 q 540 -196 540 -158 q 509 -279 540 -247 q 428 -311 478 -311 m 463 1008 q 435 1039 446 1018 q 425 1078 425 1060 q 649 1225 519 1126 q 672 1226 657 1226 q 724 1218 699 1226 q 849 1088 765 1168 l 886 1050 q 860 1028 878 1036 q 821 1017 842 1019 q 651 1103 731 1074 q 553 1057 606 1085 q 488 1022 500 1029 l 463 1008 z "},"Ồ":{"ha":1029,"x_min":75,"x_max":1015,"o":"m 478 -12 q 265 37 356 -12 q 124 177 174 86 q 75 389 75 268 q 88 511 75 447 q 186 739 111 639 q 372 895 261 839 q 610 951 482 951 q 821 906 729 951 q 964 771 913 860 q 1015 557 1015 682 q 1001 426 1015 503 q 904 201 976 300 q 721 44 832 101 q 478 -12 610 -12 m 500 64 q 701 166 618 64 q 815 435 785 268 q 826 556 826 492 q 797 723 826 650 q 713 836 767 796 q 586 876 658 876 q 449 830 513 876 q 341 702 386 783 q 276 518 296 621 q 263 381 263 450 q 324 151 263 239 q 500 64 386 64 z "},"Ổ":{"ha":1029,"x_min":75,"x_max":1025,"o":"m 478 -12 q 265 37 356 -12 q 124 177 174 86 q 75 389 75 268 q 88 511 75 447 q 186 739 111 639 q 372 895 261 839 q 610 951 482 951 q 821 906 729 951 q 964 771 913 860 q 1015 557 1015 682 q 1001 426 1015 503 q 904 201 976 300 q 721 44 832 101 q 478 -12 610 -12 m 500 64 q 701 166 618 64 q 815 435 785 268 q 826 556 826 492 q 797 723 826 650 q 713 836 767 796 q 586 876 658 876 q 449 830 513 876 q 341 702 386 783 q 276 518 296 621 q 263 381 263 450 q 324 151 263 239 q 500 64 386 64 z "},"Ỗ":{"ha":1029,"x_min":75,"x_max":1015,"o":"m 478 -12 q 265 37 356 -12 q 124 177 174 86 q 75 389 75 268 q 88 511 75 447 q 186 739 111 639 q 372 895 261 839 q 610 951 482 951 q 821 906 729 951 q 964 771 913 860 q 1015 557 1015 682 q 1001 426 1015 503 q 904 201 976 300 q 721 44 832 101 q 478 -12 610 -12 m 500 64 q 701 166 618 64 q 815 435 785 268 q 826 556 826 492 q 797 723 826 650 q 713 836 767 796 q 586 876 658 876 q 449 830 513 876 q 341 702 386 783 q 276 518 296 621 q 263 381 263 450 q 324 151 263 239 q 500 64 386 64 m 463 1008 q 435 1039 446 1018 q 425 1078 425 1060 q 649 1225 519 1126 q 672 1226 657 1226 q 724 1218 699 1226 q 849 1088 765 1168 l 886 1050 q 860 1028 878 1036 q 821 1017 842 1019 q 651 1103 731 1074 q 553 1057 606 1085 q 488 1022 500 1029 l 463 1008 m 774 1294 q 722 1302 744 1294 q 672 1324 700 1310 q 629 1343 644 1338 q 594 1349 614 1349 q 481 1297 542 1349 q 461 1374 457 1328 q 643 1456 544 1456 q 694 1448 672 1456 q 747 1426 717 1440 q 821 1403 792 1403 q 911 1450 861 1403 q 960 1406 947 1433 q 774 1294 876 1294 z "},"Ȍ":{"ha":1029,"x_min":75,"x_max":1015,"o":"m 478 -12 q 265 37 356 -12 q 124 177 174 86 q 75 389 75 268 q 88 511 75 447 q 186 739 111 639 q 372 895 261 839 q 610 951 482 951 q 821 906 729 951 q 964 771 913 860 q 1015 557 1015 682 q 1001 426 1015 503 q 904 201 976 300 q 721 44 832 101 q 478 -12 610 -12 m 500 64 q 701 166 618 64 q 815 435 785 268 q 826 556 826 492 q 797 723 826 650 q 713 836 767 796 q 586 876 658 876 q 449 830 513 876 q 341 702 386 783 q 276 518 296 621 q 263 381 263 450 q 324 151 263 239 q 500 64 386 64 m 521 1007 q 396 1182 450 1114 q 482 1196 432 1196 q 543 1190 504 1196 q 600 1004 574 1068 q 572 1001 581 1001 q 521 1007 560 1001 m 751 1007 q 631 1183 685 1113 q 714 1196 665 1196 q 774 1190 735 1196 l 783 1156 q 831 1004 810 1056 q 803 1001 811 1001 q 751 1007 790 1001 z "},"Ö":{"ha":1029,"x_min":75,"x_max":1015,"o":"m 478 -12 q 265 37 356 -12 q 124 177 174 86 q 75 389 75 268 q 88 511 75 447 q 186 739 111 639 q 372 895 261 839 q 610 951 482 951 q 821 906 729 951 q 964 771 913 860 q 1015 557 1015 682 q 1001 426 1015 503 q 904 201 976 300 q 721 44 832 101 q 478 -12 610 -12 m 500 64 q 701 166 618 64 q 815 435 785 268 q 826 556 826 492 q 797 723 826 650 q 713 836 767 796 q 586 876 658 876 q 449 830 513 876 q 341 702 386 783 q 276 518 296 621 q 263 381 263 450 q 324 151 263 239 q 500 64 386 64 m 500 1011 q 439 1034 461 1011 q 417 1096 417 1057 q 440 1165 417 1140 q 508 1189 464 1189 q 570 1168 547 1189 q 593 1113 593 1147 q 590 1089 593 1106 q 560 1031 583 1051 q 500 1011 536 1011 m 790 1011 q 728 1033 750 1011 q 706 1093 706 1056 q 730 1165 706 1140 q 801 1189 754 1189 q 862 1167 840 1189 q 883 1110 883 1146 q 859 1037 883 1063 q 790 1011 835 1011 z "},"Ȫ":{"ha":1029,"x_min":75,"x_max":1015,"o":"m 478 -12 q 265 37 356 -12 q 124 177 174 86 q 75 389 75 268 q 88 511 75 447 q 186 739 111 639 q 372 895 261 839 q 610 951 482 951 q 821 906 729 951 q 964 771 913 860 q 1015 557 1015 682 q 1001 426 1015 503 q 904 201 976 300 q 721 44 832 101 q 478 -12 610 -12 m 500 64 q 701 166 618 64 q 815 435 785 268 q 826 556 826 492 q 797 723 826 650 q 713 836 767 796 q 586 876 658 876 q 449 830 513 876 q 341 702 386 783 q 276 518 296 621 q 263 381 263 450 q 324 151 263 239 q 500 64 386 64 m 500 1011 q 439 1034 461 1011 q 417 1096 417 1057 q 440 1165 417 1140 q 508 1189 464 1189 q 570 1168 547 1189 q 593 1113 593 1147 q 590 1089 593 1106 q 560 1031 583 1051 q 500 1011 536 1011 m 790 1011 q 728 1033 750 1011 q 706 1093 706 1056 q 730 1165 706 1140 q 801 1189 754 1189 q 862 1167 840 1189 q 883 1110 883 1146 q 859 1037 883 1063 q 790 1011 835 1011 m 433 1282 q 436 1320 433 1299 q 446 1354 439 1342 l 935 1354 q 922 1288 935 1318 q 433 1282 635 1288 z "},"Ȱ":{"ha":1029,"x_min":75,"x_max":1015,"o":"m 478 -12 q 265 37 356 -12 q 124 177 174 86 q 75 389 75 268 q 88 511 75 447 q 186 739 111 639 q 372 895 261 839 q 610 951 482 951 q 821 906 729 951 q 964 771 913 860 q 1015 557 1015 682 q 1001 426 1015 503 q 904 201 976 300 q 721 44 832 101 q 478 -12 610 -12 m 500 64 q 701 166 618 64 q 815 435 785 268 q 826 556 826 492 q 797 723 826 650 q 713 836 767 796 q 586 876 658 876 q 449 830 513 876 q 341 702 386 783 q 276 518 296 621 q 263 381 263 450 q 324 151 263 239 q 500 64 386 64 m 632 999 q 571 1020 593 999 q 549 1078 549 1042 q 581 1152 549 1125 q 663 1179 613 1179 q 724 1158 701 1179 q 747 1101 747 1138 q 717 1026 747 1053 q 632 999 686 999 m 442 1246 q 444 1284 442 1263 q 454 1318 447 1306 l 943 1318 q 931 1251 943 1282 q 442 1246 643 1251 z "},"Ọ":{"ha":1029,"x_min":75,"x_max":1015,"o":"m 478 -12 q 265 37 356 -12 q 124 177 174 86 q 75 389 75 268 q 88 511 75 447 q 186 739 111 639 q 372 895 261 839 q 610 951 482 951 q 821 906 729 951 q 964 771 913 860 q 1015 557 1015 682 q 1001 426 1015 503 q 904 201 976 300 q 721 44 832 101 q 478 -12 610 -12 m 500 64 q 701 166 618 64 q 815 435 785 268 q 826 556 826 492 q 797 723 826 650 q 713 836 767 796 q 586 876 658 876 q 449 830 513 876 q 341 702 386 783 q 276 518 296 621 q 263 381 263 450 q 324 151 263 239 q 500 64 386 64 m 428 -311 q 363 -290 386 -311 q 340 -233 340 -269 q 342 -214 340 -221 q 380 -144 350 -169 q 453 -118 410 -118 q 516 -138 492 -118 q 540 -196 540 -158 q 509 -279 540 -247 q 428 -311 478 -311 z "},"Ò":{"ha":1029,"x_min":75,"x_max":1015,"o":"m 478 -12 q 265 37 356 -12 q 124 177 174 86 q 75 389 75 268 q 88 511 75 447 q 186 739 111 639 q 372 895 261 839 q 610 951 482 951 q 821 906 729 951 q 964 771 913 860 q 1015 557 1015 682 q 1001 426 1015 503 q 904 201 976 300 q 721 44 832 101 q 478 -12 610 -12 m 500 64 q 701 166 618 64 q 815 435 785 268 q 826 556 826 492 q 797 723 826 650 q 713 836 767 796 q 586 876 658 876 q 449 830 513 876 q 341 702 386 783 q 276 518 296 621 q 263 381 263 450 q 324 151 263 239 q 500 64 386 64 m 700 1028 q 654 1022 685 1022 q 607 1028 624 1022 q 547 1111 585 1064 q 471 1200 510 1158 q 567 1214 519 1214 q 632 1207 597 1214 q 700 1028 656 1113 z "},"Ỏ":{"ha":1029,"x_min":75,"x_max":1015,"o":"m 478 -12 q 265 37 356 -12 q 124 177 174 86 q 75 389 75 268 q 88 511 75 447 q 186 739 111 639 q 372 895 261 839 q 610 951 482 951 q 821 906 729 951 q 964 771 913 860 q 1015 557 1015 682 q 1001 426 1015 503 q 904 201 976 300 q 721 44 832 101 q 478 -12 610 -12 m 500 64 q 701 166 618 64 q 815 435 785 268 q 826 556 826 492 q 797 723 826 650 q 713 836 767 796 q 586 876 658 876 q 449 830 513 876 q 341 702 386 783 q 276 518 296 621 q 263 381 263 450 q 324 151 263 239 q 500 64 386 64 m 593 1014 q 586 1043 586 1028 q 601 1086 586 1072 q 644 1117 615 1100 q 676 1135 664 1126 q 692 1156 688 1143 q 694 1167 694 1164 q 685 1182 694 1176 q 663 1188 676 1188 q 583 1106 607 1188 q 508 1126 529 1111 q 520 1167 515 1147 q 525 1207 525 1186 q 679 1243 597 1243 q 770 1224 739 1243 q 801 1171 801 1204 q 783 1120 801 1139 q 726 1079 764 1101 q 688 1056 701 1067 q 671 1032 675 1046 q 669 1023 671 1029 q 668 1008 667 1017 q 642 1007 661 1007 q 593 1014 610 1007 z "},"Ơ":{"ha":1029,"x_min":75,"x_max":1053,"o":"m 1053 1028 q 1005 917 1053 960 q 881 867 957 875 q 980 737 944 815 q 1015 557 1015 658 q 1001 426 1015 494 q 904 201 976 300 q 721 44 832 101 q 478 -12 610 -12 q 265 37 356 -12 q 124 177 174 86 q 75 389 75 268 q 88 511 75 447 q 186 739 111 639 q 372 895 261 839 q 610 951 482 951 l 654 951 l 654 951 q 814 935 753 935 q 892 951 867 935 q 925 1008 917 968 q 929 1049 929 1029 q 925 1090 929 1068 q 976 1103 946 1099 q 1029 1106 1006 1107 q 1053 1028 1053 1074 m 815 435 q 826 556 826 492 q 797 723 826 650 q 713 836 767 796 q 586 876 658 876 q 449 830 513 876 q 341 702 386 783 q 276 518 296 621 q 263 381 263 450 q 324 151 263 239 q 500 64 386 64 q 701 166 618 64 q 815 435 785 268 z "},"Ớ":{"ha":1029,"x_min":75,"x_max":1053,"o":"m 1053 1028 q 1005 917 1053 960 q 881 867 957 875 q 980 737 944 815 q 1015 557 1015 658 q 1001 426 1015 494 q 904 201 976 300 q 721 44 832 101 q 478 -12 610 -12 q 265 37 356 -12 q 124 177 174 86 q 75 389 75 268 q 88 511 75 447 q 186 739 111 639 q 372 895 261 839 q 610 951 482 951 l 654 951 l 654 951 q 814 935 753 935 q 892 951 867 935 q 925 1008 917 968 q 929 1049 929 1029 q 925 1090 929 1068 q 976 1103 946 1099 q 1029 1106 1006 1107 q 1053 1028 1053 1074 m 815 435 q 826 556 826 492 q 797 723 826 650 q 713 836 767 796 q 586 876 658 876 q 449 830 513 876 q 341 702 386 783 q 276 518 296 621 q 263 381 263 450 q 324 151 263 239 q 500 64 386 64 q 701 166 618 64 q 815 435 785 268 m 625 1014 q 547 1044 582 1018 q 615 1135 583 1086 q 661 1219 646 1185 q 721 1224 693 1224 q 835 1203 793 1224 q 625 1014 710 1097 z "},"Ợ":{"ha":1029,"x_min":75,"x_max":1053,"o":"m 1053 1028 q 1005 917 1053 960 q 881 867 957 875 q 980 737 944 815 q 1015 557 1015 658 q 1001 426 1015 494 q 904 201 976 300 q 721 44 832 101 q 478 -12 610 -12 q 265 37 356 -12 q 124 177 174 86 q 75 389 75 268 q 88 511 75 447 q 186 739 111 639 q 372 895 261 839 q 610 951 482 951 l 654 951 l 654 951 q 814 935 753 935 q 892 951 867 935 q 925 1008 917 968 q 929 1049 929 1029 q 925 1090 929 1068 q 976 1103 946 1099 q 1029 1106 1006 1107 q 1053 1028 1053 1074 m 815 435 q 826 556 826 492 q 797 723 826 650 q 713 836 767 796 q 586 876 658 876 q 449 830 513 876 q 341 702 386 783 q 276 518 296 621 q 263 381 263 450 q 324 151 263 239 q 500 64 386 64 q 701 166 618 64 q 815 435 785 268 m 428 -311 q 363 -290 386 -311 q 340 -233 340 -269 q 342 -214 340 -221 q 380 -144 350 -169 q 453 -118 410 -118 q 516 -138 492 -118 q 540 -196 540 -158 q 509 -279 540 -247 q 428 -311 478 -311 z "},"Ờ":{"ha":1029,"x_min":75,"x_max":1053,"o":"m 1053 1028 q 1005 917 1053 960 q 881 867 957 875 q 980 737 944 815 q 1015 557 1015 658 q 1001 426 1015 494 q 904 201 976 300 q 721 44 832 101 q 478 -12 610 -12 q 265 37 356 -12 q 124 177 174 86 q 75 389 75 268 q 88 511 75 447 q 186 739 111 639 q 372 895 261 839 q 610 951 482 951 l 654 951 l 654 951 q 814 935 753 935 q 892 951 867 935 q 925 1008 917 968 q 929 1049 929 1029 q 925 1090 929 1068 q 976 1103 946 1099 q 1029 1106 1006 1107 q 1053 1028 1053 1074 m 815 435 q 826 556 826 492 q 797 723 826 650 q 713 836 767 796 q 586 876 658 876 q 449 830 513 876 q 341 702 386 783 q 276 518 296 621 q 263 381 263 450 q 324 151 263 239 q 500 64 386 64 q 701 166 618 64 q 815 435 785 268 m 700 1028 q 654 1022 685 1022 q 607 1028 624 1022 q 547 1111 585 1064 q 471 1200 510 1158 q 567 1214 519 1214 q 632 1207 597 1214 q 700 1028 656 1113 z "},"Ở":{"ha":1029,"x_min":75,"x_max":1053,"o":"m 1053 1028 q 1005 917 1053 960 q 881 867 957 875 q 980 737 944 815 q 1015 557 1015 658 q 1001 426 1015 494 q 904 201 976 300 q 721 44 832 101 q 478 -12 610 -12 q 265 37 356 -12 q 124 177 174 86 q 75 389 75 268 q 88 511 75 447 q 186 739 111 639 q 372 895 261 839 q 610 951 482 951 l 654 951 l 654 951 q 814 935 753 935 q 892 951 867 935 q 925 1008 917 968 q 929 1049 929 1029 q 925 1090 929 1068 q 976 1103 946 1099 q 1029 1106 1006 1107 q 1053 1028 1053 1074 m 815 435 q 826 556 826 492 q 797 723 826 650 q 713 836 767 796 q 586 876 658 876 q 449 830 513 876 q 341 702 386 783 q 276 518 296 621 q 263 381 263 450 q 324 151 263 239 q 500 64 386 64 q 701 166 618 64 q 815 435 785 268 m 593 1014 q 586 1043 586 1028 q 601 1086 586 1072 q 644 1117 615 1100 q 676 1135 664 1126 q 692 1156 688 1143 q 694 1167 694 1164 q 685 1182 694 1176 q 663 1188 676 1188 q 583 1106 607 1188 q 508 1126 529 1111 q 520 1167 515 1147 q 525 1207 525 1186 q 679 1243 597 1243 q 770 1224 739 1243 q 801 1171 801 1204 q 783 1120 801 1139 q 726 1079 764 1101 q 688 1056 701 1067 q 671 1032 675 1046 q 669 1023 671 1029 q 668 1008 667 1017 q 642 1007 661 1007 q 593 1014 610 1007 z "},"Ỡ":{"ha":1029,"x_min":75,"x_max":1053,"o":"m 1053 1028 q 1005 917 1053 960 q 881 867 957 875 q 980 737 944 815 q 1015 557 1015 658 q 1001 426 1015 494 q 904 201 976 300 q 721 44 832 101 q 478 -12 610 -12 q 265 37 356 -12 q 124 177 174 86 q 75 389 75 268 q 88 511 75 447 q 186 739 111 639 q 372 895 261 839 q 610 951 482 951 l 654 951 l 654 951 q 814 935 753 935 q 892 951 867 935 q 925 1008 917 968 q 929 1049 929 1029 q 925 1090 929 1068 q 976 1103 946 1099 q 1029 1106 1006 1107 q 1053 1028 1053 1074 m 815 435 q 826 556 826 492 q 797 723 826 650 q 713 836 767 796 q 586 876 658 876 q 449 830 513 876 q 341 702 386 783 q 276 518 296 621 q 263 381 263 450 q 324 151 263 239 q 500 64 386 64 q 701 166 618 64 q 815 435 785 268 m 718 1033 q 667 1041 689 1033 q 617 1063 644 1049 q 574 1082 589 1076 q 539 1088 558 1088 q 425 1036 486 1088 q 406 1113 401 1067 q 588 1194 489 1194 q 639 1187 617 1194 q 692 1165 661 1179 q 765 1142 736 1142 q 856 1189 806 1142 q 904 1144 892 1172 q 718 1033 821 1033 z "},"Ő":{"ha":1029,"x_min":75,"x_max":1015,"o":"m 478 -12 q 265 37 356 -12 q 124 177 174 86 q 75 389 75 268 q 88 511 75 447 q 186 739 111 639 q 372 895 261 839 q 610 951 482 951 q 821 906 729 951 q 964 771 913 860 q 1015 557 1015 682 q 1001 426 1015 503 q 904 201 976 300 q 721 44 832 101 q 478 -12 610 -12 m 500 64 q 701 166 618 64 q 815 435 785 268 q 826 556 826 492 q 797 723 826 650 q 713 836 767 796 q 586 876 658 876 q 449 830 513 876 q 341 702 386 783 q 276 518 296 621 q 263 381 263 450 q 324 151 263 239 q 500 64 386 64 m 544 1021 q 467 1051 504 1022 q 533 1140 503 1092 q 579 1222 563 1188 q 639 1226 610 1226 q 753 1206 711 1226 q 544 1021 624 1096 m 785 1021 q 707 1051 744 1022 q 773 1140 743 1092 q 819 1222 803 1188 q 879 1226 851 1226 q 993 1206 951 1226 q 785 1021 881 1113 z "},"Ȏ":{"ha":1029,"x_min":75,"x_max":1015,"o":"m 478 -12 q 265 37 356 -12 q 124 177 174 86 q 75 389 75 268 q 88 511 75 447 q 186 739 111 639 q 372 895 261 839 q 610 951 482 951 q 821 906 729 951 q 964 771 913 860 q 1015 557 1015 682 q 1001 426 1015 503 q 904 201 976 300 q 721 44 832 101 q 478 -12 610 -12 m 500 64 q 701 166 618 64 q 815 435 785 268 q 826 556 826 492 q 797 723 826 650 q 713 836 767 796 q 586 876 658 876 q 449 830 513 876 q 341 702 386 783 q 276 518 296 621 q 263 381 263 450 q 324 151 263 239 q 500 64 386 64 m 688 1211 q 842 1172 789 1211 q 896 1060 896 1133 q 892 1015 896 1039 q 824 1001 857 1001 q 803 1003 810 1001 q 765 1077 804 1050 q 654 1104 725 1104 q 537 1077 585 1104 q 475 1003 489 1050 q 450 1001 467 1001 q 404 1010 421 1001 q 495 1159 422 1107 q 688 1211 568 1211 z "},"Ō":{"ha":1029,"x_min":75,"x_max":1015,"o":"m 478 -12 q 265 37 356 -12 q 124 177 174 86 q 75 389 75 268 q 88 511 75 447 q 186 739 111 639 q 372 895 261 839 q 610 951 482 951 q 821 906 729 951 q 964 771 913 860 q 1015 557 1015 682 q 1001 426 1015 503 q 904 201 976 300 q 721 44 832 101 q 478 -12 610 -12 m 500 64 q 701 166 618 64 q 815 435 785 268 q 826 556 826 492 q 797 723 826 650 q 713 836 767 796 q 586 876 658 876 q 449 830 513 876 q 341 702 386 783 q 276 518 296 621 q 263 381 263 450 q 324 151 263 239 q 500 64 386 64 m 399 1061 q 401 1099 399 1078 q 411 1133 404 1121 l 900 1133 q 888 1067 900 1097 q 399 1061 600 1067 z "},"Ṓ":{"ha":1029,"x_min":75,"x_max":1015,"o":"m 478 -12 q 265 37 356 -12 q 124 177 174 86 q 75 389 75 268 q 88 511 75 447 q 186 739 111 639 q 372 895 261 839 q 610 951 482 951 q 821 906 729 951 q 964 771 913 860 q 1015 557 1015 682 q 1001 426 1015 503 q 904 201 976 300 q 721 44 832 101 q 478 -12 610 -12 m 500 64 q 701 166 618 64 q 815 435 785 268 q 826 556 826 492 q 797 723 826 650 q 713 836 767 796 q 586 876 658 876 q 449 830 513 876 q 341 702 386 783 q 276 518 296 621 q 263 381 263 450 q 324 151 263 239 q 500 64 386 64 m 399 1061 q 401 1099 399 1078 q 411 1133 404 1121 l 900 1133 q 888 1067 900 1097 q 399 1061 600 1067 m 663 1208 q 585 1239 619 1213 q 652 1330 621 1281 q 699 1414 683 1379 q 758 1418 731 1418 q 872 1397 831 1418 q 663 1208 747 1292 z "},"Ṑ":{"ha":1029,"x_min":75,"x_max":1015,"o":"m 478 -12 q 265 37 356 -12 q 124 177 174 86 q 75 389 75 268 q 88 511 75 447 q 186 739 111 639 q 372 895 261 839 q 610 951 482 951 q 821 906 729 951 q 964 771 913 860 q 1015 557 1015 682 q 1001 426 1015 503 q 904 201 976 300 q 721 44 832 101 q 478 -12 610 -12 m 500 64 q 701 166 618 64 q 815 435 785 268 q 826 556 826 492 q 797 723 826 650 q 713 836 767 796 q 586 876 658 876 q 449 830 513 876 q 341 702 386 783 q 276 518 296 621 q 263 381 263 450 q 324 151 263 239 q 500 64 386 64 m 399 1061 q 401 1099 399 1078 q 411 1133 404 1121 l 900 1133 q 888 1067 900 1097 q 399 1061 600 1067 m 738 1222 q 692 1217 722 1217 q 644 1222 661 1217 q 585 1306 622 1258 q 508 1394 547 1353 q 604 1408 557 1408 q 669 1401 635 1408 q 738 1222 693 1307 z "},"Ǫ":{"ha":1029,"x_min":75,"x_max":1015,"o":"m 610 951 q 821 905 729 951 q 964 769 913 858 q 1015 557 1015 681 q 1001 426 1015 492 q 897 190 976 294 q 699 33 817 86 l 700 33 q 690 31 694 31 l 671 22 q 569 -53 606 -6 q 532 -149 532 -101 q 550 -197 532 -179 q 601 -215 568 -215 q 646 -203 628 -215 q 676 -267 672 -226 q 563 -346 611 -299 q 532 -349 543 -349 q 418 -318 461 -349 q 375 -225 375 -287 q 494 -12 375 -106 l 478 -12 q 265 37 356 -12 q 124 177 174 86 q 75 389 75 268 q 88 511 75 447 q 186 739 111 639 q 372 895 261 839 q 610 951 482 951 m 815 435 q 826 556 826 492 q 797 723 826 650 q 713 836 767 796 q 586 876 658 876 q 449 830 513 876 q 341 702 386 783 q 276 518 296 621 q 263 381 263 450 q 324 151 263 239 q 500 64 386 64 q 701 166 618 64 q 815 435 785 268 z "},"Ø":{"ha":1029,"x_min":74,"x_max":1015,"o":"m 925 824 q 1014 557 1014 722 q 1001 428 1014 497 q 906 203 978 303 q 722 45 833 103 q 478 -12 611 -12 q 221 65 325 -12 l 153 -12 q 103 -1 125 -12 q 74 29 81 11 l 161 122 q 75 389 75 228 q 88 510 75 446 q 185 739 111 639 q 370 895 260 839 q 610 951 481 951 q 864 879 763 951 l 932 951 q 982 942 960 951 q 1015 915 1004 932 l 925 824 m 276 518 q 263 382 263 450 q 279 250 263 308 l 769 776 q 586 876 701 876 q 449 830 513 876 q 341 702 386 783 q 276 518 296 621 m 815 433 q 826 556 826 490 q 806 700 826 636 q 313 168 586 474 q 500 64 376 64 q 701 166 618 64 q 815 433 785 268 z "},"Ǿ":{"ha":1029,"x_min":74,"x_max":1015,"o":"m 925 824 q 1014 557 1014 722 q 1001 428 1014 497 q 906 203 978 303 q 722 45 833 103 q 478 -12 611 -12 q 221 65 325 -12 l 153 -12 q 103 -1 125 -12 q 74 29 81 11 l 161 122 q 75 389 75 228 q 88 510 75 446 q 185 739 111 639 q 370 895 260 839 q 610 951 481 951 q 864 879 763 951 l 932 951 q 982 942 960 951 q 1015 915 1004 932 l 925 824 m 276 518 q 263 382 263 450 q 279 250 263 308 l 769 776 q 586 876 701 876 q 449 830 513 876 q 341 702 386 783 q 276 518 296 621 m 815 433 q 826 556 826 490 q 806 700 826 636 q 313 168 586 474 q 500 64 376 64 q 701 166 618 64 q 815 433 785 268 m 618 1014 q 540 1044 575 1018 q 608 1135 576 1086 q 654 1219 639 1185 q 714 1224 686 1224 q 828 1203 786 1224 q 618 1014 703 1097 z "},"Õ":{"ha":1029,"x_min":75,"x_max":1015,"o":"m 478 -12 q 265 37 356 -12 q 124 177 174 86 q 75 389 75 268 q 88 511 75 447 q 186 739 111 639 q 372 895 261 839 q 610 951 482 951 q 821 906 729 951 q 964 771 913 860 q 1015 557 1015 682 q 1001 426 1015 503 q 904 201 976 300 q 721 44 832 101 q 478 -12 610 -12 m 500 64 q 701 166 618 64 q 815 435 785 268 q 826 556 826 492 q 797 723 826 650 q 713 836 767 796 q 586 876 658 876 q 449 830 513 876 q 341 702 386 783 q 276 518 296 621 q 263 381 263 450 q 324 151 263 239 q 500 64 386 64 m 718 1033 q 667 1041 689 1033 q 617 1063 644 1049 q 574 1082 589 1076 q 539 1088 558 1088 q 425 1036 486 1088 q 406 1113 401 1067 q 588 1194 489 1194 q 639 1187 617 1194 q 692 1165 661 1179 q 765 1142 736 1142 q 856 1189 806 1142 q 904 1144 892 1172 q 718 1033 821 1033 z "},"Ṍ":{"ha":1029,"x_min":75,"x_max":1015,"o":"m 478 -12 q 265 37 356 -12 q 124 177 174 86 q 75 389 75 268 q 88 511 75 447 q 186 739 111 639 q 372 895 261 839 q 610 951 482 951 q 821 906 729 951 q 964 771 913 860 q 1015 557 1015 682 q 1001 426 1015 503 q 904 201 976 300 q 721 44 832 101 q 478 -12 610 -12 m 500 64 q 701 166 618 64 q 815 435 785 268 q 826 556 826 492 q 797 723 826 650 q 713 836 767 796 q 586 876 658 876 q 449 830 513 876 q 341 702 386 783 q 276 518 296 621 q 263 381 263 450 q 324 151 263 239 q 500 64 386 64 m 718 1033 q 667 1041 689 1033 q 617 1063 644 1049 q 574 1082 589 1076 q 539 1088 558 1088 q 425 1036 486 1088 q 406 1113 401 1067 q 588 1194 489 1194 q 639 1187 617 1194 q 692 1165 661 1179 q 765 1142 736 1142 q 856 1189 806 1142 q 904 1144 892 1172 q 718 1033 821 1033 m 672 1261 q 594 1292 629 1265 q 662 1383 631 1333 q 708 1467 693 1432 q 768 1471 740 1471 q 882 1450 840 1471 q 672 1261 757 1344 z "},"Ṏ":{"ha":1029,"x_min":75,"x_max":1015,"o":"m 478 -12 q 265 37 356 -12 q 124 177 174 86 q 75 389 75 268 q 88 511 75 447 q 186 739 111 639 q 372 895 261 839 q 610 951 482 951 q 821 906 729 951 q 964 771 913 860 q 1015 557 1015 682 q 1001 426 1015 503 q 904 201 976 300 q 721 44 832 101 q 478 -12 610 -12 m 500 64 q 701 166 618 64 q 815 435 785 268 q 826 556 826 492 q 797 723 826 650 q 713 836 767 796 q 586 876 658 876 q 449 830 513 876 q 341 702 386 783 q 276 518 296 621 q 263 381 263 450 q 324 151 263 239 q 500 64 386 64 m 718 1033 q 667 1041 689 1033 q 617 1063 644 1049 q 574 1082 589 1076 q 539 1088 558 1088 q 425 1036 486 1088 q 406 1113 401 1067 q 588 1194 489 1194 q 639 1187 617 1194 q 692 1165 661 1179 q 765 1142 736 1142 q 856 1189 806 1142 q 904 1144 892 1172 q 718 1033 821 1033 m 547 1258 q 486 1281 508 1258 q 464 1343 464 1304 q 488 1412 464 1388 q 556 1436 511 1436 q 617 1415 594 1436 q 640 1360 640 1394 q 638 1336 640 1353 q 607 1278 631 1299 q 547 1258 583 1258 m 838 1258 q 775 1281 797 1258 q 753 1340 753 1303 q 777 1412 753 1388 q 849 1436 801 1436 q 909 1415 888 1436 q 931 1357 931 1393 q 906 1284 931 1310 q 838 1258 882 1258 z "},"Ȭ":{"ha":1029,"x_min":75,"x_max":1015,"o":"m 478 -12 q 265 37 356 -12 q 124 177 174 86 q 75 389 75 268 q 88 511 75 447 q 186 739 111 639 q 372 895 261 839 q 610 951 482 951 q 821 906 729 951 q 964 771 913 860 q 1015 557 1015 682 q 1001 426 1015 503 q 904 201 976 300 q 721 44 832 101 q 478 -12 610 -12 m 500 64 q 701 166 618 64 q 815 435 785 268 q 826 556 826 492 q 797 723 826 650 q 713 836 767 796 q 586 876 658 876 q 449 830 513 876 q 341 702 386 783 q 276 518 296 621 q 263 381 263 450 q 324 151 263 239 q 500 64 386 64 m 718 1033 q 667 1041 689 1033 q 617 1063 644 1049 q 574 1082 589 1076 q 539 1088 558 1088 q 425 1036 486 1088 q 406 1113 401 1067 q 588 1194 489 1194 q 639 1187 617 1194 q 692 1165 661 1179 q 765 1142 736 1142 q 856 1189 806 1142 q 904 1144 892 1172 q 718 1033 821 1033 m 446 1308 q 449 1347 446 1325 q 458 1381 451 1368 l 947 1381 q 935 1314 947 1344 q 446 1308 647 1314 z "},"Œ":{"ha":1375,"x_min":74,"x_max":1397,"o":"m 1296 696 q 1280 794 1293 760 q 1227 845 1267 828 q 1107 863 1188 863 l 871 863 q 958 739 928 814 q 988 571 988 664 q 985 514 988 553 l 1007 514 q 1119 535 1086 514 q 1163 621 1153 557 q 1214 626 1199 626 q 1249 624 1224 626 q 1218 461 1228 531 q 1203 304 1208 392 q 1121 324 1147 310 q 1099 412 1124 386 q 999 438 1074 438 l 972 438 q 971 428 972 431 q 895 225 947 315 q 765 76 843 135 l 1010 76 q 1126 96 1082 76 q 1197 153 1169 115 q 1256 260 1225 190 q 1328 225 1314 250 q 1307 149 1318 185 q 1271 -4 1281 47 q 943 0 1189 0 q 733 -6 867 0 q 483 -12 611 -12 l 479 -12 l 478 -12 l 472 -12 l 472 -12 q 256 42 346 -11 q 119 185 165 94 q 74 388 74 275 q 88 511 74 442 q 189 744 115 644 q 370 897 263 843 q 603 951 478 951 l 606 951 l 607 951 l 611 951 q 763 946 665 951 q 1033 939 925 939 q 1397 943 1293 939 q 1385 764 1385 846 q 1386 708 1385 726 q 1296 696 1351 696 m 796 435 q 808 568 808 506 q 749 794 808 711 q 586 876 690 876 q 390 776 472 876 q 276 518 308 676 q 263 379 263 449 q 323 151 263 239 q 496 64 383 64 q 690 165 613 64 q 796 435 767 265 z "},"P":{"ha":831,"x_min":32,"x_max":871,"o":"m 606 943 q 803 881 735 943 q 871 703 871 818 q 863 619 871 664 q 737 410 839 489 q 488 332 635 332 q 404 347 435 332 q 408 384 403 361 q 418 418 413 407 q 474 411 442 411 q 611 465 554 411 q 686 618 668 518 q 694 697 694 660 q 652 823 694 779 q 524 867 610 867 q 446 857 478 867 l 336 218 q 328 150 328 163 q 351 98 328 115 q 440 71 375 81 q 444 29 444 50 q 443 -4 444 8 q 243 0 372 0 q 32 -4 99 0 q 47 72 35 38 q 110 92 90 78 q 140 132 131 107 q 158 213 149 157 l 250 746 q 256 799 256 774 q 238 846 256 831 q 172 868 219 861 q 167 911 167 893 q 169 943 167 924 q 379 939 231 939 l 467 940 q 606 943 553 943 z "},"Þ":{"ha":853,"x_min":32,"x_max":840,"o":"m 567 753 q 774 694 707 753 q 840 538 840 635 q 835 481 840 519 q 774 345 822 407 q 649 246 726 283 q 474 208 571 208 q 381 228 408 208 q 397 294 381 268 q 454 288 418 288 q 585 334 529 288 q 660 478 642 381 q 665 531 665 514 q 622 641 665 601 q 494 681 579 681 q 414 669 457 681 l 333 200 q 328 149 328 158 q 351 93 328 108 q 439 71 375 78 q 444 26 444 43 q 442 -4 444 15 q 238 0 340 0 q 32 -4 118 0 q 47 71 35 40 q 106 87 86 76 q 135 122 125 97 q 156 199 146 146 l 249 742 q 254 796 254 771 q 236 847 254 833 q 171 868 218 861 q 167 910 167 888 q 169 943 167 921 q 357 939 253 939 q 549 943 453 939 q 535 868 546 896 q 478 852 497 863 q 449 819 460 842 q 428 751 438 797 l 567 753 z "},"Q":{"ha":1029,"x_min":75,"x_max":1040,"o":"m 999 -149 q 1024 -174 1013 -157 q 1040 -208 1036 -190 q 962 -276 1013 -249 q 853 -304 911 -304 q 741 -275 786 -304 q 660 -175 696 -246 q 576 -61 622 -101 q 458 -12 531 -21 l 460 -12 q 256 42 343 -8 q 122 183 169 93 q 75 389 75 272 q 88 511 75 447 q 186 739 111 639 q 372 895 261 839 q 610 951 482 951 q 821 905 729 951 q 964 769 913 858 q 1015 557 1015 681 q 1001 426 1015 492 q 878 167 974 278 q 642 13 782 56 q 740 -35 690 -3 q 849 -119 789 -68 q 903 -162 885 -151 q 944 -172 922 -172 q 999 -149 972 -172 m 276 518 q 263 381 263 450 q 324 151 263 239 q 500 64 386 64 q 701 166 618 64 q 815 435 785 268 q 826 556 826 492 q 797 723 826 650 q 713 836 767 796 q 586 876 658 876 q 449 830 513 876 q 341 702 386 783 q 276 518 296 621 z "},"R":{"ha":940,"x_min":32,"x_max":881,"o":"m 838 143 q 881 83 865 125 q 689 -12 797 -12 q 591 30 626 -12 q 526 171 556 72 q 478 303 503 250 q 421 403 453 356 q 368 404 383 403 l 332 194 q 325 132 325 150 q 339 90 325 103 q 392 71 353 78 q 394 -4 397 40 q 218 0 321 0 q 32 -4 89 0 q 47 71 35 39 q 106 88 86 76 q 136 127 125 100 q 157 213 147 154 l 250 746 q 256 796 256 772 q 237 846 256 831 q 171 868 218 861 q 167 907 167 888 q 169 943 167 918 q 368 939 238 939 q 481 942 400 939 q 592 944 558 944 q 800 887 724 944 q 876 728 876 829 q 871 676 876 713 q 781 515 853 579 q 585 425 708 450 q 645 342 618 389 q 704 217 672 296 q 786 122 742 122 q 838 143 813 122 m 382 489 q 431 486 400 486 q 600 537 533 486 q 683 678 667 588 q 689 731 689 704 q 649 833 689 799 q 540 868 610 868 q 446 854 488 868 l 382 489 z "},"Ŕ":{"ha":940,"x_min":32,"x_max":881,"o":"m 838 143 q 881 83 865 125 q 689 -12 797 -12 q 591 30 626 -12 q 526 171 556 72 q 478 303 503 250 q 421 403 453 356 q 368 404 383 403 l 332 194 q 325 132 325 150 q 339 90 325 103 q 392 71 353 78 q 394 -4 397 40 q 218 0 321 0 q 32 -4 89 0 q 47 71 35 39 q 106 88 86 76 q 136 127 125 100 q 157 213 147 154 l 250 746 q 256 796 256 772 q 237 846 256 831 q 171 868 218 861 q 167 907 167 888 q 169 943 167 918 q 368 939 238 939 q 481 942 400 939 q 592 944 558 944 q 800 887 724 944 q 876 728 876 829 q 871 676 876 713 q 781 515 853 579 q 585 425 708 450 q 645 342 618 389 q 704 217 672 296 q 786 122 742 122 q 838 143 813 122 m 382 489 q 431 486 400 486 q 600 537 533 486 q 683 678 667 588 q 689 731 689 704 q 649 833 689 799 q 540 868 610 868 q 446 854 488 868 l 382 489 m 546 1014 q 468 1044 503 1018 q 535 1135 504 1086 q 582 1219 567 1185 q 642 1224 614 1224 q 756 1203 714 1224 q 546 1014 631 1097 z "},"Ř":{"ha":940,"x_min":32,"x_max":881,"o":"m 838 143 q 881 83 865 125 q 689 -12 797 -12 q 591 30 626 -12 q 526 171 556 72 q 478 303 503 250 q 421 403 453 356 q 368 404 383 403 l 332 194 q 325 132 325 150 q 339 90 325 103 q 392 71 353 78 q 394 -4 397 40 q 218 0 321 0 q 32 -4 89 0 q 47 71 35 39 q 106 88 86 76 q 136 127 125 100 q 157 213 147 154 l 250 746 q 256 796 256 772 q 237 846 256 831 q 171 868 218 861 q 167 907 167 888 q 169 943 167 918 q 368 939 238 939 q 481 942 400 939 q 592 944 558 944 q 800 887 724 944 q 876 728 876 829 q 871 676 876 713 q 781 515 853 579 q 585 425 708 450 q 645 342 618 389 q 704 217 672 296 q 786 122 742 122 q 838 143 813 122 m 382 489 q 431 486 400 486 q 600 537 533 486 q 683 678 667 588 q 689 731 689 704 q 649 833 689 799 q 540 868 610 868 q 446 854 488 868 l 382 489 m 514 1015 q 338 1181 439 1103 q 357 1217 344 1204 q 393 1233 369 1231 q 574 1143 489 1178 q 764 1231 667 1174 q 794 1211 781 1225 q 815 1179 807 1197 q 585 1025 681 1100 q 532 1014 558 1014 q 514 1015 519 1014 z "},"Ŗ":{"ha":940,"x_min":32,"x_max":881,"o":"m 838 143 q 881 83 865 125 q 689 -12 797 -12 q 591 30 626 -12 q 526 171 556 72 q 478 303 503 250 q 421 403 453 356 q 368 404 383 403 l 332 194 q 325 132 325 150 q 339 90 325 103 q 392 71 353 78 q 394 -4 397 40 q 218 0 321 0 q 32 -4 89 0 q 47 71 35 39 q 106 88 86 76 q 136 127 125 100 q 157 213 147 154 l 250 746 q 256 796 256 772 q 237 846 256 831 q 171 868 218 861 q 167 907 167 888 q 169 943 167 918 q 368 939 238 939 q 481 942 400 939 q 592 944 558 944 q 800 887 724 944 q 876 728 876 829 q 871 676 876 713 q 781 515 853 579 q 585 425 708 450 q 645 342 618 389 q 704 217 672 296 q 786 122 742 122 q 838 143 813 122 m 382 489 q 431 486 400 486 q 600 537 533 486 q 683 678 667 588 q 689 731 689 704 q 649 833 689 799 q 540 868 610 868 q 446 854 488 868 l 382 489 m 358 -406 q 311 -367 324 -396 q 373 -303 350 -336 q 396 -243 396 -269 q 340 -199 396 -207 q 369 -99 338 -143 q 508 -57 453 -90 q 553 -128 553 -74 q 550 -157 553 -137 q 358 -406 526 -296 z "},"Ȑ":{"ha":940,"x_min":32,"x_max":881,"o":"m 838 143 q 881 83 865 125 q 689 -12 797 -12 q 591 30 626 -12 q 526 171 556 72 q 478 303 503 250 q 421 403 453 356 q 368 404 383 403 l 332 194 q 325 132 325 150 q 339 90 325 103 q 392 71 353 78 q 394 -4 397 40 q 218 0 321 0 q 32 -4 89 0 q 47 71 35 39 q 106 88 86 76 q 136 127 125 100 q 157 213 147 154 l 250 746 q 256 796 256 772 q 237 846 256 831 q 171 868 218 861 q 167 907 167 888 q 169 943 167 918 q 368 939 238 939 q 481 942 400 939 q 592 944 558 944 q 800 887 724 944 q 876 728 876 829 q 871 676 876 713 q 781 515 853 579 q 585 425 708 450 q 645 342 618 389 q 704 217 672 296 q 786 122 742 122 q 838 143 813 122 m 382 489 q 431 486 400 486 q 600 537 533 486 q 683 678 667 588 q 689 731 689 704 q 649 833 689 799 q 540 868 610 868 q 446 854 488 868 l 382 489 m 442 1007 q 317 1182 371 1114 q 403 1196 353 1196 q 464 1190 425 1196 q 521 1004 494 1068 q 493 1001 501 1001 q 442 1007 481 1001 m 672 1007 q 551 1183 606 1113 q 635 1196 586 1196 q 694 1190 656 1196 l 704 1156 q 751 1004 731 1056 q 724 1001 732 1001 q 672 1007 711 1001 z "},"Ṛ":{"ha":940,"x_min":32,"x_max":881,"o":"m 838 143 q 881 83 865 125 q 689 -12 797 -12 q 591 30 626 -12 q 526 171 556 72 q 478 303 503 250 q 421 403 453 356 q 368 404 383 403 l 332 194 q 325 132 325 150 q 339 90 325 103 q 392 71 353 78 q 394 -4 397 40 q 218 0 321 0 q 32 -4 89 0 q 47 71 35 39 q 106 88 86 76 q 136 127 125 100 q 157 213 147 154 l 250 746 q 256 796 256 772 q 237 846 256 831 q 171 868 218 861 q 167 907 167 888 q 169 943 167 918 q 368 939 238 939 q 481 942 400 939 q 592 944 558 944 q 800 887 724 944 q 876 728 876 829 q 871 676 876 713 q 781 515 853 579 q 585 425 708 450 q 645 342 618 389 q 704 217 672 296 q 786 122 742 122 q 838 143 813 122 m 382 489 q 431 486 400 486 q 600 537 533 486 q 683 678 667 588 q 689 731 689 704 q 649 833 689 799 q 540 868 610 868 q 446 854 488 868 l 382 489 m 425 -311 q 360 -290 383 -311 q 338 -233 338 -269 q 339 -214 338 -221 q 377 -144 347 -169 q 450 -118 407 -118 q 513 -138 489 -118 q 538 -196 538 -158 q 506 -279 538 -247 q 425 -311 475 -311 z "},"Ȓ":{"ha":940,"x_min":32,"x_max":881,"o":"m 838 143 q 881 83 865 125 q 689 -12 797 -12 q 591 30 626 -12 q 526 171 556 72 q 478 303 503 250 q 421 403 453 356 q 368 404 383 403 l 332 194 q 325 132 325 150 q 339 90 325 103 q 392 71 353 78 q 394 -4 397 40 q 218 0 321 0 q 32 -4 89 0 q 47 71 35 39 q 106 88 86 76 q 136 127 125 100 q 157 213 147 154 l 250 746 q 256 796 256 772 q 237 846 256 831 q 171 868 218 861 q 167 907 167 888 q 169 943 167 918 q 368 939 238 939 q 481 942 400 939 q 592 944 558 944 q 800 887 724 944 q 876 728 876 829 q 871 676 876 713 q 781 515 853 579 q 585 425 708 450 q 645 342 618 389 q 704 217 672 296 q 786 122 742 122 q 838 143 813 122 m 382 489 q 431 486 400 486 q 600 537 533 486 q 683 678 667 588 q 689 731 689 704 q 649 833 689 799 q 540 868 610 868 q 446 854 488 868 l 382 489 m 608 1211 q 763 1172 710 1211 q 817 1060 817 1133 q 813 1015 817 1039 q 744 1001 778 1001 q 724 1003 731 1001 q 685 1077 725 1050 q 575 1104 646 1104 q 458 1077 506 1104 q 396 1003 410 1050 q 371 1001 388 1001 q 325 1010 342 1001 q 416 1159 343 1107 q 608 1211 489 1211 z "},"Ṟ":{"ha":940,"x_min":32,"x_max":881,"o":"m 838 143 q 881 83 865 125 q 689 -12 797 -12 q 591 30 626 -12 q 526 171 556 72 q 478 303 503 250 q 421 403 453 356 q 368 404 383 403 l 332 194 q 325 132 325 150 q 339 90 325 103 q 392 71 353 78 q 394 -4 397 40 q 218 0 321 0 q 32 -4 89 0 q 47 71 35 39 q 106 88 86 76 q 136 127 125 100 q 157 213 147 154 l 250 746 q 256 796 256 772 q 237 846 256 831 q 171 868 218 861 q 167 907 167 888 q 169 943 167 918 q 368 939 238 939 q 481 942 400 939 q 592 944 558 944 q 800 887 724 944 q 876 728 876 829 q 871 676 876 713 q 781 515 853 579 q 585 425 708 450 q 645 342 618 389 q 704 217 672 296 q 786 122 742 122 q 838 143 813 122 m 382 489 q 431 486 400 486 q 600 537 533 486 q 683 678 667 588 q 689 731 689 704 q 649 833 689 799 q 540 868 610 868 q 446 854 488 868 l 382 489 m 188 -246 q 190 -208 188 -229 q 200 -174 193 -186 l 689 -174 q 676 -240 689 -210 q 188 -246 389 -240 z "},"S":{"ha":672,"x_min":-1,"x_max":663,"o":"m 292 -12 q 124 12 189 -12 q -1 88 60 36 q 43 288 35 196 q 103 296 79 296 q 147 290 129 296 q 146 247 146 275 q 183 112 146 154 q 306 69 221 69 q 413 111 369 69 q 457 215 457 153 q 437 287 457 256 q 388 342 417 318 q 307 401 358 367 q 206 478 244 444 q 140 561 167 511 q 113 676 113 611 q 118 736 113 708 q 221 894 136 838 q 435 951 306 951 q 567 933 508 951 q 663 885 626 915 q 647 694 647 782 q 578 683 619 683 q 546 685 557 683 q 510 828 544 785 q 411 872 475 872 q 268 760 286 872 q 267 739 267 753 q 304 649 267 688 q 421 558 342 611 q 530 479 489 513 q 600 396 571 446 q 629 281 629 346 q 624 226 629 265 q 565 101 611 156 q 447 17 518 47 q 292 -12 375 -12 z "},"Ś":{"ha":672,"x_min":-1,"x_max":663,"o":"m 292 -12 q 124 12 189 -12 q -1 88 60 36 q 43 288 35 196 q 103 296 79 296 q 147 290 129 296 q 146 247 146 275 q 183 112 146 154 q 306 69 221 69 q 413 111 369 69 q 457 215 457 153 q 437 287 457 256 q 388 342 417 318 q 307 401 358 367 q 206 478 244 444 q 140 561 167 511 q 113 676 113 611 q 118 736 113 708 q 221 894 136 838 q 435 951 306 951 q 567 933 508 951 q 663 885 626 915 q 647 694 647 782 q 578 683 619 683 q 546 685 557 683 q 510 828 544 785 q 411 872 475 872 q 268 760 286 872 q 267 739 267 753 q 304 649 267 688 q 421 558 342 611 q 530 479 489 513 q 600 396 571 446 q 629 281 629 346 q 624 226 629 265 q 565 101 611 156 q 447 17 518 47 q 292 -12 375 -12 m 433 1014 q 356 1044 390 1018 q 423 1135 392 1086 q 469 1219 454 1185 q 529 1224 501 1224 q 643 1203 601 1224 q 433 1014 518 1097 z "},"Ṥ":{"ha":672,"x_min":-1,"x_max":663,"o":"m 292 -12 q 124 12 189 -12 q -1 88 60 36 q 43 288 35 196 q 103 296 79 296 q 147 290 129 296 q 146 247 146 275 q 183 112 146 154 q 306 69 221 69 q 413 111 369 69 q 457 215 457 153 q 437 287 457 256 q 388 342 417 318 q 307 401 358 367 q 206 478 244 444 q 140 561 167 511 q 113 676 113 611 q 118 736 113 708 q 221 894 136 838 q 435 951 306 951 q 567 933 508 951 q 663 885 626 915 q 647 694 647 782 q 578 683 619 683 q 546 685 557 683 q 510 828 544 785 q 411 872 475 872 q 268 760 286 872 q 267 739 267 753 q 304 649 267 688 q 421 558 342 611 q 530 479 489 513 q 600 396 571 446 q 629 281 629 346 q 624 226 629 265 q 565 101 611 156 q 447 17 518 47 q 292 -12 375 -12 m 433 1014 q 356 1044 390 1018 q 423 1135 392 1086 q 469 1219 454 1185 q 529 1224 501 1224 q 643 1203 601 1224 q 433 1014 518 1097 m 496 1283 q 435 1305 457 1283 q 413 1363 413 1326 q 444 1437 413 1410 q 526 1464 476 1464 q 588 1443 565 1464 q 611 1386 611 1422 q 581 1310 611 1338 q 496 1283 550 1283 z "},"Š":{"ha":672,"x_min":-1,"x_max":703,"o":"m 292 -12 q 124 12 189 -12 q -1 88 60 36 q 43 288 35 196 q 103 296 79 296 q 147 290 129 296 q 146 247 146 275 q 183 112 146 154 q 306 69 221 69 q 413 111 369 69 q 457 215 457 153 q 437 287 457 256 q 388 342 417 318 q 307 401 358 367 q 206 478 244 444 q 140 561 167 511 q 113 676 113 611 q 118 736 113 708 q 221 894 136 838 q 435 951 306 951 q 567 933 508 951 q 663 885 626 915 q 647 694 647 782 q 578 683 619 683 q 546 685 557 683 q 510 828 544 785 q 411 872 475 872 q 268 760 286 872 q 267 739 267 753 q 304 649 267 688 q 421 558 342 611 q 530 479 489 513 q 600 396 571 446 q 629 281 629 346 q 624 226 629 265 q 565 101 611 156 q 447 17 518 47 q 292 -12 375 -12 m 401 1015 q 225 1181 326 1103 q 244 1217 232 1204 q 281 1233 257 1231 q 461 1143 376 1178 q 651 1231 554 1174 q 681 1211 668 1225 q 703 1179 694 1197 q 472 1025 568 1100 q 419 1014 446 1014 q 401 1015 407 1014 z "},"Ṧ":{"ha":672,"x_min":-1,"x_max":703,"o":"m 292 -12 q 124 12 189 -12 q -1 88 60 36 q 43 288 35 196 q 103 296 79 296 q 147 290 129 296 q 146 247 146 275 q 183 112 146 154 q 306 69 221 69 q 413 111 369 69 q 457 215 457 153 q 437 287 457 256 q 388 342 417 318 q 307 401 358 367 q 206 478 244 444 q 140 561 167 511 q 113 676 113 611 q 118 736 113 708 q 221 894 136 838 q 435 951 306 951 q 567 933 508 951 q 663 885 626 915 q 647 694 647 782 q 578 683 619 683 q 546 685 557 683 q 510 828 544 785 q 411 872 475 872 q 268 760 286 872 q 267 739 267 753 q 304 649 267 688 q 421 558 342 611 q 530 479 489 513 q 600 396 571 446 q 629 281 629 346 q 624 226 629 265 q 565 101 611 156 q 447 17 518 47 q 292 -12 375 -12 m 401 1015 q 225 1181 326 1103 q 244 1217 232 1204 q 281 1233 257 1231 q 461 1143 376 1178 q 651 1231 554 1174 q 681 1211 668 1225 q 703 1179 694 1197 q 472 1025 568 1100 q 419 1014 446 1014 q 401 1015 407 1014 m 499 1296 q 438 1317 460 1296 q 415 1375 415 1339 q 447 1449 415 1422 q 529 1476 479 1476 q 591 1456 568 1476 q 614 1399 614 1435 q 583 1323 614 1350 q 499 1296 553 1296 z "},"Ş":{"ha":672,"x_min":-1,"x_max":663,"o":"m 411 872 q 268 760 286 872 q 267 739 267 753 q 305 648 267 686 q 422 557 343 610 q 530 478 489 513 q 600 394 571 444 q 629 279 629 344 q 624 226 629 265 q 533 69 607 132 q 350 -8 458 7 l 296 -72 q 360 -110 338 -83 q 382 -178 382 -136 q 378 -215 382 -194 q 306 -307 365 -275 q 153 -336 246 -339 q 149 -312 149 -326 q 153 -283 149 -296 q 243 -263 210 -283 q 276 -203 276 -243 q 256 -160 276 -175 q 201 -144 236 -144 q 186 -103 186 -126 q 188 -87 186 -93 l 254 -11 q 111 17 169 -7 q -1 88 53 40 q 43 288 35 196 q 103 296 79 296 q 147 290 129 296 q 146 247 146 275 q 183 112 146 154 q 306 69 221 69 q 413 111 369 69 q 457 215 457 153 q 437 287 457 256 q 388 342 417 318 q 307 401 358 367 q 206 478 244 444 q 140 561 167 511 q 113 676 113 611 q 118 736 113 708 q 221 894 136 838 q 435 951 306 951 q 567 933 508 951 q 663 885 626 915 q 647 694 647 782 q 578 683 619 683 q 546 685 557 683 q 510 828 544 785 q 411 872 475 872 z "},"Ŝ":{"ha":672,"x_min":-1,"x_max":694,"o":"m 292 -12 q 124 12 189 -12 q -1 88 60 36 q 43 288 35 196 q 103 296 79 296 q 147 290 129 296 q 146 247 146 275 q 183 112 146 154 q 306 69 221 69 q 413 111 369 69 q 457 215 457 153 q 437 287 457 256 q 388 342 417 318 q 307 401 358 367 q 206 478 244 444 q 140 561 167 511 q 113 676 113 611 q 118 736 113 708 q 221 894 136 838 q 435 951 306 951 q 567 933 508 951 q 663 885 626 915 q 647 694 647 782 q 578 683 619 683 q 546 685 557 683 q 510 828 544 785 q 411 872 475 872 q 268 760 286 872 q 267 739 267 753 q 304 649 267 688 q 421 558 342 611 q 530 479 489 513 q 600 396 571 446 q 629 281 629 346 q 624 226 629 265 q 565 101 611 156 q 447 17 518 47 q 292 -12 375 -12 m 271 1008 q 244 1039 254 1018 q 233 1078 233 1060 q 457 1225 328 1126 q 481 1226 465 1226 q 532 1218 507 1226 q 657 1088 574 1168 l 694 1050 q 668 1028 686 1036 q 629 1017 650 1019 q 460 1103 539 1074 q 361 1057 414 1085 q 296 1022 308 1029 l 271 1008 z "},"Ș":{"ha":672,"x_min":-1,"x_max":663,"o":"m 292 -12 q 124 12 189 -12 q -1 88 60 36 q 43 288 35 196 q 103 296 79 296 q 147 290 129 296 q 146 247 146 275 q 183 112 146 154 q 306 69 221 69 q 413 111 369 69 q 457 215 457 153 q 437 287 457 256 q 388 342 417 318 q 307 401 358 367 q 206 478 244 444 q 140 561 167 511 q 113 676 113 611 q 118 736 113 708 q 221 894 136 838 q 435 951 306 951 q 567 933 508 951 q 663 885 626 915 q 647 694 647 782 q 578 683 619 683 q 546 685 557 683 q 510 828 544 785 q 411 872 475 872 q 268 760 286 872 q 267 739 267 753 q 304 649 267 688 q 421 558 342 611 q 530 479 489 513 q 600 396 571 446 q 629 281 629 346 q 624 226 629 265 q 565 101 611 156 q 447 17 518 47 q 292 -12 375 -12 m 181 -406 q 133 -367 146 -396 q 195 -303 172 -336 q 218 -243 218 -269 q 163 -199 218 -207 q 192 -99 160 -143 q 331 -57 275 -90 q 375 -128 375 -74 q 372 -157 375 -137 q 181 -406 349 -296 z "},"Ṡ":{"ha":672,"x_min":-1,"x_max":663,"o":"m 292 -12 q 124 12 189 -12 q -1 88 60 36 q 43 288 35 196 q 103 296 79 296 q 147 290 129 296 q 146 247 146 275 q 183 112 146 154 q 306 69 221 69 q 413 111 369 69 q 457 215 457 153 q 437 287 457 256 q 388 342 417 318 q 307 401 358 367 q 206 478 244 444 q 140 561 167 511 q 113 676 113 611 q 118 736 113 708 q 221 894 136 838 q 435 951 306 951 q 567 933 508 951 q 663 885 626 915 q 647 694 647 782 q 578 683 619 683 q 546 685 557 683 q 510 828 544 785 q 411 872 475 872 q 268 760 286 872 q 267 739 267 753 q 304 649 267 688 q 421 558 342 611 q 530 479 489 513 q 600 396 571 446 q 629 281 629 346 q 624 226 629 265 q 565 101 611 156 q 447 17 518 47 q 292 -12 375 -12 m 442 999 q 381 1020 403 999 q 358 1078 358 1042 q 390 1152 358 1125 q 472 1179 422 1179 q 534 1158 511 1179 q 557 1101 557 1138 q 526 1026 557 1053 q 442 999 496 999 z "},"Ṣ":{"ha":672,"x_min":-1,"x_max":663,"o":"m 292 -12 q 124 12 189 -12 q -1 88 60 36 q 43 288 35 196 q 103 296 79 296 q 147 290 129 296 q 146 247 146 275 q 183 112 146 154 q 306 69 221 69 q 413 111 369 69 q 457 215 457 153 q 437 287 457 256 q 388 342 417 318 q 307 401 358 367 q 206 478 244 444 q 140 561 167 511 q 113 676 113 611 q 118 736 113 708 q 221 894 136 838 q 435 951 306 951 q 567 933 508 951 q 663 885 626 915 q 647 694 647 782 q 578 683 619 683 q 546 685 557 683 q 510 828 544 785 q 411 872 475 872 q 268 760 286 872 q 267 739 267 753 q 304 649 267 688 q 421 558 342 611 q 530 479 489 513 q 600 396 571 446 q 629 281 629 346 q 624 226 629 265 q 565 101 611 156 q 447 17 518 47 q 292 -12 375 -12 m 247 -311 q 183 -290 206 -311 q 160 -233 160 -269 q 161 -214 160 -221 q 199 -144 169 -169 q 272 -118 229 -118 q 335 -138 311 -118 q 360 -196 360 -158 q 328 -279 360 -247 q 247 -311 297 -311 z "},"Ṩ":{"ha":672,"x_min":-1,"x_max":663,"o":"m 292 -12 q 124 12 189 -12 q -1 88 60 36 q 43 288 35 196 q 103 296 79 296 q 147 290 129 296 q 146 247 146 275 q 183 112 146 154 q 306 69 221 69 q 413 111 369 69 q 457 215 457 153 q 437 287 457 256 q 388 342 417 318 q 307 401 358 367 q 206 478 244 444 q 140 561 167 511 q 113 676 113 611 q 118 736 113 708 q 221 894 136 838 q 435 951 306 951 q 567 933 508 951 q 663 885 626 915 q 647 694 647 782 q 578 683 619 683 q 546 685 557 683 q 510 828 544 785 q 411 872 475 872 q 268 760 286 872 q 267 739 267 753 q 304 649 267 688 q 421 558 342 611 q 530 479 489 513 q 600 396 571 446 q 629 281 629 346 q 624 226 629 265 q 565 101 611 156 q 447 17 518 47 q 292 -12 375 -12 m 247 -311 q 183 -290 206 -311 q 160 -233 160 -269 q 161 -214 160 -221 q 199 -144 169 -169 q 272 -118 229 -118 q 335 -138 311 -118 q 360 -196 360 -158 q 328 -279 360 -247 q 247 -311 297 -311 m 442 999 q 381 1020 403 999 q 358 1078 358 1042 q 390 1152 358 1125 q 472 1179 422 1179 q 534 1158 511 1179 q 557 1101 557 1138 q 526 1026 557 1053 q 442 999 496 999 z "},"ẞ":{"ha":953,"x_min":-33,"x_max":940,"o":"m 921 943 q 935 906 931 928 q 939 860 940 883 q 692 543 822 693 q 849 463 793 524 q 904 306 904 403 q 899 240 904 269 q 791 56 879 125 q 558 -12 703 -12 q 426 8 479 -12 q 333 69 374 29 q 360 165 349 113 q 374 256 371 217 q 432 265 397 265 q 474 260 457 265 q 471 194 471 210 q 490 98 471 125 q 560 71 510 71 q 654 117 614 71 q 706 225 694 163 q 711 283 711 253 q 497 488 711 454 q 481 561 476 517 q 728 868 601 689 q 571 871 617 871 q 420 807 479 871 q 335 583 361 743 l 238 0 q -33 -4 69 0 q -17 71 -32 38 q 44 90 24 76 q 73 126 64 103 q 90 199 82 150 l 158 590 q 296 860 190 776 q 590 943 401 943 q 689 940 628 943 l 769 939 q 921 943 871 939 z "},"Ə":{"ha":911,"x_min":65,"x_max":907,"o":"m 514 951 q 811 857 715 951 q 907 606 907 763 q 893 478 907 551 q 793 228 865 339 q 612 54 721 118 q 369 -10 503 -10 q 137 81 208 -10 q 65 329 65 172 q 72 439 65 376 q 111 489 89 471 l 707 485 q 719 621 719 556 q 492 875 719 875 q 348 828 397 875 q 264 675 299 781 q 175 706 208 681 q 207 896 206 822 q 352 937 267 922 q 514 951 438 951 m 393 69 q 567 150 488 69 q 690 410 647 231 q 260 394 446 410 q 243 257 243 318 q 280 118 243 167 q 393 69 317 69 z "},"T":{"ha":800,"x_min":88,"x_max":879,"o":"m 879 943 q 864 749 864 854 l 865 707 q 775 694 833 692 q 760 798 772 761 q 719 851 749 835 q 636 868 690 868 l 592 868 l 475 199 q 468 142 468 161 q 490 95 468 110 q 574 71 511 81 q 579 22 579 50 q 578 -4 579 4 q 369 0 518 0 q 146 -4 204 0 q 161 72 147 35 q 242 93 215 79 q 279 133 268 107 q 300 213 290 158 l 413 868 l 364 868 q 248 828 290 868 q 174 692 206 788 q 124 697 144 692 q 88 714 103 701 q 119 825 104 760 q 140 943 133 890 q 506 939 229 939 q 879 943 782 939 z "},"Ŧ":{"ha":800,"x_min":88,"x_max":879,"o":"m 879 943 q 864 749 864 854 l 865 707 q 775 694 833 692 q 760 798 772 761 q 719 851 749 835 q 636 868 690 868 l 592 868 l 532 524 l 708 524 q 693 436 708 467 q 517 438 632 438 l 475 199 q 468 142 468 161 q 490 95 468 110 q 574 71 511 81 q 579 22 579 50 q 578 -4 579 4 q 369 0 518 0 q 146 -4 204 0 q 161 72 147 35 q 242 93 215 79 q 279 133 268 107 q 300 213 290 158 l 339 438 l 172 435 q 177 484 172 458 q 189 524 182 510 l 354 524 l 413 868 l 364 868 q 248 828 290 868 q 174 692 206 788 q 124 697 144 692 q 88 714 103 701 q 119 825 104 760 q 140 943 133 890 q 506 939 229 939 q 879 943 782 939 z "},"Ť":{"ha":800,"x_min":88,"x_max":879,"o":"m 879 943 q 864 749 864 854 l 865 707 q 775 694 833 692 q 760 798 772 761 q 719 851 749 835 q 636 868 690 868 l 592 868 l 475 199 q 468 142 468 161 q 490 95 468 110 q 574 71 511 81 q 579 22 579 50 q 578 -4 579 4 q 369 0 518 0 q 146 -4 204 0 q 161 72 147 35 q 242 93 215 79 q 279 133 268 107 q 300 213 290 158 l 413 868 l 364 868 q 248 828 290 868 q 174 692 206 788 q 124 697 144 692 q 88 714 103 701 q 119 825 104 760 q 140 943 133 890 q 506 939 229 939 q 879 943 782 939 m 476 1015 q 300 1181 401 1103 q 319 1217 307 1204 q 356 1233 332 1231 q 536 1143 451 1178 q 726 1231 629 1174 q 756 1211 743 1225 q 778 1179 769 1197 q 547 1025 643 1100 q 494 1014 521 1014 q 476 1015 482 1014 z "},"Ţ":{"ha":800,"x_min":88,"x_max":879,"o":"m 879 943 q 864 749 864 854 l 865 707 q 775 694 833 692 q 760 798 772 761 q 719 851 749 835 q 636 868 690 868 l 592 868 l 475 199 q 468 142 468 161 q 490 95 468 110 q 574 71 511 81 q 579 22 579 50 q 578 -4 579 4 q 425 0 511 0 l 364 -72 q 428 -110 406 -83 q 450 -178 450 -136 q 446 -215 450 -194 q 373 -307 433 -275 q 219 -336 313 -339 q 217 -310 217 -322 q 219 -283 217 -300 q 311 -264 278 -283 q 344 -206 344 -244 q 324 -160 344 -176 q 268 -144 303 -144 q 254 -104 254 -126 q 256 -87 254 -93 l 333 0 q 146 -4 196 0 q 161 72 147 35 q 242 93 215 79 q 279 133 268 107 q 300 213 290 158 l 413 868 l 364 868 q 248 828 290 868 q 174 692 206 788 q 124 697 144 692 q 88 714 103 701 q 119 825 104 760 q 140 943 133 890 q 506 939 229 939 q 879 943 782 939 z "},"Ț":{"ha":800,"x_min":88,"x_max":879,"o":"m 879 943 q 864 749 864 854 l 865 707 q 775 694 833 692 q 760 798 772 761 q 719 851 749 835 q 636 868 690 868 l 592 868 l 475 199 q 468 142 468 161 q 490 95 468 110 q 574 71 511 81 q 579 22 579 50 q 578 -4 579 4 q 369 0 518 0 q 146 -4 204 0 q 161 72 147 35 q 242 93 215 79 q 279 133 268 107 q 300 213 290 158 l 413 868 l 364 868 q 248 828 290 868 q 174 692 206 788 q 124 697 144 692 q 88 714 103 701 q 119 825 104 760 q 140 943 133 890 q 506 939 229 939 q 879 943 782 939 m 247 -406 q 200 -367 213 -396 q 262 -303 239 -336 q 285 -243 285 -269 q 229 -199 285 -207 q 258 -99 226 -143 q 397 -57 342 -90 q 442 -128 442 -74 q 439 -157 442 -137 q 247 -406 415 -296 z "},"Ṭ":{"ha":800,"x_min":88,"x_max":879,"o":"m 879 943 q 864 749 864 854 l 865 707 q 775 694 833 692 q 760 798 772 761 q 719 851 749 835 q 636 868 690 868 l 592 868 l 475 199 q 468 142 468 161 q 490 95 468 110 q 574 71 511 81 q 579 22 579 50 q 578 -4 579 4 q 369 0 518 0 q 146 -4 204 0 q 161 72 147 35 q 242 93 215 79 q 279 133 268 107 q 300 213 290 158 l 413 868 l 364 868 q 248 828 290 868 q 174 692 206 788 q 124 697 144 692 q 88 714 103 701 q 119 825 104 760 q 140 943 133 890 q 506 939 229 939 q 879 943 782 939 m 315 -311 q 251 -290 274 -311 q 228 -233 228 -269 q 229 -214 228 -221 q 267 -144 238 -169 q 340 -118 297 -118 q 403 -138 379 -118 q 428 -196 428 -158 q 397 -279 428 -247 q 315 -311 365 -311 z "},"Ṯ":{"ha":800,"x_min":76,"x_max":879,"o":"m 879 943 q 864 749 864 854 l 865 707 q 775 694 833 692 q 760 798 772 761 q 719 851 749 835 q 636 868 690 868 l 592 868 l 475 199 q 468 142 468 161 q 490 95 468 110 q 574 71 511 81 q 579 22 579 50 q 578 -4 579 4 q 369 0 518 0 q 146 -4 204 0 q 161 72 147 35 q 242 93 215 79 q 279 133 268 107 q 300 213 290 158 l 413 868 l 364 868 q 248 828 290 868 q 174 692 206 788 q 124 697 144 692 q 88 714 103 701 q 119 825 104 760 q 140 943 133 890 q 506 939 229 939 q 879 943 782 939 m 76 -246 q 79 -208 76 -229 q 89 -174 82 -186 l 578 -174 q 565 -240 578 -210 q 76 -246 278 -240 z "},"U":{"ha":901,"x_min":133,"x_max":993,"o":"m 435 -12 q 133 253 133 -12 q 143 357 133 304 l 210 746 q 217 806 217 785 q 202 848 217 833 q 149 868 188 863 q 146 907 146 879 q 147 943 146 931 q 328 939 214 939 q 518 943 444 939 q 503 868 515 901 q 435 850 457 864 q 405 811 414 836 q 385 728 396 786 l 321 364 q 311 264 311 311 q 353 120 311 167 q 475 74 396 74 q 633 147 571 74 q 718 351 694 219 l 779 697 q 790 783 790 756 q 773 836 790 818 q 711 868 756 854 q 708 908 708 881 q 710 943 708 931 q 851 939 769 939 q 993 943 933 939 q 978 868 990 897 q 914 838 935 856 q 883 788 893 821 q 860 683 872 756 l 804 364 q 685 80 771 172 q 435 -12 599 -12 z "},"Ú":{"ha":901,"x_min":133,"x_max":993,"o":"m 435 -12 q 133 253 133 -12 q 143 357 133 304 l 210 746 q 217 806 217 785 q 202 848 217 833 q 149 868 188 863 q 146 907 146 879 q 147 943 146 931 q 328 939 214 939 q 518 943 444 939 q 503 868 515 901 q 435 850 457 864 q 405 811 414 836 q 385 728 396 786 l 321 364 q 311 264 311 311 q 353 120 311 167 q 475 74 396 74 q 633 147 571 74 q 718 351 694 219 l 779 697 q 790 783 790 756 q 773 836 790 818 q 711 868 756 854 q 708 908 708 881 q 710 943 708 931 q 851 939 769 939 q 993 943 933 939 q 978 868 990 897 q 914 838 935 856 q 883 788 893 821 q 860 683 872 756 l 804 364 q 685 80 771 172 q 435 -12 599 -12 m 614 1014 q 536 1044 571 1018 q 603 1135 572 1086 q 650 1219 635 1185 q 710 1224 682 1224 q 824 1203 782 1224 q 614 1014 699 1097 z "},"Ŭ":{"ha":901,"x_min":133,"x_max":993,"o":"m 435 -12 q 133 253 133 -12 q 143 357 133 304 l 210 746 q 217 806 217 785 q 202 848 217 833 q 149 868 188 863 q 146 907 146 879 q 147 943 146 931 q 328 939 214 939 q 518 943 444 939 q 503 868 515 901 q 435 850 457 864 q 405 811 414 836 q 385 728 396 786 l 321 364 q 311 264 311 311 q 353 120 311 167 q 475 74 396 74 q 633 147 571 74 q 718 351 694 219 l 779 697 q 790 783 790 756 q 773 836 790 818 q 711 868 756 854 q 708 908 708 881 q 710 943 708 931 q 851 939 769 939 q 993 943 933 939 q 978 868 990 897 q 914 838 935 856 q 883 788 893 821 q 860 683 872 756 l 804 364 q 685 80 771 172 q 435 -12 599 -12 m 606 1010 q 451 1049 504 1010 q 397 1161 397 1088 q 401 1206 397 1183 q 490 1218 444 1222 q 528 1142 489 1169 q 639 1115 568 1115 q 756 1142 708 1115 q 818 1218 804 1169 q 840 1219 825 1219 q 889 1210 867 1219 q 798 1061 871 1113 q 606 1010 725 1010 z "},"Ǔ":{"ha":901,"x_min":133,"x_max":993,"o":"m 435 -12 q 133 253 133 -12 q 143 357 133 304 l 210 746 q 217 806 217 785 q 202 848 217 833 q 149 868 188 863 q 146 907 146 879 q 147 943 146 931 q 328 939 214 939 q 518 943 444 939 q 503 868 515 901 q 435 850 457 864 q 405 811 414 836 q 385 728 396 786 l 321 364 q 311 264 311 311 q 353 120 311 167 q 475 74 396 74 q 633 147 571 74 q 718 351 694 219 l 779 697 q 790 783 790 756 q 773 836 790 818 q 711 868 756 854 q 708 908 708 881 q 710 943 708 931 q 851 939 769 939 q 993 943 933 939 q 978 868 990 897 q 914 838 935 856 q 883 788 893 821 q 860 683 872 756 l 804 364 q 685 80 771 172 q 435 -12 599 -12 m 582 1015 q 406 1181 507 1103 q 425 1217 413 1204 q 461 1233 438 1231 q 642 1143 557 1178 q 832 1231 735 1174 q 862 1211 849 1225 q 883 1179 875 1197 q 653 1025 749 1100 q 600 1014 626 1014 q 582 1015 588 1014 z "},"Û":{"ha":901,"x_min":133,"x_max":993,"o":"m 435 -12 q 133 253 133 -12 q 143 357 133 304 l 210 746 q 217 806 217 785 q 202 848 217 833 q 149 868 188 863 q 146 907 146 879 q 147 943 146 931 q 328 939 214 939 q 518 943 444 939 q 503 868 515 901 q 435 850 457 864 q 405 811 414 836 q 385 728 396 786 l 321 364 q 311 264 311 311 q 353 120 311 167 q 475 74 396 74 q 633 147 571 74 q 718 351 694 219 l 779 697 q 790 783 790 756 q 773 836 790 818 q 711 868 756 854 q 708 908 708 881 q 710 943 708 931 q 851 939 769 939 q 993 943 933 939 q 978 868 990 897 q 914 838 935 856 q 883 788 893 821 q 860 683 872 756 l 804 364 q 685 80 771 172 q 435 -12 599 -12 m 451 1008 q 424 1039 435 1018 q 414 1078 414 1060 q 638 1225 508 1126 q 661 1226 646 1226 q 713 1218 688 1226 q 838 1088 754 1168 l 875 1050 q 849 1028 867 1036 q 810 1017 831 1019 q 640 1103 719 1074 q 542 1057 594 1085 q 476 1022 489 1029 l 451 1008 z "},"Ȕ":{"ha":901,"x_min":133,"x_max":993,"o":"m 435 -12 q 133 253 133 -12 q 143 357 133 304 l 210 746 q 217 806 217 785 q 202 848 217 833 q 149 868 188 863 q 146 907 146 879 q 147 943 146 931 q 328 939 214 939 q 518 943 444 939 q 503 868 515 901 q 435 850 457 864 q 405 811 414 836 q 385 728 396 786 l 321 364 q 311 264 311 311 q 353 120 311 167 q 475 74 396 74 q 633 147 571 74 q 718 351 694 219 l 779 697 q 790 783 790 756 q 773 836 790 818 q 711 868 756 854 q 708 908 708 881 q 710 943 708 931 q 851 939 769 939 q 993 943 933 939 q 978 868 990 897 q 914 838 935 856 q 883 788 893 821 q 860 683 872 756 l 804 364 q 685 80 771 172 q 435 -12 599 -12 m 510 1007 q 385 1182 439 1114 q 471 1196 421 1196 q 532 1190 493 1196 q 589 1004 563 1068 q 561 1001 569 1001 q 510 1007 549 1001 m 740 1007 q 619 1183 674 1113 q 703 1196 654 1196 q 763 1190 724 1196 l 772 1156 q 819 1004 799 1056 q 792 1001 800 1001 q 740 1007 779 1001 z "},"Ü":{"ha":901,"x_min":133,"x_max":993,"o":"m 435 -12 q 133 253 133 -12 q 143 357 133 304 l 210 746 q 217 806 217 785 q 202 848 217 833 q 149 868 188 863 q 146 907 146 879 q 147 943 146 931 q 328 939 214 939 q 518 943 444 939 q 503 868 515 901 q 435 850 457 864 q 405 811 414 836 q 385 728 396 786 l 321 364 q 311 264 311 311 q 353 120 311 167 q 475 74 396 74 q 633 147 571 74 q 718 351 694 219 l 779 697 q 790 783 790 756 q 773 836 790 818 q 711 868 756 854 q 708 908 708 881 q 710 943 708 931 q 851 939 769 939 q 993 943 933 939 q 978 868 990 897 q 914 838 935 856 q 883 788 893 821 q 860 683 872 756 l 804 364 q 685 80 771 172 q 435 -12 599 -12 m 489 1011 q 428 1034 450 1011 q 406 1096 406 1057 q 429 1165 406 1140 q 497 1189 453 1189 q 559 1168 536 1189 q 582 1113 582 1147 q 579 1089 582 1106 q 549 1031 572 1051 q 489 1011 525 1011 m 779 1011 q 717 1033 739 1011 q 694 1093 694 1056 q 719 1165 694 1140 q 790 1189 743 1189 q 851 1167 829 1189 q 872 1110 872 1146 q 848 1037 872 1063 q 779 1011 824 1011 z "},"Ǘ":{"ha":901,"x_min":133,"x_max":993,"o":"m 435 -12 q 133 253 133 -12 q 143 357 133 304 l 210 746 q 217 806 217 785 q 202 848 217 833 q 149 868 188 863 q 146 907 146 879 q 147 943 146 931 q 328 939 214 939 q 518 943 444 939 q 503 868 515 901 q 435 850 457 864 q 405 811 414 836 q 385 728 396 786 l 321 364 q 311 264 311 311 q 353 120 311 167 q 475 74 396 74 q 633 147 571 74 q 718 351 694 219 l 779 697 q 790 783 790 756 q 773 836 790 818 q 711 868 756 854 q 708 908 708 881 q 710 943 708 931 q 851 939 769 939 q 993 943 933 939 q 978 868 990 897 q 914 838 935 856 q 883 788 893 821 q 860 683 872 756 l 804 364 q 685 80 771 172 q 435 -12 599 -12 m 489 1011 q 428 1034 450 1011 q 406 1096 406 1057 q 429 1165 406 1140 q 497 1189 453 1189 q 559 1168 536 1189 q 582 1113 582 1147 q 579 1089 582 1106 q 549 1031 572 1051 q 489 1011 525 1011 m 779 1011 q 717 1033 739 1011 q 694 1093 694 1056 q 719 1165 694 1140 q 790 1189 743 1189 q 851 1167 829 1189 q 872 1110 872 1146 q 848 1037 872 1063 q 779 1011 824 1011 m 650 1235 q 572 1265 607 1239 q 640 1356 608 1307 q 686 1440 671 1406 q 746 1444 718 1444 q 860 1424 818 1444 q 650 1235 735 1318 z "},"Ǚ":{"ha":901,"x_min":133,"x_max":993,"o":"m 435 -12 q 133 253 133 -12 q 143 357 133 304 l 210 746 q 217 806 217 785 q 202 848 217 833 q 149 868 188 863 q 146 907 146 879 q 147 943 146 931 q 328 939 214 939 q 518 943 444 939 q 503 868 515 901 q 435 850 457 864 q 405 811 414 836 q 385 728 396 786 l 321 364 q 311 264 311 311 q 353 120 311 167 q 475 74 396 74 q 633 147 571 74 q 718 351 694 219 l 779 697 q 790 783 790 756 q 773 836 790 818 q 711 868 756 854 q 708 908 708 881 q 710 943 708 931 q 851 939 769 939 q 993 943 933 939 q 978 868 990 897 q 914 838 935 856 q 883 788 893 821 q 860 683 872 756 l 804 364 q 685 80 771 172 q 435 -12 599 -12 m 489 1011 q 428 1034 450 1011 q 406 1096 406 1057 q 429 1165 406 1140 q 497 1189 453 1189 q 559 1168 536 1189 q 582 1113 582 1147 q 579 1089 582 1106 q 549 1031 572 1051 q 489 1011 525 1011 m 779 1011 q 717 1033 739 1011 q 694 1093 694 1056 q 719 1165 694 1140 q 790 1189 743 1189 q 851 1167 829 1189 q 872 1110 872 1146 q 848 1037 872 1063 q 779 1011 824 1011 m 618 1236 q 442 1401 543 1324 q 461 1438 449 1425 q 497 1454 474 1451 q 678 1364 593 1399 q 868 1451 771 1394 q 898 1432 885 1446 q 919 1400 911 1418 q 689 1246 785 1321 q 636 1235 663 1235 q 618 1236 624 1235 z "},"Ǜ":{"ha":901,"x_min":133,"x_max":993,"o":"m 435 -12 q 133 253 133 -12 q 143 357 133 304 l 210 746 q 217 806 217 785 q 202 848 217 833 q 149 868 188 863 q 146 907 146 879 q 147 943 146 931 q 328 939 214 939 q 518 943 444 939 q 503 868 515 901 q 435 850 457 864 q 405 811 414 836 q 385 728 396 786 l 321 364 q 311 264 311 311 q 353 120 311 167 q 475 74 396 74 q 633 147 571 74 q 718 351 694 219 l 779 697 q 790 783 790 756 q 773 836 790 818 q 711 868 756 854 q 708 908 708 881 q 710 943 708 931 q 851 939 769 939 q 993 943 933 939 q 978 868 990 897 q 914 838 935 856 q 883 788 893 821 q 860 683 872 756 l 804 364 q 685 80 771 172 q 435 -12 599 -12 m 489 1011 q 428 1034 450 1011 q 406 1096 406 1057 q 429 1165 406 1140 q 497 1189 453 1189 q 559 1168 536 1189 q 582 1113 582 1147 q 579 1089 582 1106 q 549 1031 572 1051 q 489 1011 525 1011 m 779 1011 q 717 1033 739 1011 q 694 1093 694 1056 q 719 1165 694 1140 q 790 1189 743 1189 q 851 1167 829 1189 q 872 1110 872 1146 q 848 1037 872 1063 q 779 1011 824 1011 m 724 1249 q 678 1243 708 1243 q 631 1249 647 1243 q 571 1332 608 1285 q 494 1421 533 1379 q 590 1435 543 1435 q 656 1428 621 1435 q 724 1249 679 1333 z "},"Ǖ":{"ha":901,"x_min":133,"x_max":993,"o":"m 435 -12 q 133 253 133 -12 q 143 357 133 304 l 210 746 q 217 806 217 785 q 202 848 217 833 q 149 868 188 863 q 146 907 146 879 q 147 943 146 931 q 328 939 214 939 q 518 943 444 939 q 503 868 515 901 q 435 850 457 864 q 405 811 414 836 q 385 728 396 786 l 321 364 q 311 264 311 311 q 353 120 311 167 q 475 74 396 74 q 633 147 571 74 q 718 351 694 219 l 779 697 q 790 783 790 756 q 773 836 790 818 q 711 868 756 854 q 708 908 708 881 q 710 943 708 931 q 851 939 769 939 q 993 943 933 939 q 978 868 990 897 q 914 838 935 856 q 883 788 893 821 q 860 683 872 756 l 804 364 q 685 80 771 172 q 435 -12 599 -12 m 489 1011 q 428 1034 450 1011 q 406 1096 406 1057 q 429 1165 406 1140 q 497 1189 453 1189 q 559 1168 536 1189 q 582 1113 582 1147 q 579 1089 582 1106 q 549 1031 572 1051 q 489 1011 525 1011 m 779 1011 q 717 1033 739 1011 q 694 1093 694 1056 q 719 1165 694 1140 q 790 1189 743 1189 q 851 1167 829 1189 q 872 1110 872 1146 q 848 1037 872 1063 q 779 1011 824 1011 m 424 1282 q 426 1320 424 1299 q 436 1354 429 1342 l 925 1354 q 913 1288 925 1318 q 424 1282 625 1288 z "},"Ụ":{"ha":901,"x_min":133,"x_max":993,"o":"m 435 -12 q 133 253 133 -12 q 143 357 133 304 l 210 746 q 217 806 217 785 q 202 848 217 833 q 149 868 188 863 q 146 907 146 879 q 147 943 146 931 q 328 939 214 939 q 518 943 444 939 q 503 868 515 901 q 435 850 457 864 q 405 811 414 836 q 385 728 396 786 l 321 364 q 311 264 311 311 q 353 120 311 167 q 475 74 396 74 q 633 147 571 74 q 718 351 694 219 l 779 697 q 790 783 790 756 q 773 836 790 818 q 711 868 756 854 q 708 908 708 881 q 710 943 708 931 q 851 939 769 939 q 993 943 933 939 q 978 868 990 897 q 914 838 935 856 q 883 788 893 821 q 860 683 872 756 l 804 364 q 685 80 771 172 q 435 -12 599 -12 m 392 -311 q 327 -290 350 -311 q 304 -233 304 -269 q 306 -214 304 -221 q 344 -144 314 -169 q 417 -118 374 -118 q 480 -138 456 -118 q 504 -196 504 -158 q 473 -279 504 -247 q 392 -311 442 -311 z "},"Ù":{"ha":901,"x_min":133,"x_max":993,"o":"m 435 -12 q 133 253 133 -12 q 143 357 133 304 l 210 746 q 217 806 217 785 q 202 848 217 833 q 149 868 188 863 q 146 907 146 879 q 147 943 146 931 q 328 939 214 939 q 518 943 444 939 q 503 868 515 901 q 435 850 457 864 q 405 811 414 836 q 385 728 396 786 l 321 364 q 311 264 311 311 q 353 120 311 167 q 475 74 396 74 q 633 147 571 74 q 718 351 694 219 l 779 697 q 790 783 790 756 q 773 836 790 818 q 711 868 756 854 q 708 908 708 881 q 710 943 708 931 q 851 939 769 939 q 993 943 933 939 q 978 868 990 897 q 914 838 935 856 q 883 788 893 821 q 860 683 872 756 l 804 364 q 685 80 771 172 q 435 -12 599 -12 m 689 1028 q 643 1022 674 1022 q 596 1028 613 1022 q 536 1111 574 1064 q 460 1200 499 1158 q 556 1214 508 1214 q 621 1207 586 1214 q 689 1028 644 1113 z "},"Ủ":{"ha":901,"x_min":133,"x_max":993,"o":"m 435 -12 q 133 253 133 -12 q 143 357 133 304 l 210 746 q 217 806 217 785 q 202 848 217 833 q 149 868 188 863 q 146 907 146 879 q 147 943 146 931 q 328 939 214 939 q 518 943 444 939 q 503 868 515 901 q 435 850 457 864 q 405 811 414 836 q 385 728 396 786 l 321 364 q 311 264 311 311 q 353 120 311 167 q 475 74 396 74 q 633 147 571 74 q 718 351 694 219 l 779 697 q 790 783 790 756 q 773 836 790 818 q 711 868 756 854 q 708 908 708 881 q 710 943 708 931 q 851 939 769 939 q 993 943 933 939 q 978 868 990 897 q 914 838 935 856 q 883 788 893 821 q 860 683 872 756 l 804 364 q 685 80 771 172 q 435 -12 599 -12 m 582 1014 q 575 1043 575 1028 q 590 1086 575 1072 q 633 1117 604 1100 q 665 1135 653 1126 q 681 1156 676 1143 q 683 1167 683 1164 q 674 1182 683 1176 q 651 1188 665 1188 q 572 1106 596 1188 q 497 1126 518 1111 q 509 1167 504 1147 q 514 1207 514 1186 q 668 1243 586 1243 q 759 1224 728 1243 q 790 1171 790 1204 q 772 1120 790 1139 q 715 1079 753 1101 q 677 1056 690 1067 q 660 1032 664 1046 q 658 1023 660 1029 q 657 1008 656 1017 q 631 1007 650 1007 q 582 1014 599 1007 z "},"Ư":{"ha":985,"x_min":133,"x_max":1146,"o":"m 1121 1110 q 1146 1029 1146 1075 q 1096 919 1146 963 q 971 867 1046 875 q 914 839 932 854 q 884 790 896 824 q 860 683 872 757 l 804 364 q 685 80 771 172 q 435 -12 599 -12 q 133 253 133 -12 q 143 357 133 304 l 210 746 q 217 806 217 785 q 202 848 217 833 q 149 868 188 863 q 146 907 146 879 q 147 943 146 931 q 328 939 214 939 q 518 943 444 939 q 503 868 515 901 q 435 850 457 864 q 405 811 414 836 q 385 728 396 786 l 321 364 q 311 264 311 311 q 353 120 311 167 q 475 74 396 74 q 633 147 571 74 q 718 351 694 219 l 779 697 q 790 783 790 756 q 773 836 790 818 q 711 868 756 854 q 708 908 708 881 q 710 943 708 931 q 851 939 769 939 l 922 939 q 988 959 967 942 q 1018 1013 1010 976 q 1021 1046 1021 1029 q 1017 1094 1021 1069 q 1069 1107 1039 1103 q 1121 1110 1099 1111 z "},"Ứ":{"ha":985,"x_min":133,"x_max":1146,"o":"m 1121 1110 q 1146 1029 1146 1075 q 1096 919 1146 963 q 971 867 1046 875 q 914 839 932 854 q 884 790 896 824 q 860 683 872 757 l 804 364 q 685 80 771 172 q 435 -12 599 -12 q 133 253 133 -12 q 143 357 133 304 l 210 746 q 217 806 217 785 q 202 848 217 833 q 149 868 188 863 q 146 907 146 879 q 147 943 146 931 q 328 939 214 939 q 518 943 444 939 q 503 868 515 901 q 435 850 457 864 q 405 811 414 836 q 385 728 396 786 l 321 364 q 311 264 311 311 q 353 120 311 167 q 475 74 396 74 q 633 147 571 74 q 718 351 694 219 l 779 697 q 790 783 790 756 q 773 836 790 818 q 711 868 756 854 q 708 908 708 881 q 710 943 708 931 q 851 939 769 939 l 922 939 q 988 959 967 942 q 1018 1013 1010 976 q 1021 1046 1021 1029 q 1017 1094 1021 1069 q 1069 1107 1039 1103 q 1121 1110 1099 1111 m 614 1014 q 536 1044 571 1018 q 603 1135 572 1086 q 650 1219 635 1185 q 710 1224 682 1224 q 824 1203 782 1224 q 614 1014 699 1097 z "},"Ự":{"ha":985,"x_min":133,"x_max":1146,"o":"m 1121 1110 q 1146 1029 1146 1075 q 1096 919 1146 963 q 971 867 1046 875 q 914 839 932 854 q 884 790 896 824 q 860 683 872 757 l 804 364 q 685 80 771 172 q 435 -12 599 -12 q 133 253 133 -12 q 143 357 133 304 l 210 746 q 217 806 217 785 q 202 848 217 833 q 149 868 188 863 q 146 907 146 879 q 147 943 146 931 q 328 939 214 939 q 518 943 444 939 q 503 868 515 901 q 435 850 457 864 q 405 811 414 836 q 385 728 396 786 l 321 364 q 311 264 311 311 q 353 120 311 167 q 475 74 396 74 q 633 147 571 74 q 718 351 694 219 l 779 697 q 790 783 790 756 q 773 836 790 818 q 711 868 756 854 q 708 908 708 881 q 710 943 708 931 q 851 939 769 939 l 922 939 q 988 959 967 942 q 1018 1013 1010 976 q 1021 1046 1021 1029 q 1017 1094 1021 1069 q 1069 1107 1039 1103 q 1121 1110 1099 1111 m 392 -311 q 327 -290 350 -311 q 304 -233 304 -269 q 306 -214 304 -221 q 344 -144 314 -169 q 417 -118 374 -118 q 480 -138 456 -118 q 504 -196 504 -158 q 473 -279 504 -247 q 392 -311 442 -311 z "},"Ừ":{"ha":985,"x_min":133,"x_max":1146,"o":"m 1121 1110 q 1146 1029 1146 1075 q 1096 919 1146 963 q 971 867 1046 875 q 914 839 932 854 q 884 790 896 824 q 860 683 872 757 l 804 364 q 685 80 771 172 q 435 -12 599 -12 q 133 253 133 -12 q 143 357 133 304 l 210 746 q 217 806 217 785 q 202 848 217 833 q 149 868 188 863 q 146 907 146 879 q 147 943 146 931 q 328 939 214 939 q 518 943 444 939 q 503 868 515 901 q 435 850 457 864 q 405 811 414 836 q 385 728 396 786 l 321 364 q 311 264 311 311 q 353 120 311 167 q 475 74 396 74 q 633 147 571 74 q 718 351 694 219 l 779 697 q 790 783 790 756 q 773 836 790 818 q 711 868 756 854 q 708 908 708 881 q 710 943 708 931 q 851 939 769 939 l 922 939 q 988 959 967 942 q 1018 1013 1010 976 q 1021 1046 1021 1029 q 1017 1094 1021 1069 q 1069 1107 1039 1103 q 1121 1110 1099 1111 m 689 1028 q 643 1022 674 1022 q 596 1028 613 1022 q 536 1111 574 1064 q 460 1200 499 1158 q 556 1214 508 1214 q 621 1207 586 1214 q 689 1028 644 1113 z "},"Ử":{"ha":985,"x_min":133,"x_max":1146,"o":"m 1121 1110 q 1146 1029 1146 1075 q 1096 919 1146 963 q 971 867 1046 875 q 914 839 932 854 q 884 790 896 824 q 860 683 872 757 l 804 364 q 685 80 771 172 q 435 -12 599 -12 q 133 253 133 -12 q 143 357 133 304 l 210 746 q 217 806 217 785 q 202 848 217 833 q 149 868 188 863 q 146 907 146 879 q 147 943 146 931 q 328 939 214 939 q 518 943 444 939 q 503 868 515 901 q 435 850 457 864 q 405 811 414 836 q 385 728 396 786 l 321 364 q 311 264 311 311 q 353 120 311 167 q 475 74 396 74 q 633 147 571 74 q 718 351 694 219 l 779 697 q 790 783 790 756 q 773 836 790 818 q 711 868 756 854 q 708 908 708 881 q 710 943 708 931 q 851 939 769 939 l 922 939 q 988 959 967 942 q 1018 1013 1010 976 q 1021 1046 1021 1029 q 1017 1094 1021 1069 q 1069 1107 1039 1103 q 1121 1110 1099 1111 m 582 1014 q 575 1043 575 1028 q 590 1086 575 1072 q 633 1117 604 1100 q 665 1135 653 1126 q 681 1156 676 1143 q 683 1167 683 1164 q 674 1182 683 1176 q 651 1188 665 1188 q 572 1106 596 1188 q 497 1126 518 1111 q 509 1167 504 1147 q 514 1207 514 1186 q 668 1243 586 1243 q 759 1224 728 1243 q 790 1171 790 1204 q 772 1120 790 1139 q 715 1079 753 1101 q 677 1056 690 1067 q 660 1032 664 1046 q 658 1023 660 1029 q 657 1008 656 1017 q 631 1007 650 1007 q 582 1014 599 1007 z "},"Ữ":{"ha":985,"x_min":133,"x_max":1146,"o":"m 1121 1110 q 1146 1029 1146 1075 q 1096 919 1146 963 q 971 867 1046 875 q 914 839 932 854 q 884 790 896 824 q 860 683 872 757 l 804 364 q 685 80 771 172 q 435 -12 599 -12 q 133 253 133 -12 q 143 357 133 304 l 210 746 q 217 806 217 785 q 202 848 217 833 q 149 868 188 863 q 146 907 146 879 q 147 943 146 931 q 328 939 214 939 q 518 943 444 939 q 503 868 515 901 q 435 850 457 864 q 405 811 414 836 q 385 728 396 786 l 321 364 q 311 264 311 311 q 353 120 311 167 q 475 74 396 74 q 633 147 571 74 q 718 351 694 219 l 779 697 q 790 783 790 756 q 773 836 790 818 q 711 868 756 854 q 708 908 708 881 q 710 943 708 931 q 851 939 769 939 l 922 939 q 988 959 967 942 q 1018 1013 1010 976 q 1021 1046 1021 1029 q 1017 1094 1021 1069 q 1069 1107 1039 1103 q 1121 1110 1099 1111 m 707 1033 q 656 1041 678 1033 q 606 1063 633 1049 q 563 1082 578 1076 q 528 1088 547 1088 q 414 1036 475 1088 q 394 1113 390 1067 q 576 1194 478 1194 q 628 1187 606 1194 q 681 1165 650 1179 q 754 1142 725 1142 q 844 1189 794 1142 q 893 1144 881 1172 q 707 1033 810 1033 z "},"Ű":{"ha":901,"x_min":133,"x_max":993,"o":"m 435 -12 q 133 253 133 -12 q 143 357 133 304 l 210 746 q 217 806 217 785 q 202 848 217 833 q 149 868 188 863 q 146 907 146 879 q 147 943 146 931 q 328 939 214 939 q 518 943 444 939 q 503 868 515 901 q 435 850 457 864 q 405 811 414 836 q 385 728 396 786 l 321 364 q 311 264 311 311 q 353 120 311 167 q 475 74 396 74 q 633 147 571 74 q 718 351 694 219 l 779 697 q 790 783 790 756 q 773 836 790 818 q 711 868 756 854 q 708 908 708 881 q 710 943 708 931 q 851 939 769 939 q 993 943 933 939 q 978 868 990 897 q 914 838 935 856 q 883 788 893 821 q 860 683 872 756 l 804 364 q 685 80 771 172 q 435 -12 599 -12 m 533 1021 q 456 1051 493 1022 q 522 1140 492 1092 q 568 1222 551 1188 q 628 1226 599 1226 q 742 1206 700 1226 q 533 1021 613 1096 m 774 1021 q 696 1051 733 1022 q 762 1140 732 1092 q 808 1222 792 1188 q 868 1226 840 1226 q 982 1206 940 1226 q 774 1021 869 1113 z "},"Ȗ":{"ha":901,"x_min":133,"x_max":993,"o":"m 435 -12 q 133 253 133 -12 q 143 357 133 304 l 210 746 q 217 806 217 785 q 202 848 217 833 q 149 868 188 863 q 146 907 146 879 q 147 943 146 931 q 328 939 214 939 q 518 943 444 939 q 503 868 515 901 q 435 850 457 864 q 405 811 414 836 q 385 728 396 786 l 321 364 q 311 264 311 311 q 353 120 311 167 q 475 74 396 74 q 633 147 571 74 q 718 351 694 219 l 779 697 q 790 783 790 756 q 773 836 790 818 q 711 868 756 854 q 708 908 708 881 q 710 943 708 931 q 851 939 769 939 q 993 943 933 939 q 978 868 990 897 q 914 838 935 856 q 883 788 893 821 q 860 683 872 756 l 804 364 q 685 80 771 172 q 435 -12 599 -12 m 676 1211 q 831 1172 778 1211 q 885 1060 885 1133 q 881 1015 885 1039 q 813 1001 846 1001 q 792 1003 799 1001 q 753 1077 793 1050 q 643 1104 714 1104 q 526 1077 574 1104 q 464 1003 478 1050 q 439 1001 456 1001 q 393 1010 410 1001 q 484 1159 411 1107 q 676 1211 557 1211 z "},"Ū":{"ha":901,"x_min":133,"x_max":993,"o":"m 435 -12 q 133 253 133 -12 q 143 357 133 304 l 210 746 q 217 806 217 785 q 202 848 217 833 q 149 868 188 863 q 146 907 146 879 q 147 943 146 931 q 328 939 214 939 q 518 943 444 939 q 503 868 515 901 q 435 850 457 864 q 405 811 414 836 q 385 728 396 786 l 321 364 q 311 264 311 311 q 353 120 311 167 q 475 74 396 74 q 633 147 571 74 q 718 351 694 219 l 779 697 q 790 783 790 756 q 773 836 790 818 q 711 868 756 854 q 708 908 708 881 q 710 943 708 931 q 851 939 769 939 q 993 943 933 939 q 978 868 990 897 q 914 838 935 856 q 883 788 893 821 q 860 683 872 756 l 804 364 q 685 80 771 172 q 435 -12 599 -12 m 388 1061 q 390 1099 388 1078 q 400 1133 393 1121 l 889 1133 q 876 1067 889 1097 q 388 1061 589 1067 z "},"Ṻ":{"ha":901,"x_min":133,"x_max":993,"o":"m 435 -12 q 133 253 133 -12 q 143 357 133 304 l 210 746 q 217 806 217 785 q 202 848 217 833 q 149 868 188 863 q 146 907 146 879 q 147 943 146 931 q 328 939 214 939 q 518 943 444 939 q 503 868 515 901 q 435 850 457 864 q 405 811 414 836 q 385 728 396 786 l 321 364 q 311 264 311 311 q 353 120 311 167 q 475 74 396 74 q 633 147 571 74 q 718 351 694 219 l 779 697 q 790 783 790 756 q 773 836 790 818 q 711 868 756 854 q 708 908 708 881 q 710 943 708 931 q 851 939 769 939 q 993 943 933 939 q 978 868 990 897 q 914 838 935 856 q 883 788 893 821 q 860 683 872 756 l 804 364 q 685 80 771 172 q 435 -12 599 -12 m 388 1061 q 390 1099 388 1078 q 400 1133 393 1121 l 889 1133 q 876 1067 889 1097 q 388 1061 589 1067 m 526 1206 q 465 1228 488 1206 q 443 1290 443 1251 q 467 1359 443 1335 q 535 1383 490 1383 q 597 1363 574 1383 q 619 1307 619 1342 q 617 1283 619 1300 q 586 1226 610 1246 q 526 1206 563 1206 m 817 1206 q 754 1228 776 1206 q 732 1288 732 1250 q 756 1359 732 1335 q 828 1383 781 1383 q 888 1362 867 1383 q 910 1304 910 1340 q 885 1231 910 1257 q 817 1206 861 1206 z "}}}
